<?xml version="1.0" encoding="UTF-8"?>
<svg id="Middle" xmlns="http://www.w3.org/2000/svg" xmlns:xlink="http://www.w3.org/1999/xlink" viewBox="0 0 1700 800">
  <defs>
    <style>
      .cls-1 {
        fill: #00a486;
      }

      .cls-1, .cls-2, .cls-3, .cls-4, .cls-5, .cls-6, .cls-7, .cls-8, .cls-9, .cls-10, .cls-11, .cls-12 {
        stroke-width: 0px;
      }

      .cls-2 {
        fill: #f0d7bf;
      }

      .cls-3 {
        fill: #1a7166;
      }

      .cls-4 {
        fill: #6fbabb;
      }

      .cls-5 {
        fill: none;
      }

      .cls-13 {
        clip-path: url(#clippath-1);
      }

      .cls-6 {
        fill: #ffd56c;
      }

      .cls-7 {
        fill: #fff;
      }

      .cls-8 {
        fill: #44bda2;
      }

      .cls-9 {
        fill: #003b2e;
      }

      .cls-14 {
        clip-path: url(#clippath);
      }

      .cls-10 {
        fill: #fcb45d;
      }

      .cls-11 {
        fill: #004534;
      }

      .cls-12 {
        fill: #e5b852;
      }
    </style>
    <clipPath id="clippath">
      <rect class="cls-5" x=".1" width="1700" height="800"/>
    </clipPath>
    <clipPath id="clippath-1">
      <path class="cls-5" d="m-39.6,827.2c-1.22-30.15,4.25-59.59-.99-90.43-5.87-39.54-12.42-79.75-11.59-119.94.82-39.51,11.04-83.68,35.27-115.07,10.77-14.69,23.55-28.71,42.33-33.32,18.1-3.95,36.83,2.82,40.1,22.26,11.13,66.36-78.22,134.33-25.54,195.48,36.67,42.34,57.89,99.35,20.86,148.1"/>
    </clipPath>
  </defs>
  <g>
    <path class="cls-2" d="m1170.37,688.48c-.12-1.66-53.03,43.34-24.47,73.33,0,0,28.96-12.08,24.47-73.33Z"/>
    <path class="cls-2" d="m1109.59,746.39s28.97,15.83,33.04,37.08c0,0-23.66,4.58-33.04-37.08Z"/>
    <path class="cls-2" d="m1142.63,783.47s1.63-18.33,42.84-29.58c0,0-23.66,44.58-42.84,29.58Z"/>
    <path class="cls-2" d="m1098.57,786.56s27.74,12.33,40.8,44.83c0,0-32.64,6.17-40.8-44.83Z"/>
    <path class="cls-2" d="m1139.37,831.39s14.69-29.25,59.15-44.83c0,0-27.89,61.6-59.15,44.83Z"/>
    <path class="cls-2" d="m1140.65,911.57c-14.65-50.73,5.61-168.48,6.48-173.46l4.07.74c-.21,1.21-20.96,121.76-6.58,171.53l-3.96,1.19Z"/>
  </g>
  <g class="cls-14">
    <g>
      <g>
        <path class="cls-6" d="m610.56,740.44c-.87-4.08-1.24-8.57.26-12.32,1.1-2.76,3.11-4.8,5.26-6.37,6.05-4.44,13.7-5.63,20.72-2.61,4.2,1.79,8.6,5.13,12.65,3.54,5.31-2.07,6.42-11.18,7.16-18.81,1.58-14.77,5.9-30.78,16.13-34.51,6.23-2.22,13.87,1.08,19.9,7.99,6.02,6.88,10.38,16.97,12.53,27.37,1.64,7.9,2.11,15.99,3.84,23.8,3.19,14.51,10.49,26.65,15.17,40.66,4.74,13.94,5.7,33.3-2.19,41.86-7.23,7.79-17.8,3.15-25.52,9.58-1.27,1.04-2.59,2.81-2.37,4.92.27,2.63,2.53,3.43,4.31,3.95,13.19,3.51,22.15,27.53,16.39,47.25-4.93,17.02-17.39,26.09-28.97,32.31-16.1,8.74-33.06,14.73-49.91,14.48-16.89-.17-33.61-6.92-45.94-19.25-12.12-12.17-19.44-28.28-25.33-43.37-3.59-9.34-6.74-18.78-5.96-28.25.81-9.44,6.35-19.35,15.52-22.92,9.94-3.89,20.6,1.51,31.11,2.59-2.93-6.02-2.56-13.89.85-19.65,3.18-5.33,8.72-8.43,14.24-8.07,4.09.24,11.24,4.64,10.73-3.86-.43-6.65-7.49-12.74-10.54-17.42-4.48-6.92-8.24-14.46-10.04-22.9Z"/>
        <path class="cls-7" d="m607.36,889.42s.04-.03.06-.04c5.91-4.13,11.62-8.94,16.99-14.23,3.71-3.65,7.28-7.54,10.72-11.65-.24-.23-.47-.47-.72-.71-.6-.66-1.15-1.36-1.67-2.08-1.03-1.45-1.88-3-2.6-4.6-1.45-3.21-2.8-6.45-4-9.74-1.18-3.29-2.2-6.63-2.94-10.05-.75-3.41-1.21-6.93-1.07-10.48.04-1.05.71-2.03,1.75-2.4,1.35-.49,2.83.23,3.3,1.63.01.03.02.06.03.09.99,2.97,2.12,5.87,3.34,8.8.63,1.46,1.26,2.93,1.91,4.4.67,1.47,1.35,2.94,2.03,4.43,1.37,2.98,2.78,5.99,4.21,9.07.72,1.53,1.33,3.14,1.78,4.87,0,0,0,0,0,.01,9.18-12.28,17.32-26.14,23.66-41.6,2.58-6.21,4.91-12.64,6.99-19.26-.08-.08-.16-.16-.24-.24-.73-.75-1.37-1.52-1.97-2.32-1.2-1.59-2.22-3.28-3.14-5.02-1.78-3.52-3.46-7.06-4.99-10.67-1.57-3.59-3.02-7.22-4.35-10.92-1.34-3.69-2.54-7.45-3.5-11.32-.25-1,.02-2.1.74-2.69.9-.75,2.16-.43,2.82.73,0,0,0,.01,0,.02,1.83,3.24,3.62,6.52,5.37,9.86,1.75,3.31,3.49,6.64,5.2,10.01,1.75,3.34,3.43,6.74,5.13,10.11.55,1.13,1.05,2.28,1.53,3.45,1.78-6.62,3.29-13.42,4.49-20.41-.16-.99.02-1.94.46-2.65.02-.12.04-.24.06-.36,3.15-18.44,4-38.07,3.08-58.31,0-.03,0-.06,0-.09-.07-1.47.73-2.55,1.82-2.42,1.13.13,2.15,1.51,2.27,3.06.39,5.17.67,10.31.84,15.41.14,5.09.25,10.18.03,15.16-.34,8.03-.89,15.96-1.88,23.69.68-.5,1.36-1.02,2.03-1.58,1.15-.95,2.29-1.96,3.4-3.03,1.11-1.06,2.22-2.17,3.26-3.29,0,0,.02-.02.02-.03.89-.96,2.28-.68,3.14.67.87,1.39.85,3.36-.06,4.38-1.12,1.27-2.23,2.43-3.38,3.58-1.15,1.14-2.33,2.24-3.55,3.29-1.21,1.05-2.47,2.05-3.81,2.96-.74.49-1.48.97-2.28,1.4-.61,3.79-1.28,7.54-2.09,11.21-1.03,4.57-2.16,9.08-3.37,13.51-1.18,4.46-2.61,8.75-4.08,13-1.5,4.23-2.97,8.46-4.76,12.45-.73,1.69-1.48,3.37-2.24,5.03,1.53-.42,3.09-.73,4.62-1.14,1.01-.22,2.02-.45,3.03-.67,1.02-.2,2.03-.41,3.04-.61,2.04-.37,4.07-.75,6.16-.94.01,0,.03,0,.04,0,.99-.09,1.99.56,2.53,1.78.73,1.66.28,3.73-.98,4.59-1.9,1.3-3.88,2.31-5.88,3.21-2.01.88-4.04,1.61-6.1,2.25-2.07.56-4.12,1.21-6.23,1.48-1.69.22-3.39.28-5.14.05-1.44,2.7-2.91,5.36-4.42,7.97-2.08,3.66-4.38,7.1-6.67,10.52-2.27,3.43-4.75,6.64-7.25,9.78-10.04,12.54-21.33,23.16-34.03,31.08-.91.56-2.18.28-2.88-.63-.72-.95-.57-2.21.33-2.84Z"/>
      </g>
      <g>
        <path class="cls-4" d="m531.67,883.61c62.43-39.29,86.48-114.4,86.72-115.15l-3.93-1.28c-.23.74-23.85,74.4-84.95,112.85l2.17,3.59Z"/>
        <path class="cls-4" d="m612.32,759.42c-2.67,3.34-2.18,8.26,1.09,10.98,3.27,2.73,8.08,2.23,10.75-1.11s2.18-8.26-1.09-10.98c-3.27-2.73-8.08-2.23-10.75,1.11Z"/>
        <ellipse class="cls-4" cx="590.69" cy="736.42" rx="7.55" ry="7.71"/>
        <path class="cls-4" d="m562.69,756.64c-2.92,3.65-2.39,9.04,1.19,12.02,3.58,2.98,8.85,2.44,11.77-1.22,2.92-3.65,2.39-9.04-1.19-12.02-3.58-2.98-8.85-2.44-11.77,1.22Z"/>
        <path class="cls-4" d="m592.8,815.28l3.47-2.29c-.19-.3-19.34-30.73-23.92-52.84l-4.04.87c4.75,22.88,23.69,52.98,24.5,54.25Z"/>
        <path class="cls-4" d="m577.6,785.69l3.88,1.45c4.64-12.9,12.92-47.06,13.27-48.5l-4.01-1.01c-.08.35-8.58,35.38-13.14,48.06Z"/>
      </g>
      <g>
        <g>
          <path class="cls-12" d="m1169.62,742.82c3.78-1.89,6.42-6.42,9.44-9.82,7.56-9.45,15.11-20.02,20.78-30.98,4.91-9.82,7.93-20.4,5.29-30.98-.75-4.16-3.02-12.09-7.55-13.6-6.8-1.89-4.91,6.8-5.67,11.33-.75,3.78-3.02,13.6-6.8,7.56-2.65-4.16,1.13-11.33-.38-15.87-1.13-3.4-5.67-9.45-9.82-8.31-4.53,1.51-4.53,11.33-4.91,14.73-2.64,21.16-7.55,44.2-4.91,65.36.75,3.4.75,7.18,3.4,9.44"/>
          <path class="cls-12" d="m1169.62,742.44c-6.42-4.91-10.96-11.33-16.25-17.38-8.69-9.07-18.51-16.25-29.47-22.29-9.45-5.67-20.78-13.6-32.11-13.98-6.04,0-9.44,3.4-5.67,9.44,2.65,4.16,13.98,7.56,14.36,13.6,0,8.69-26.07-3.78-24.18,9.44,1.89,11.33,24.55,17,33.25,19.27,16.24,4.53,42.31,7.93,58.93,2.27,1.13-.38.75-.38,1.51-.75"/>
          <path class="cls-6" d="m1170,742.44c-.75-16.24,2.27-32.49,1.51-48.73-.38-10.58-1.13-22.29-4.15-32.11-2.27-7.93-14.73-23.42-16.25-7.18-.75,7.18,3.78,21.16.38,26.82-6.8-4.91-15.11-31.36-25.69-28.71-11.33,3.02,7.93,27.58,6.42,34-10.58-3.02-18.51-12.47-29.85-14.73-19.65-4.16-10.95,13.6-4.15,22.67,12.84,17.38,32.49,32.87,52.13,41.93,6.04,2.64,12.84,5.67,19.27,6.42"/>
          <path class="cls-10" d="m1170.22,741.89c-3.13-8-5.84-16.18-7.16-24.7-1.41-9.12-1.08-18.43-.77-27.61.18-5.3.39-10.6.39-15.9,0-.8-1.25-.81-1.25,0-.01,9.42-.67,18.82-.64,28.24.03,8.91.97,17.62,3.38,26.21,1.34,4.79,3.02,9.47,4.84,14.09.29.74,1.5.42,1.21-.33h0Z"/>
          <path class="cls-10" d="m1169.31,740.11c-13.49-15.41-16.22-36.66-23.81-55.03-2.13-5.15-4.65-10.14-7.83-14.74-.45-.66-1.54-.03-1.08.63,11.7,16.91,13.9,38.04,22.82,56.26,2.42,4.94,5.38,9.61,9.01,13.76.53.61,1.41-.28.88-.88h0Z"/>
          <path class="cls-10" d="m1170.06,741.62c-5.93-6.79-13.23-12.02-20.47-17.29-8.1-5.89-15.88-12.23-23.2-19.06-4.12-3.84-8.08-7.84-11.86-12.01-.54-.6-1.42.29-.88.88,6.67,7.34,13.89,14.16,21.5,20.51,3.73,3.11,7.54,6.11,11.44,9.01s7.61,5.38,11.26,8.29c4.04,3.21,7.94,6.66,11.34,10.55.53.61,1.41-.28.88-.88h0Z"/>
          <path class="cls-10" d="m1170.16,742.38c7.77-14.58,16.98-28.55,22.36-44.28,1.52-4.45,2.69-9.02,3.39-13.67.12-.79-1.09-1.13-1.21-.33-2.46,16.55-10.88,31.39-19.01,45.74-2.24,3.95-4.48,7.91-6.62,11.92-.38.71.7,1.34,1.08.63h0Z"/>
          <path class="cls-10" d="m1170.22,742.23c4.73-16.12,9.79-32.24,11.65-49.01.55-4.98.83-9.99.84-15,0-.8-1.25-.81-1.25,0-.03,16.99-3.66,33.42-8.34,49.67-1.34,4.68-2.74,9.34-4.11,14-.23.77.98,1.1,1.21.33h0Z"/>
          <path class="cls-10" d="m1170,740.68c-19.71,0-39.9-.81-58.79-6.95-5.3-1.72-10.43-3.89-15.32-6.56-.71-.39-1.34.69-.63,1.08,17.57,9.63,37.94,12.49,57.7,13.36,5.68.25,11.36.33,17.04.33.8,0,.81-1.25,0-1.25h0Z"/>
          <path class="cls-10" d="m1168.27,740.32c-8.04-2.32-16.44-3.16-24.43-5.69-7.85-2.49-15.1-6.81-21.84-11.47-3.75-2.59-7.38-5.34-11-8.09-.64-.49-1.26.6-.63,1.08,6.48,4.92,13,9.84,20.11,13.83,3.5,1.97,7.15,3.76,10.92,5.14,4.02,1.46,8.2,2.4,12.39,3.25,4.74.96,9.5,1.82,14.15,3.16.77.22,1.11-.98.33-1.21h0Z"/>
        </g>
        <path class="cls-9" d="m1318.21,906.38c.68-12.66-6.34-24.81-13.57-34.66-8.29-11.28-18.32-21.31-29.04-30.28-11-9.21-22.91-17.37-34.68-25.55-13.38-9.3-26.81-18.62-38.92-29.57-6.04-5.46-11.73-11.32-16.84-17.66-2.53-3.14-5.06-6.39-7.09-9.87-2.1-3.6-3.71-7.47-5.22-11.35-.69-1.78-1.35-3.56-2.02-5.34-.56-1.49-2.98-.85-2.41.66,2.83,7.54,5.65,15.02,10.37,21.61,4.71,6.58,10.04,12.7,15.79,18.38,11.52,11.37,24.63,20.99,37.86,30.27,12.37,8.67,24.91,17.12,36.79,26.46,10.66,8.38,20.63,17.84,29.23,28.33,4.38,5.35,8.42,11.06,11.63,17.2,2.8,5.35,5.08,11.22,5.57,17.29.11,1.36.13,2.73.05,4.09-.09,1.61,2.41,1.6,2.5,0h0Z"/>
        <path class="cls-9" d="m1169.62,743.57c7.93-8.31,18.13-13.98,21.53-26.45,1.89-6.04.38-12.84-6.05-6.8-4.91,4.53-6.42,12.47-11.71,17.38-4.15-3.78-5.67-20.02-13.22-20.02-7.93.38-.38,17,.38,20.78-4.91.76-16.25-10.58-21.16-6.42-5.67,5.29,11.71,12.09,12.47,16.24-4.53.76-12.09-.76-15.49,3.02-4.91,6.04,4.15,6.8,8.69,7.18,7.93.38,16.62-.38,23.8-4.53"/>
        <path class="cls-1" d="m1155.08,838.96c-1.51-10.39-14.36-19.08-22.29-24.75-13.79-10.2-29.47-12.09-45.52-16.62-2.64-.76-6.99-2.83-9.63-2.27,3.97,13.22,9.82,26.82,20.02,36.27,8.69,8.12,21.72,16.81,34,17.38,9.82.38,17.19-1.32,23.04-9.26"/>
        <path class="cls-8" d="m1112.6,822.12c7.96,4.78,16.28,8.84,24.82,12.47,5.73,2.43,11.42,4.87,17.64,4.4l-.37.73c-5.85,7.93-13.22,9.63-23.04,9.26-12.28-.57-25.31-9.26-34-17.38-9.39-8.69-15.09-20.9-19.03-33.1,11.4,7.76,22.14,16.5,33.98,23.62Z"/>
        <path class="cls-1" d="m1140.34,789.47c-9.63-49.87-60.63-41.93-99.17-40.23,12.47,19.27,26.07,34.57,49.87,40.8,15.87,3.4,32.87,3.97,48.73,0"/>
        <path class="cls-8" d="m1136.97,786.28c-7.83-5.75-15.71-11.6-24.8-15.22-9.44-3.75-19.36-6.39-29.43-7.66-10.08-1.27-20.2-2.85-29.67-6.68-3.39-1.37-6.7-2.93-9.96-4.57-.64-.96-1.29-1.93-1.92-2.91,38.53-1.7,89.53-9.63,99.17,40.23l-.57.57c-.14.04-.29.06-.43.1-.21-1.43-.95-2.81-2.38-3.86Z"/>
        <path class="cls-9" d="m1290.83,899.66c-14.05-11.9-32.56-14.32-50.18-16.62-8.85-1.15-17.76-2.32-26.33-4.91-8.95-2.7-17.27-7.41-24.8-12.91-7.83-5.72-14.66-12.71-20.47-20.46-6.43-8.58-10.11-18.55-13.79-28.52-3.38-9.14-7.01-18.34-13.06-26.09-4.98-6.38-11.38-11.51-18.49-15.33-14.44-7.76-30.92-10.45-46.81-13.66-1.98-.4-3.96-.81-5.93-1.23-1.57-.34-2.24,2.07-.66,2.41,15.87,3.41,32.37,5.58,47.3,12.26,7.26,3.25,14,7.62,19.48,13.42,6.59,6.97,10.69,15.63,14.11,24.49,3.72,9.65,6.84,19.62,12.28,28.49,5.06,8.25,11.82,15.73,19.19,21.97,7.19,6.1,15.41,11.46,24.13,15.11,8.15,3.41,16.89,5.07,25.59,6.33,17.33,2.52,36.07,3.37,51.27,13.02,1.89,1.2,3.69,2.53,5.41,3.98,1.22,1.03,3-.73,1.77-1.77h0Z"/>
        <path class="cls-9" d="m1112.45,761.83c2.21,2.11,4.27,4.38,6.16,6.78s3.68,4.97,4.85,7.78l.57-1.41c-4.97,2.39-9.96,4.91-15.38,6.11-1.57.35-.91,2.76.66,2.41,5.62-1.24,10.82-3.88,15.97-6.36.44-.21.77-.94.57-1.41-2.49-5.98-7.02-11.23-11.65-15.66-1.16-1.11-2.93.65-1.77,1.77h0Z"/>
        <path class="cls-9" d="m1086.94,756.1c2.57,4.07,6.88,6.88,8.88,11.33l.45-1.71c-4.14,2.05-8.51,3.62-12.47,6.04-1.37.84-.12,3,1.26,2.16,3.95-2.42,8.33-3.99,12.47-6.04.65-.32.71-1.13.45-1.71-2.01-4.48-6.3-7.25-8.88-11.33-.86-1.36-3.02-.1-2.16,1.26h0Z"/>
        <path class="cls-3" d="m1046.62,820.5c1.49-25.82-26.31-47.16-47.16-56.59-12.41-5.46-25.81-7.45-39.71-8.94-9.93-.99-19.86-5.46-29.29-6.95,16.88,48.65,53.12,86.87,107.23,76.45,2.48-.5,5.46-.99,7.45-1.99"/>
        <path class="cls-8" d="m934.73,753.4c4.9,5.58,12,8.82,18.04,12.96,3.59,2.46,7.12,5.01,10.69,7.51,3.56,2.5,7.25,4.79,11.01,6.99,14.94,8.76,30.6,16.23,45.61,24.89,8.58,4.95,17.05,10.09,25.44,15.36,1.37.86,2.62-1.3,1.26-2.16-14.75-9.26-29.74-18.2-45.19-26.25-7.58-3.95-15.16-7.88-22.59-12.1-3.69-2.1-7.36-4.26-10.93-6.57-3.64-2.35-7.11-4.98-10.65-7.47s-7.27-4.95-11.03-7.26c-3.57-2.2-7.12-4.48-9.91-7.66-1.06-1.21-2.83.56-1.77,1.77h0Z"/>
        <path class="cls-8" d="m1030.22,794.39c2.36,6.51,2.99,13.49,5.3,20.02l.87-1.54c-8.88,1.55-17.72,4.05-26.81,3.76-1.61-.05-1.61,2.45,0,2.5,9.31.29,18.38-2.26,27.47-3.85.63-.11,1.08-.95.87-1.54-2.3-6.53-2.94-13.51-5.3-20.02-.54-1.5-2.96-.85-2.41.66h0Z"/>
        <path class="cls-8" d="m1009.21,777.18c1.52,4.46,2.61,9.05,4.03,13.54s3.28,8.6,3.87,13.1l.92-1.21c-8.5,3.53-17.66,5.03-26.64,6.79-1.58.31-.91,2.72.66,2.41,8.98-1.76,18.14-3.25,26.64-6.79.46-.19.99-.63.92-1.21-.6-4.6-2.4-8.92-3.82-13.31-1.49-4.63-2.6-9.38-4.17-13.99-.52-1.51-2.93-.86-2.41.66h0Z"/>
        <path class="cls-8" d="m992.49,771.38c2.65,7.27,5.58,14.49,6.79,22.17l.87-1.54c-8.36,2.79-17.27,2.99-25.81,4.96-1.57.36-.9,2.77.66,2.41,8.55-1.98,17.45-2.17,25.81-4.96.7-.23.98-.84.87-1.54-1.21-7.68-4.14-14.91-6.79-22.17-.55-1.5-2.96-.85-2.41.66h0Z"/>
        <path class="cls-8" d="m970.98,765.26c1.17,4.68,2.1,9.43,2.6,14.23l1.25-1.25c-4.71-.15-9.37.65-14.06.83-1.6.06-1.61,2.56,0,2.5,4.69-.18,9.36-.97,14.06-.83.62.02,1.32-.59,1.25-1.25-.53-5.02-1.47-9.99-2.69-14.89-.39-1.56-2.8-.9-2.41.66h0Z"/>
        <path class="cls-8" d="m955.22,758.31c.03,3.61,1.46,7.01,1.66,10.59l1.25-1.25c-3.29.02-6.5.8-9.76,1.16-.67.07-1.25.52-1.25,1.25,0,.62.57,1.32,1.25,1.25,3.26-.35,6.47-1.14,9.76-1.16.65,0,1.29-.57,1.25-1.25-.2-3.58-1.63-7-1.66-10.59-.01-1.61-2.51-1.61-2.5,0h0Z"/>
      </g>
      <g>
        <g>
          <path class="cls-12" d="m515.82,743.78c-4.65-2.32-7.9-7.9-11.62-12.09-9.3-11.63-18.6-24.65-25.58-38.13-6.05-12.09-9.76-25.11-6.51-38.13.93-5.12,3.72-14.88,9.3-16.74,8.37-2.33,6.05,8.37,6.97,13.95.93,4.65,3.72,16.74,8.37,9.3,3.26-5.12-1.39-13.95.47-19.53,1.39-4.18,6.97-11.63,12.09-10.23,5.58,1.86,5.58,13.95,6.05,18.13,3.25,26.04,9.3,54.4,6.04,80.44-.93,4.18-.93,8.83-4.18,11.62"/>
          <path class="cls-12" d="m515.82,743.32c7.91-6.04,13.49-13.95,20-21.39,10.69-11.16,22.79-20,36.27-27.44,11.63-6.97,25.58-16.74,39.53-17.2,7.44,0,11.62,4.18,6.97,11.62-3.26,5.12-17.21,9.3-17.67,16.74,0,10.7,32.08-4.65,29.76,11.62-2.32,13.95-30.22,20.92-40.92,23.71-19.99,5.58-52.08,9.76-72.54,2.79-1.39-.46-.93-.46-1.86-.93"/>
          <path class="cls-6" d="m515.36,743.32c.93-19.99-2.79-39.99-1.86-59.98.47-13.02,1.39-27.44,5.11-39.52,2.79-9.76,18.13-28.83,20-8.84.93,8.84-4.65,26.04-.47,33.02,8.37-6.04,18.6-38.59,31.62-35.34,13.95,3.72-9.76,33.94-7.91,41.85,13.02-3.72,22.79-15.34,36.74-18.13,24.18-5.12,13.48,16.74,5.11,27.9-15.81,21.39-39.99,40.45-64.17,51.61-7.44,3.25-15.81,6.97-23.71,7.9"/>
          <path class="cls-7" d="m516.56,743.06c3.93-10.02,7.3-20.27,8.89-30.95,1.67-11.19,1.3-22.58.92-33.85-.22-6.52-.48-13.04-.48-19.57,0-.99-1.54-.99-1.54,0,.01,11.39.8,22.77.78,34.17-.01,11.03-1.13,21.8-4.1,32.45-1.65,5.89-3.72,11.65-5.95,17.34-.36.92,1.13,1.32,1.48.41h0Z"/>
          <path class="cls-7" d="m517.29,741.54c16.61-18.96,20.15-44.88,29.35-67.55,2.65-6.52,5.82-12.84,9.83-18.63.56-.82-.77-1.59-1.33-.78-14.23,20.57-17.05,46.18-27.69,68.42-3,6.27-6.66,12.21-11.25,17.45-.65.74.43,1.83,1.09,1.09h0Z"/>
          <path class="cls-7" d="m516.36,743.4c7.47-8.55,16.69-15.03,25.79-21.69,9.75-7.14,19.13-14.8,27.96-23.04,5.07-4.73,9.94-9.65,14.6-14.78.66-.73-.42-1.82-1.09-1.09-8.21,9.03-17.1,17.43-26.47,25.25-4.77,3.98-9.66,7.82-14.66,11.51-4.42,3.27-8.97,6.35-13.27,9.78-4.97,3.96-9.77,8.19-13.95,12.98-.65.74.43,1.84,1.09,1.09h0Z"/>
          <path class="cls-7" d="m516.48,742.46c-9.54-17.9-20.9-35.05-27.46-54.38-1.83-5.4-3.24-10.94-4.08-16.58-.15-.98-1.63-.56-1.48.41,3.03,20.4,13.4,38.74,23.42,56.43,2.8,4.94,5.61,9.88,8.28,14.9.47.87,1.79.1,1.33-.78h0Z"/>
          <path class="cls-7" d="m516.56,742.65c-5.8-19.79-12.06-39.6-14.32-60.19-.66-6.04-.99-12.11-1-18.19,0-.99-1.54-.99-1.54,0,.04,20.95,4.49,41.24,10.24,61.29,1.68,5.84,3.42,11.67,5.13,17.5.28.95,1.76.54,1.48-.41h0Z"/>
          <path class="cls-7" d="m515.36,742.69c24.55,0,49.75-1.02,73.26-8.77,6.47-2.13,12.76-4.8,18.73-8.07.87-.48.09-1.81-.78-1.33-21.54,11.81-46.55,15.22-70.76,16.25-6.81.29-13.63.38-20.45.38-.99,0-.99,1.54,0,1.54h0Z"/>
          <path class="cls-7" d="m517.88,742.2c10.08-2.9,20.61-3.92,30.59-7.17,9.51-3.1,18.31-8.3,26.51-13.95,4.69-3.23,9.23-6.67,13.76-10.11.78-.59.01-1.93-.78-1.33-7.83,5.95-15.72,11.89-24.29,16.76-4.49,2.55-9.18,4.89-14.06,6.62s-9.94,2.84-15,3.87c-5.74,1.16-11.51,2.21-17.15,3.84-.95.27-.55,1.76.41,1.48h0Z"/>
        </g>
        <path class="cls-9" d="m336,945.11c-.84-15.55,8.21-30.36,17.19-42.32,10.25-13.66,22.65-25.8,35.81-36.64,13.83-11.4,28.74-21.51,43.44-31.73,16.34-11.36,32.67-22.89,47.32-36.4,7.32-6.74,14.19-13.97,20.34-21.8,3.02-3.84,6.05-7.78,8.44-12.05,2.48-4.43,4.43-9.15,6.26-13.88.85-2.18,1.67-4.38,2.49-6.58.7-1.86-2.28-2.66-2.97-.82-1.75,4.68-3.49,9.38-5.55,13.94-2.06,4.55-4.55,8.71-7.48,12.74-5.93,8.17-12.7,15.72-19.95,22.73-14.45,13.96-30.78,25.74-47.22,37.21-14.99,10.46-30.17,20.75-44.46,32.16-13.2,10.54-25.57,22.41-36.1,35.65-9.72,12.21-19.26,26.77-20.57,42.75-.14,1.68-.16,3.36-.07,5.04.11,1.97,3.18,1.98,3.08,0h0Z"/>
        <path class="cls-9" d="m515.82,744.71c-9.76-10.23-22.32-17.21-26.5-32.55-2.32-7.44-.46-15.81,7.44-8.37,6.05,5.58,7.9,15.34,14.42,21.39,5.11-4.65,6.97-24.65,16.27-24.65,9.76.46.47,20.92-.47,25.57,6.05.93,20-13.02,26.04-7.9,6.97,6.51-14.42,14.88-15.34,19.99,5.58.93,14.88-.93,19.06,3.72,6.05,7.44-5.11,8.37-10.69,8.83-9.76.46-20.46-.46-29.29-5.58"/>
        <path class="cls-1" d="m551.86,801.21c11.86-61.38,74.63-51.61,122.06-49.52-15.34,23.71-32.08,42.55-61.38,50.22-19.53,4.18-40.45,4.88-59.98,0"/>
        <path class="cls-8" d="m556.01,797.28c9.64-7.08,19.33-14.28,30.53-18.73,11.61-4.62,23.83-7.86,36.23-9.42,12.41-1.56,24.86-3.51,36.52-8.23,4.17-1.69,8.24-3.6,12.26-5.63.79-1.19,1.58-2.37,2.37-3.59-47.43-2.09-110.2-11.86-122.06,49.52l.7.7c.17.04.35.08.53.12.26-1.76,1.17-3.46,2.93-4.75Z"/>
        <path class="cls-9" d="m368.81,939.01c17.2-14.57,40.37-17.02,61.86-19.85,10.76-1.42,21.61-2.91,32-6.18,10.94-3.44,21.18-9.25,30.4-16.02,9.51-6.98,17.84-15.34,25.02-24.7,7.83-10.22,12.69-21.85,17.11-33.84,4.23-11.46,8.42-23.2,15.74-33.12,5.95-8.07,13.81-14.49,22.59-19.26,17.6-9.56,37.84-12.77,57.23-16.69,2.44-.49,4.87-.99,7.3-1.52,1.94-.42,1.12-3.38-.82-2.97-19.7,4.24-40.02,7.02-58.59,15.24-8.98,3.98-17.37,9.36-24.25,16.41-8.06,8.27-13.33,18.43-17.62,29.06-4.79,11.88-8.41,24.27-14.82,35.43-6.13,10.67-14.68,20.23-24.02,28.21-4.4,3.76-9.1,7.17-14.01,10.24s-10.36,6.16-15.9,8.38c-10.1,4.05-20.91,5.97-31.64,7.49-21.48,3.04-44.56,4.39-63.24,16.63-2.27,1.49-4.44,3.13-6.52,4.89-1.51,1.28.67,3.45,2.18,2.18h0Z"/>
        <path class="cls-9" d="m584.02,765.02c-5.7,5.46-11.28,11.92-14.35,19.28-.24.58.15,1.47.71,1.74,6.34,3.05,12.75,6.3,19.66,7.83,1.93.43,2.75-2.54.82-2.97-6.67-1.47-12.81-4.58-18.93-7.52l.71,1.74c1.44-3.46,3.67-6.64,5.97-9.57,2.32-2.96,4.87-5.75,7.58-8.35,1.43-1.37-.74-3.55-2.18-2.18h0Z"/>
        <path class="cls-9" d="m614.93,758.58c-3.17,5.02-8.45,8.43-10.93,13.95-.32.72-.25,1.7.55,2.11,5.09,2.53,10.48,4.46,15.34,7.44,1.69,1.04,3.24-1.62,1.55-2.66-4.87-2.98-10.25-4.91-15.34-7.44l.55,2.11c2.46-5.48,7.76-8.93,10.93-13.95,1.06-1.68-1.6-3.23-2.66-1.55h0Z"/>
        <path class="cls-3" d="m652.49,836.47c-1.83-31.78,32.39-58.05,58.05-69.66,15.28-6.72,31.77-9.17,48.88-11,12.22-1.22,24.44-6.72,36.05-8.55-20.77,59.88-65.38,106.93-131.98,94.1-3.06-.61-6.72-1.22-9.17-2.44"/>
        <path class="cls-8" d="m788.02,751.71c-2.99,3.4-6.68,5.98-10.49,8.38-3.98,2.5-7.96,4.94-11.83,7.6-4.41,3.04-8.75,6.18-13.14,9.25-4.3,3.01-8.79,5.74-13.33,8.39-18.33,10.71-37.51,19.88-55.89,30.49-10.47,6.05-20.81,12.33-31.06,18.75-1.67,1.05-.13,3.71,1.55,2.66,18.32-11.5,36.94-22.59,56.14-32.58,9.32-4.86,18.66-9.7,27.79-14.92,4.62-2.64,9.26-5.3,13.68-8.28,4.43-2.98,8.73-6.17,13.11-9.23,4.48-3.13,9.05-6.07,13.69-8.95,4.31-2.68,8.59-5.55,11.97-9.39,1.3-1.48-.87-3.67-2.18-2.18h0Z"/>
        <path class="cls-8" d="m695.57,782.33c-1.93,5.67-3.3,11.51-5.14,17.22-1.74,5.41-3.95,10.72-4.7,16.39-.09.72.56,1.25,1.13,1.48,10.46,4.35,21.73,6.19,32.79,8.35,1.93.38,2.76-2.59.82-2.97-11.06-2.16-22.33-4.01-32.79-8.35.38.49.75.99,1.13,1.48.73-5.54,3.09-10.83,4.76-16.13,1.74-5.53,3.09-11.17,4.96-16.66.64-1.88-2.33-2.68-2.97-.82h0Z"/>
        <path class="cls-8" d="m716.14,775.2c-3.26,8.94-6.87,17.84-8.35,27.29-.13.86.21,1.6,1.07,1.89,10.29,3.44,21.25,3.68,31.77,6.11,1.93.45,2.75-2.52.82-2.97-10.52-2.43-21.48-2.67-31.77-6.11l1.07,1.89c1.49-9.45,5.09-18.35,8.35-27.29.68-1.86-2.29-2.67-2.97-.82h0Z"/>
        <path class="cls-8" d="m742.62,767.66c-1.5,6.03-2.66,12.15-3.31,18.33-.09.81.77,1.56,1.54,1.54,5.79-.18,11.53.8,17.31,1.02,1.98.08,1.98-3,0-3.08-5.78-.22-11.52-1.2-17.31-1.02l1.54,1.54c.62-5.91,1.77-11.75,3.2-17.51.48-1.92-2.49-2.74-2.97-.82h0Z"/>
        <path class="cls-8" d="m761.91,759.92c-.04,4.42-1.8,8.62-2.04,13.04-.05.83.74,1.53,1.54,1.54,4.05.02,8.01.99,12.02,1.42.83.09,1.54-.77,1.54-1.54,0-.91-.71-1.45-1.54-1.54-4.01-.44-7.96-1.4-12.02-1.42l1.54,1.54c.24-4.41,2-8.59,2.04-13.04.02-1.98-3.06-1.98-3.08,0h0Z"/>
        <path class="cls-8" d="m773.32,756.87c-.01,2.39-.6,4.74-.61,7.13,0,.67.48,1.31,1.13,1.48,2.69.73,5.55,1.27,8.35,1.07.8-.06,1.58-.67,1.54-1.54-.04-.78-.68-1.6-1.54-1.54-.66.05-1.31.05-1.97.02-.34-.02-.67-.04-1.01-.08-.19-.02-.38-.04-.57-.07-.18-.02-.19-.02-.02,0-.07-.01-.14-.02-.21-.03-1.26-.19-2.51-.47-3.75-.8l1.13,1.48c.01-2.39.6-4.74.61-7.13,0-.8-.71-1.58-1.54-1.54s-1.53.68-1.54,1.54h0Z"/>
      </g>
    </g>
  </g>
  <g>
    <g>
      <path class="cls-6" d="m1318.62,700.38c-7.49-12.02-15.82-23.77-26.8-32.71-4.36-3.55-10.37-6.73-15.34-4.11-3.75,1.98-5.28,6.54-5.83,10.74-1.51,11.49,1.84,23.05,6.04,33.84,15.76,40.46,43.63,74.87,71.75,107.95,9.45,11.11,19.11,22.38,24.89,35.78l7.7,2.31c-1.72-53.51-34.08-108.37-62.4-153.8Z"/>
      <path class="cls-6" d="m1409.63,695.05c-1.24-14.11-3.35-28.36-9.08-41.3-2.28-5.14-6.2-10.7-11.82-10.61-4.24.07-7.67,3.44-10.07,6.93-6.55,9.56-8.8,21.38-9.94,32.91-4.27,43.21,4.99,86.51,15.08,128.74,3.39,14.19,6.91,28.61,5.99,43.17l5.82,5.55c22.7-48.49,18.69-112.05,14.02-165.39Z"/>
      <path class="cls-6" d="m1271.31,770.41c-11.45-8.34-23.58-16.11-37.11-20.29-5.37-1.66-12.14-2.36-15.76,1.94-2.73,3.24-2.45,8.04-1.39,12.14,2.91,11.21,10.34,20.68,18.28,29.11,29.77,31.6,68.5,53.07,106.97,73.2,12.92,6.76,26.11,13.59,36.48,23.84l8.01-.74c-21.65-48.97-72.2-87.7-115.48-119.22Z"/>
    </g>
    <g>
      <path class="cls-7" d="m1368.76,879.3c-.43,0-.84-.19-1.11-.53-34.58-41.31-75.37-76.63-121.21-104.95-.67-.42-.88-1.31-.47-1.98.42-.68,1.31-.89,1.98-.47,46.12,28.49,87.13,64.01,121.92,105.56.25.29.37.67.33,1.06-.04.38-.22.73-.52.98-.25.21-.58.33-.92.33Zm.42-1.81s0,0,0,.01c0,0,0,0,0-.01Z"/>
      <path class="cls-7" d="m1373.42,839.8c-.64,0-1.21-.43-1.38-1.04-9.4-33.28-28.44-63.17-46.85-92.07-11.91-18.69-24.21-37.99-33.92-58.18-.34-.71-.04-1.57.67-1.92.36-.17.74-.19,1.1-.06.37.13.66.39.83.74,9.64,20.01,21.89,39.25,33.74,57.84,18.53,29.09,37.69,59.16,47.21,92.86.1.37.06.76-.13,1.09s-.5.58-.87.68c-.12.04-.26.05-.39.05Zm-.54-1.29s0,0,0,0h0Zm1.08-.3h0,0Zm-81.91-150.08s0,0,0,0c0,0,0,0,0,0Z"/>
      <path class="cls-7" d="m1395.2,845.45c-.12,0-.24-.01-.35-.04-.35-.08-.67-.31-.87-.64-.2-.33-.27-.72-.18-1.09,6.88-29.11,5.03-59.35,2.64-82.44-1.04-10.03-2.35-20.22-3.63-30.07v-.1c-2.24-17.24-4.55-35.08-5.44-52.76-.04-.79.57-1.47,1.36-1.51.82-.03,1.47.55,1.51,1.37.88,17.57,3.18,35.34,5.41,52.52l.04.33c1.27,9.8,2.58,19.93,3.61,29.92,2.41,23.32,4.28,53.87-2.7,83.4-.16.65-.73,1.11-1.4,1.11Zm.55-1.31h0s0,0,0,0Z"/>
    </g>
  </g>
  <g>
    <path class="cls-6" d="m1690.79,871.51c8.55-5.68,15.62-13.37,21.45-21.81-13.32,7.19-29.31,7.5-44.3,5.43-14.99-2.07-29.65-6.34-44.72-7.73-9.27-.85-18.8-.53-27.8,1.98-3.57,1-6.97,2.37-10.23,4.09,3.81-6.29,8.06-12.3,12.63-18.05.2-.26.42-.51.63-.76.5-.06.93-.1,1.22-.1,4.92.12,9.83,1.28,14.57,2.52,5.41,1.41,10.75,3.11,16.21,4.32,15.42,3.4,31.75,2.76,46.74-2.2,14.99-4.96,28.57-14.25,38.32-26.67-11.92,2.58-23.85,5.16-35.77,7.74-3.13.68-6.26,1.35-9.43,1.78-14.39,1.95-29.07-1.27-43.51.21-7.92.81-15.58,3.04-22.97,5.93,3.83-4.46,7.8-8.81,11.84-13.1,1.39.08,2.74.02,3.23,0,6.16-.08,12.14-1.7,17.89-3.68,8.16-2.81,16.14-6.4,24.73-7.6,16.55-2.31,34.28,4.41,50.14-.68,3.03-.97,5.91-2.35,8.77-3.73-9.89-.17-19.23-5.55-28.88-8.48-12.98-3.95-26.9-3.4-39.11,1.54-10.71,4.33-19.98,11.86-30.65,16.19,6.01-6.26,12.07-12.47,17.95-18.83,2.67-2.89,5.28-5.82,7.88-8.77,3.09-1.2,6.37-1.92,9.65-2.31,7.02-.83,14.12-.3,21.17-.66,25.35-1.3,49.8-14.83,64.37-35.62-14.65,6.77-31.58,6.2-47.12,10.56-11.07,3.11-21.27,8.68-31.36,14.21-3.06,1.67-6.12,3.35-9.17,5.02,4.38-5.24,8.65-10.57,12.8-16,.29-.26.55-.49.71-.6,3.34-2.2,7.22-3.5,11.12-4.25,5.94-1.14,12.03-1.13,18.03-1.87,21.55-2.68,41.58-15.73,52.72-34.37-12.08,6.69-26.57,7.24-39.56,11.92-9.26,3.34-17.61,8.72-25.88,14.06-3.76,2.43-7.53,4.86-11.29,7.29,3.81-5.21,7.52-10.49,11.12-15.86,1.31-.18,2.9-.77,3.36-.92,4.21-1.39,7.96-3.78,11.47-6.38,4.99-3.69,9.69-7.87,15.31-10.54,10.85-5.15,24.45-4.37,34.23-11.28,1.87-1.32,3.54-2.89,5.21-4.45-6.82,2.01-14.38.35-21.63.42-9.75.09-19.18,3.47-26.48,9.49-6.44,5.3-11.19,12.5-17.61,17.79,7.26-11.19,14.06-22.67,20.35-34.44.84-.31,1.7-.58,2.57-.78,3.31-.77,6.73-.89,10.09-1.43,12.05-1.95,23.03-9.71,28.9-20.41-6.65,4.01-14.77,4.62-21.97,7.52-5.13,2.07-9.71,5.27-14.25,8.44-.98.68-1.95,1.37-2.93,2.05,3.42-6.57,6.69-13.2,9.79-19.92,1.51-3.26,2.66-7.83-.3-9.87-4.84,10.11-9.69,20.24-14.77,30.24.1-.35.2-.69.31-1.03.82-2.67,1.78-5.29,2.49-7.99,2.02-7.62,2.04-15.78-.11-23.35-2.16-7.58-6.51-14.54-12.49-19.67,1.04,6,2.07,12,3.11,18,.27,1.57.54,3.15.69,4.74.67,7.22-1.25,14.47-.81,21.7.3,4.89,1.67,9.64,3.42,14.19-6.03,11.53-12.43,22.83-19.56,33.68.09-.85.13-1.57.18-1.92,1.37-10.27,6.55-19.72,8.42-29.91,1.98-10.77.09-22.21-5.3-32.12-4.01-7.37-9.95-14.08-11.75-22.11-.64,2.57-1.29,5.14-1.57,7.77-1.48,13.77,6.96,27.09,7.85,40.96.46,7.19-1.13,14.3-2.05,21.42-.65,5.01-.96,10.15,0,15.19.13.7.57,3.58,1.43,4.89-.87,1.28-1.75,2.56-2.64,3.82-5.38,7.61-11.16,14.92-17.21,22.01.02-.11.05-.22.07-.33,1.22-6.17,2.44-12.33,3.66-18.5,2.1-10.63,4.21-21.37,3.86-32.21-.49-15.2-5.81-30.25-3.89-45.34-14.54,18.99-19.76,44.79-13.73,67.94,1.68,6.44,4.17,12.67,5.41,19.21.82,4.3,1.06,8.8.17,13.11-.08.4-.41,1.19-.74,2.08-7.85,8.84-16.09,17.36-24.47,25.71-.04.04-.08.08-.12.12.56-4.57,1.98-9.05,3.47-13.38,1.79-5.2,3.86-10.31,5.45-15.58,4.49-14.86,5.09-30.94,1.35-46.01-3.74-15.07-11.84-29.09-23.28-39.59,1.63,11.89,3.27,23.78,4.9,35.67.43,3.12.86,6.24,1.04,9.38.83,14.26-3.43,28.41-3.06,42.69.26,9.96,2.78,19.69,6.07,29.04.1.29.24.79.44,1.36-5.75,5.68-11.53,11.34-17.17,17.13,0-1.77-.14-3.43-.14-4.13-.03-15.03,5.57-29.62,6.28-44.63.74-15.87-4.19-31.94-13.87-45.14-7.19-9.81-17.04-18.3-21.19-29.49-.42,3.82-.85,7.64-.75,11.48.55,20.08,15.28,37.59,19.26,57.35,2.06,10.25,1.16,20.77,1.22,31.19.04,7.33.59,14.78,2.96,21.83.27.81,1.13,3.71,2.26,5.66-4.51,4.76-8.89,9.64-13.03,14.71.03-2.37-.34-4.75-.71-7.1-1.31-8.27-2.61-16.53-3.92-24.8-2.25-14.25-4.54-28.65-9.95-42.03-7.59-18.78-21.15-35.14-25.66-54.88-9.47,30.41-4.15,65.06,14.01,91.22,5.05,7.28,11.03,13.93,15.58,21.53,3,5,5.37,10.51,6.23,16.31.13.86-.05,3.28.09,5.25-.04.06-.09.11-.13.17-1.36,1.8-5.58,8.11-9.76,15.21-2.26-11.31-5.51-22.51-11.05-32.68-8.42-15.45-21.69-27.89-29.61-43.6-1.74-3.46-3.21-7.05-4.68-10.63-5.6-13.68-11.19-27.35-16.79-41.03-5.71,18.25-5.69,38.18-.36,56.54,5.32,18.36,15.88,35.12,29.84,48.18,4.95,4.63,10.31,8.79,15.42,13.23,4.48,3.89,9.01,7.99,12.5,12.83.38.53.92,1.67,1.53,2.79-5.17,9.49-8.98,18.66-4.95,19.22,5.59.78,9.22-11.94,11.4-16.68.43-.06.92-.16,1.5-.33,7.08-2.12,14.78-1.19,21.8,1.14,7.02,2.33,13.5,5.99,20.03,9.45,11.38,6.03,23.55,11.65,36.43,11.69,10.26.04,20.35-3.54,28.9-9.22Z"/>
    <g>
      <g>
        <path class="cls-7" d="m1636.61,805.64c-.06-.14-.01-.3.12-.38,7.37-4.49,14.99-9.13,23.45-11.65,6.8-2.02,14.44-2.73,22.69-2.1.17.01.29.16.28.33-.01.17-.16.29-.33.28-8.18-.62-15.74.08-22.47,2.08-8.38,2.49-15.97,7.11-23.3,11.58-.14.09-.33.04-.42-.1,0-.01-.01-.03-.02-.04Z"/>
        <path class="cls-7" d="m1636.89,806.83c-.1,0-.21-.01-.31-.04-.34-.08-.63-.29-.81-.6l-.08-.16c-.26-.59-.03-1.3.52-1.63,7.42-4.52,15.1-9.2,23.68-11.75,6.92-2.06,14.67-2.77,23.06-2.14.71.06,1.25.68,1.2,1.39-.06.72-.67,1.26-1.4,1.21-8.07-.61-15.51.08-22.12,2.04-8.25,2.45-15.78,7.04-23.06,11.47-.21.13-.45.2-.68.2Zm.36-.72s0,0,0,0c0,0,0,0,0,0Zm-.72-1.18s0,0,0,0c0,0,0,0,0,0Z"/>
      </g>
      <g>
        <path class="cls-7" d="m1664.87,771.86s-.01-.03-.02-.05c-.04-.16.06-.33.22-.37,17.11-4.31,33.96-10.13,50.08-17.3.15-.07.34,0,.4.16h0c.07.16,0,.34-.16.4-16.15,7.18-33.03,13.01-50.18,17.33-.15.04-.3-.04-.36-.18Z"/>
        <path class="cls-7" d="m1665.15,773.04c-.52,0-.99-.3-1.2-.79l-.07-.19c-.18-.71.25-1.42.94-1.6,17.06-4.29,33.86-10.09,49.92-17.24.66-.29,1.43,0,1.72.66l.06.17h0c.17.64-.13,1.3-.71,1.56-16.2,7.21-33.13,13.05-50.34,17.39-.11.03-.21.04-.32.04Z"/>
      </g>
      <g>
        <path class="cls-7" d="m1681.24,746.36s0-.02-.01-.04c-.05-.16.05-.33.21-.38,11.39-3.33,22.87-6.92,34.12-10.66.16-.05.33.01.39.19.05.16-.03.33-.19.39-11.27,3.74-22.75,7.33-34.15,10.66-.15.04-.31-.03-.37-.17Z"/>
        <path class="cls-7" d="m1681.52,747.54c-.51,0-.99-.3-1.2-.79l-.05-.13c-.21-.71.19-1.44.88-1.64,11.38-3.33,22.85-6.91,34.09-10.65.34-.11.7-.09,1.01.07.31.16.54.43.65.76.11.32.08.68-.08.99-.16.31-.42.54-.75.65-11.26,3.74-22.76,7.33-34.18,10.67-.12.04-.24.05-.37.05Z"/>
      </g>
      <g>
        <path class="cls-7" d="m1694.02,725.47c-.05-.11-.03-.25.07-.34,1.63-1.62,3.21-3.35,4.73-5.03,2.1-2.31,4.27-4.7,6.63-6.83,4.86-4.39,9.78-6.83,14.61-7.26.17-.02.32.1.33.28.02.17-.11.32-.28.33-4.7.42-9.49,2.81-14.26,7.11-2.34,2.11-4.5,4.49-6.58,6.79-1.53,1.68-3.11,3.42-4.75,5.05-.12.12-.31.12-.43,0-.03-.03-.05-.06-.06-.09Z"/>
        <path class="cls-7" d="m1694.3,726.65h0c-.35,0-.68-.14-.92-.39-.12-.13-.21-.26-.27-.4-.21-.49-.1-1.07.28-1.45,1.61-1.59,3.17-3.32,4.69-4.98,2.14-2.35,4.31-4.75,6.7-6.9,5.02-4.53,10.14-7.06,15.19-7.51.35-.03.69.07.96.3.27.23.43.54.46.89.06.71-.47,1.34-1.18,1.41-4.48.4-9.08,2.71-13.68,6.85-2.31,2.08-4.44,4.44-6.51,6.72-1.56,1.72-3.14,3.46-4.79,5.09-.25.24-.57.38-.92.38Zm.49-.82s0,0,0,0c0,0,0,0,0,0Zm25.35-18.83h0,0Z"/>
      </g>
      <g>
        <path class="cls-7" d="m1682.54,729s-.02-.04-.02-.07c-1.28-7.14.5-14.44,2.23-21.5,1.86-7.6,3.78-15.45,1.76-22.95-.04-.16.05-.33.22-.37.16-.04.33.04.37.22,2.06,7.65.12,15.58-1.75,23.25-1.71,7-3.48,14.23-2.22,21.24.03.17-.08.32-.25.36-.14.03-.28-.05-.34-.18Z"/>
        <path class="cls-7" d="m1682.82,730.18c-.51,0-.98-.3-1.19-.79l-.05-.12-.04-.2c-1.31-7.32.5-14.72,2.25-21.88,1.83-7.47,3.71-15.2,1.76-22.45-.09-.34-.04-.69.13-.99.18-.3.46-.52.8-.61.34-.09.7-.04,1,.13.3.18.51.46.6.81,2.12,7.88.15,15.93-1.75,23.73-1.69,6.9-3.43,14.03-2.21,20.83.13.71-.34,1.39-1.05,1.52-.08.01-.16.02-.24.02Zm-.68-1.19s0,0,0,0c0,0,0,0,0,0Zm3.99-44.41s0,.01,0,.02c0,0,0-.01,0-.02Zm1.34-.36s0,0,0,0c0,0,0,0,0,0Z"/>
      </g>
      <g>
        <path class="cls-7" d="m1660.53,756.1c-.03-.06-.03-.13-.02-.2,2.3-8.94.91-18.4-.42-27.54-1.35-9.23-2.74-18.77-.4-27.84.04-.16.21-.26.37-.22.16.04.26.21.22.37-2.32,8.95-.93,18.43.41,27.6,1.35,9.21,2.74,18.73.41,27.79-.04.16-.21.26-.37.22-.1-.03-.17-.09-.2-.18Z"/>
        <path class="cls-7" d="m1660.81,757.28c-.1,0-.21-.01-.31-.04-.41-.11-.72-.38-.88-.75-.11-.26-.14-.56-.07-.84,2.25-8.74.88-18.1-.44-27.15-1.36-9.33-2.77-18.97-.38-28.23.08-.33.3-.62.6-.8.3-.18.66-.23.99-.14.33.08.61.29.79.59.18.3.23.66.14,1-2.27,8.76-.89,18.13.43,27.2,1.36,9.31,2.77,18.93.39,28.18-.16.59-.69.98-1.27.98Zm-.14-56.52s0,0,0,0c0,0,0,0,0,0Z"/>
      </g>
      <g>
        <path class="cls-7" d="m1628.96,784.71s0-.01,0-.02c-3.25-9.39-1.04-19.84,1.55-28.82.37-1.27.74-2.54,1.12-3.81,2.37-7.98,4.83-16.23,4.3-24.55-.01-.17.12-.31.29-.33.17-.01.31.12.33.29.53,8.43-1.94,16.74-4.33,24.77-.38,1.27-.76,2.54-1.12,3.81-2.56,8.89-4.75,19.22-1.56,28.45.06.16-.03.33-.19.39-.15.05-.32-.02-.38-.17Z"/>
        <path class="cls-7" d="m1629.25,785.89c-.5,0-.97-.29-1.19-.75l-.06-.15c-3.33-9.63-1.09-20.26,1.54-29.39.37-1.27.75-2.55,1.13-3.82,2.35-7.91,4.78-16.06,4.26-24.21-.04-.72.5-1.34,1.22-1.39.34-.03.68.09.94.32.26.23.42.56.45.9.55,8.61-1.95,17-4.37,25.12l-.03.11c-.37,1.23-.73,2.46-1.09,3.69-2.52,8.74-4.67,18.88-1.57,27.85.11.33.09.69-.06,1-.15.31-.42.55-.75.66-.14.05-.28.07-.42.07Zm-.66-1.08s0,0,0,0c0,0,0,0,0,0Z"/>
      </g>
      <g>
        <path class="cls-7" d="m1606.76,812.12c-3.49-8.1-1.91-17.5-.51-25.81,2.57-15.26,4.6-31.35-1.14-45.45-.06-.16.01-.34.17-.4.16-.06.3,0,.4.17,5.8,14.26,3.76,30.44,1.18,45.79-1.38,8.23-2.95,17.53.47,25.47.07.16.14.33.22.49.04.17,0,.33-.15.41-.15.07-.33,0-.41-.15-.08-.17-.15-.34-.22-.5Z"/>
        <path class="cls-7" d="m1607.27,813.8c-.49,0-.97-.28-1.19-.75-.08-.18-.16-.36-.24-.53-3.6-8.37-2-17.93-.58-26.37,2.55-15.12,4.56-31.05-1.08-44.91-.13-.32-.13-.68,0-1,.14-.32.39-.57.71-.7.61-.24,1.25-.01,1.62.56l.08.16c5.9,14.5,3.85,30.84,1.24,46.33-1.36,8.08-2.9,17.24.4,24.9.07.15.14.31.21.47l.07.21c.14.65-.15,1.26-.71,1.52-.18.08-.36.12-.54.12Z"/>
      </g>
      <g>
        <path class="cls-7" d="m1590.13,823.77s-.01-.04-.02-.06c-4.2-19.87-10.85-39.2-19.78-57.44-.07-.17-.01-.34.14-.41.15-.07.34-.01.41.14,8.95,18.28,15.62,37.66,19.83,57.58.03.17-.07.33-.24.36-.15.03-.29-.05-.35-.18Z"/>
        <path class="cls-7" d="m1590.41,824.96c-.51,0-.99-.3-1.2-.79l-.07-.22c-4.19-19.82-10.82-39.07-19.71-57.23-.31-.68-.04-1.44.6-1.75.65-.32,1.43-.05,1.75.6,8.98,18.35,15.68,37.8,19.91,57.81.07.34,0,.69-.19.99-.19.29-.48.49-.83.56-.09.02-.18.03-.27.03Z"/>
      </g>
      <g>
        <path class="cls-7" d="m1536.01,791.25c-.5-1.16-.92-2.35-1.25-3.59-.04-.16.05-.33.22-.37.16-.04.33.05.37.22,2.15,8.07,8.29,14.26,14.22,20.25,1.47,1.49,2.99,3.02,4.42,4.56,10.25,11,17.76,24.48,21.73,38.99.04.16-.05.33-.22.38-.16.04-.32-.06-.38-.22-3.94-14.41-11.41-27.81-21.59-38.74-1.42-1.53-2.94-3.06-4.41-4.54-5.09-5.14-10.33-10.42-13.13-16.93Z"/>
        <path class="cls-7" d="m1575.44,852.68c-.54,0-1.04-.34-1.24-.88-3.92-14.33-11.3-27.58-21.38-38.4-1.39-1.49-2.88-2.99-4.32-4.45l-.07-.07c-5.14-5.19-10.46-10.55-13.34-17.24h0c-.53-1.23-.97-2.49-1.3-3.73-.09-.33-.04-.68.13-.99.18-.3.46-.52.8-.61.33-.09.7-.04,1,.14.3.18.52.46.6.8,2.08,7.8,8.12,13.89,13.96,19.79l.09.1c1.45,1.46,2.94,2.97,4.35,4.48,10.36,11.11,17.95,24.74,21.97,39.41.19.69-.22,1.41-.91,1.6-.12.03-.23.05-.35.05Zm-41.05-64.93s0,.01,0,.02c0,0,0-.01,0-.02Zm1.34-.36s0,0,0,0c0,0,0,0,0,0Z"/>
      </g>
    </g>
  </g>
  <g class="cls-13">
    <path class="cls-1" d="m-39.6,827.2c-1.22-30.15,4.25-59.59-.99-90.43-5.87-39.54-12.42-79.75-11.59-119.94.82-39.51,11.04-83.68,35.27-115.07,10.77-14.69,23.55-28.71,42.33-33.32,18.1-3.95,36.83,2.82,40.1,22.26,11.13,66.36-78.22,134.33-25.54,195.48,36.67,42.34,57.89,99.35,20.86,148.1"/>
    <path class="cls-3" d="m39.98,686.18c-52.68-61.16,36.67-129.13,25.54-195.48-1.69-10.01-7.48-16.66-15.17-20.21-.11,1.35-.7,2.73-1.91,3.97-11.17,11.4-20.09,25.04-27.57,39.46.06.71.02,1.46-.18,2.24-6.43,24.57-22.56,45.61-27.79,70.49-2.8,13.34-3.12,27.74-3.38,41.34-.04,2.11-.06,4.22-.05,6.32,1.52,1.07,2.66,2.76,2.88,5.09,1.84,19.38,6.59,38.33,12.53,56.83,5.57,17.36,12.83,34.36,16.11,52.37,5.11,28.04,2.62,55.62-4.53,82.55l44.38,3.13c37.03-48.75,15.82-105.76-20.86-148.1Z"/>
    <path class="cls-7" d="m33.21,490.19c-11.78,20.61-24.22,40.96-33.25,62.98-9.31,22.72-13.83,46.94-12.92,71.52.9,24.37,6.94,48.12,14.69,71.12,4.02,11.93,8.88,23.59,12.75,35.57,3.71,11.48,6.06,23.35,7.08,35.36,1.04,12.21,1.45,24.91-.75,37.01-2.26,12.44-6.55,24.38-9.75,36.59-.82,3.12-1.56,6.25-2.2,9.41-.59,2.9,3.86,4.14,4.45,1.23,2.52-12.46,6.82-24.45,9.92-36.76,1.51-5.99,2.71-12.07,3.27-18.23.57-6.21.47-12.52.28-18.75-.38-12.03-1.81-24.06-4.65-35.77-2.93-12.07-7.67-23.54-11.86-35.2-8.2-22.82-15.48-46.25-17.86-70.49-2.4-24.43.31-49.03,8.49-72.19,7.92-22.41,20.09-42.98,31.93-63.48,1.46-2.53,2.92-5.06,4.37-7.6,1.48-2.58-2.51-4.91-3.99-2.33h0Z"/>
    <path class="cls-7" d="m-12.79,673.66c9.47-.03,18.83-1.46,28.07-3.43,2.9-.62,1.67-5.07-1.23-4.45-8.86,1.89-17.77,3.24-26.85,3.27-2.97,0-2.98,4.62,0,4.62h0Z"/>
    <path class="cls-7" d="m-21.44,615.97c8.83,1.97,17.9.69,26.79,2.01,1.23.18,2.48-.31,2.84-1.61.3-1.09-.37-2.66-1.61-2.84-8.88-1.31-18.01-.05-26.79-2.01-2.89-.65-4.13,3.8-1.23,4.45h0Z"/>
    <path class="cls-7" d="m-17.98,566.85c9.31,6.3,21.16,5.61,31.36,9.61,1.17.46,2.52-.5,2.84-1.61.37-1.3-.46-2.39-1.61-2.84-9.79-3.84-21.35-3.11-30.26-9.14-2.47-1.67-4.78,2.33-2.33,3.99h0Z"/>
    <path class="cls-7" d="m5,517.59c8.3,6.83,18.69,9.86,27.93,15.1,2.59,1.47,4.92-2.52,2.33-3.99-8.84-5.01-19.06-7.85-26.99-14.38-.96-.79-2.32-.94-3.26,0-.82.82-.97,2.47,0,3.26h0Z"/>
  </g>
  <g>
    <path class="cls-6" d="m125.18,686.75c.67-24.11,11.39-53.58,26.79-72.34,7.37-8.71,26.12-22.1,38.18-17.41,17.41,7.37,10.05,26.12,3.35,37.51-15.41,28.13-36.17,49.56-68.32,53.58"/>
    <path class="cls-6" d="m77.63,710.86c-2.01-16.07-20.76-63.63,4.02-71,30.81-10.05,10.72,57.6,2.68,67.65-2.01,2.01-4.02,3.35-6.03,4.02"/>
    <path class="cls-6" d="m100.4,737.66c11.39-17.41,41.53-31.48,62.29-31.48s26.12,12.73,11.39,26.79c-10.72,10.72-26.12,12.06-40.19,12.06-12.73-.67-22.77-2.68-33.49-6.7"/>
    <path class="cls-6" d="m14.67,767.13c-6.7-14.07-34.16-70.33-4.02-76.35,33.49-6.7,16.74,56.93,10.05,70.33-2.01,2.68-3.35,6.03-5.36,8.04"/>
    <path class="cls-6" d="m34.09,796.6c8.04-20.09,34.16-31.48,53.58-20.09,14.73,8.71,18.08,28.13-1.34,33.49-16.07,4.02-24.11-12.73-39.52-14.06-3.35,0-8.71.67-10.72.67"/>
    <path class="cls-11" d="m-39.29,833.06c7.07-6.28,15.26-11.13,23.4-15.87,8.33-4.85,16.61-9.68,24.33-15.48,16.28-12.23,30.23-27.1,44.84-41.18,15.87-15.3,31.77-30.56,47.62-45.88,7.89-7.63,15.74-15.29,23.5-23.05,7.5-7.49,15.05-14.97,22.08-22.91,13.34-15.07,25.01-31.57,35.31-48.86,1.24-2.08,2.46-4.17,3.66-6.27,1.48-2.58-2.51-4.91-3.99-2.33-9.89,17.29-21.03,33.9-33.88,49.13-6.68,7.92-13.9,15.31-21.18,22.67-7.71,7.79-15.52,15.49-23.38,23.13-15.81,15.37-31.82,30.53-47.64,45.89-14.61,14.18-28.68,29.15-44.54,41.97-7.5,6.06-15.52,11.28-23.83,16.13-8.23,4.81-16.62,9.45-24.22,15.25-1.83,1.4-3.62,2.85-5.34,4.38-2.23,1.98,1.05,5.23,3.26,3.26h0Z"/>
    <path class="cls-11" d="m82.69,658.62c.47,22.29-5.03,44.05-11.29,65.27-1.76,5.95-3.58,11.89-5.37,17.84-.86,2.85,3.6,4.07,4.45,1.23,6.43-21.43,13.36-42.86,15.9-65.18.73-6.36,1.06-12.76.92-19.16-.06-2.97-4.68-2.98-4.62,0h0Z"/>
    <path class="cls-11" d="m168.22,714.23c-23.78,12.35-50.28,17.9-76.5,22.3-7.35,1.24-14.72,2.39-22.08,3.59-2.92.48-1.68,4.93,1.23,4.45,26.46-4.32,53.26-8.05,78.6-17.18,7.21-2.6,14.27-5.64,21.08-9.17,2.64-1.37.31-5.35-2.33-3.99h0Z"/>
    <path class="cls-11" d="m15.71,709.53c-1.02,24.37,1.29,49.68-6.82,73.13-2.31,6.69-5.55,13.01-9.61,18.8-1.71,2.44,2.29,4.75,3.99,2.33,14.97-21.32,16.34-47.65,16.64-72.82.09-7.15.12-14.3.42-21.45.12-2.97-4.49-2.96-4.62,0h0Z"/>
    <path class="cls-11" d="m86.16,793.26c-11.09-7.75-24.83-6.88-37.27-3.31-13.58,3.9-26.16,10.53-39.4,15.36-6.27,2.29-12.86,4.35-19.6,4.38-2.97.01-2.98,4.63,0,4.62,12.72-.06,25-6.02,36.47-10.9,12.13-5.16,25.02-11.15,38.43-11.56,6.86-.21,13.39,1.45,19.05,5.4,2.44,1.7,4.75-2.3,2.33-3.99h0Z"/>
    <path class="cls-11" d="m160.46,619.16c-1.4,8.66-.75,17.39.67,26.01.15.9,1.31,1.8,2.23,1.69,6.77-.76,13.55-1.96,20.04-4.1,2.81-.93,1.61-5.38-1.23-4.45-6.08,2-12.45,3.22-18.81,3.94l2.23,1.69c-1.27-7.73-1.93-15.78-.67-23.55.2-1.23-.32-2.48-1.61-2.84-1.1-.3-2.64.37-2.84,1.61h0Z"/>
    <path class="cls-11" d="m147.07,633.23c-2.11,10.07-2.14,20.53-1.42,30.75.1,1.36,1.42,2.79,2.92,2.23,5.43-2.03,11.02-3.92,16.8-4.61,1.24-.15,2.31-.96,2.31-2.31,0-1.13-1.06-2.45-2.31-2.31-6.23.74-12.17,2.58-18.03,4.77l2.92,2.23c-.69-9.8-.77-19.87,1.26-29.53.61-2.9-3.84-4.14-4.45-1.23h0Z"/>
    <path class="cls-11" d="m74.97,669.16c.5,1.16,1.03,2.32,1.56,3.47.25.54.5,1.09.75,1.64.21.47.54,1.22.64,1.46.48,1.16.92,2.33,1.28,3.53.18.58.34,1.17.47,1.76.08.34.15.68.22,1.03.03.17.06.35.09.52.04.29.05.35.03.17.12.95.48,1.71,1.42,2.11.79.33,1.94.23,2.52-.48,1.65-2,3.12-4.13,4.65-6.21.17-.23.34-.46.52-.7.07-.1.15-.2.22-.3-.11.14-.08.1.1-.12.36-.45.73-.9,1.12-1.34.86-.98,1.78-1.88,2.77-2.72.93-.78.87-2.47,0-3.26-.99-.9-2.28-.83-3.26,0-1.98,1.67-3.61,3.64-5.15,5.71-1.43,1.92-2.81,3.96-4.22,5.68l3.94,1.63c-.38-2.86-1.16-5.56-2.26-8.23s-2.31-5.1-3.41-7.67c-.48-1.11-2.2-1.45-3.16-.83-1.16.74-1.34,1.97-.83,3.16h0Z"/>
    <path class="cls-11" d="m7.32,724.75c2.68,4.01,5.85,7.74,8.04,12.06.83,1.64,3.09,1.35,3.99,0,2.92-4.42,4.8-9.55,6.26-14.62.33-1.16-.41-2.56-1.61-2.84s-2.48.37-2.84,1.61c-1.41,4.91-2.99,9.26-5.79,13.51h3.99c-2.19-4.32-5.35-8.05-8.04-12.06-.67-1-2.07-1.53-3.16-.83-1,.64-1.55,2.08-.83,3.16h0Z"/>
    <path class="cls-11" d="m130.56,719.08c-3.37,4.69-7.42,8.88-10.05,14.07-.84,1.66.22,3.29,1.99,3.47,6.44.68,12.49,3.32,18.81,4.61,1.22.25,2.49-.35,2.84-1.61.31-1.14-.38-2.59-1.61-2.84-6.75-1.38-13.15-4.04-20.04-4.77l1.99,3.47c2.63-5.19,6.68-9.38,10.05-14.07.73-1.01.18-2.57-.83-3.16-1.16-.68-2.43-.19-3.16.83h0Z"/>
    <path class="cls-11" d="m151.99,713.05c-2.01,4.6-5.49,8.4-6.93,13.28-.35,1.18.42,2.54,1.61,2.84,5.41,1.37,10.66,3.32,16.07,4.69,1.21.31,2.5-.39,2.84-1.61s-.4-2.53-1.61-2.84c-5.41-1.37-10.66-3.32-16.07-4.69.54.95,1.07,1.89,1.61,2.84,1.29-4.36,4.62-7.96,6.46-12.17.5-1.14.34-2.48-.83-3.16-.98-.57-2.66-.32-3.16.83h0Z"/>
    <path class="cls-11" d="m68.63,778.22c-1.81,1.77-4.12,2.94-6.39,4.27-2.42,1.42-4.59,3.13-6.03,5.58-.64,1.09-.23,2.51.83,3.16,3.09,1.89,5.36,4.82,7.21,7.88,1.54,2.54,5.53.22,3.99-2.33-2.26-3.74-5.1-7.23-8.87-9.54.28,1.05.55,2.11.83,3.16,1.17-1.98,2.88-3.08,5.03-4.3,2.36-1.35,4.71-2.69,6.67-4.61,2.12-2.08-1.14-5.35-3.26-3.26h0Z"/>
  </g>
</svg>