<?xml version="1.0" encoding="utf-8"?>
<!-- Generator: Adobe Illustrator 28.0.0, SVG Export Plug-In . SVG Version: 6.00 Build 0)  -->
<svg version="1.1" id="Background_2" xmlns="http://www.w3.org/2000/svg" xmlns:xlink="http://www.w3.org/1999/xlink" x="0px"
	 y="0px" viewBox="0 0 1700 800" style="enable-background:new 0 0 1700 800;" xml:space="preserve">
<style type="text/css">
	.st0{clip-path:url(#SVGID_00000101806116681804954140000002963056855566418572_);}
	.st1{fill:#FEEEE0;}
</style>
<g>
	<defs>
		<rect id="SVGID_1_" x="0.1" width="1700" height="800"/>
	</defs>
	<clipPath id="SVGID_00000085226318743846164450000013022303371737078718_">
		<use xlink:href="#SVGID_1_"  style="overflow:visible;"/>
	</clipPath>
	<g style="clip-path:url(#SVGID_00000085226318743846164450000013022303371737078718_);">
		<path class="st1" d="M1780.1,590.3c-14.5-56.3-40.1-94.6-61.8-118.7c8.1-43-22.3-98.4-26.1-103.2c-4.4-5.6-10.9-8.9-18-8.9
			c-6,0-11.7,2.4-15.8,6.5c-7.1-15.8-14.2-27.4-16.4-30.2c-6.2-7.9-14.1-9.1-18.2-9.1c-7.4,0-14.4,3.7-18.6,9.8
			c-1.4,2-2.4,4.2-3.1,6.6c-0.5,1.6-0.9,3.3-1.2,5.1c-6.8-6.6-25.5-23.8-39.1-23.8c-10.2,0-19.2,6.9-21.8,16.8c-1.1,4-1,8,0,11.8
			c0.6,2.4,1.2,4.8,1.9,7.1c-8.1-1.9-16.9-3-26.3-3c-0.2,0-0.4,0-0.6,0c-4.8,0-9.6,1.6-13.5,4.5c-7.8,5.8-11,16-7.9,25.2
			c1.3,3.9,3.7,7.3,6.7,9.9c0.3,0.4,0.8,0.9,1.2,1.4c6.6,7.4,19.6,21.9,36.7,33c-0.4,0.1-0.9,0.2-1.3,0.4c-2.7,0.8-5.2,2-7.4,3.6
			c-10.6-2.7-19.6-4.1-26.5-4.8c-1.6-0.2-3.1-0.2-4.7-0.2c-20.5,0-33,14.5-36,27.9c-0.2,0.8-0.3,1.5-0.4,2.3
			c-1.4,12.8,0.5,35.3,33.1,82.9c7.5,30.5,18.7,71.6,33.8,117.5c-39.2-45.3-69.7-73.3-71.5-75c-4.3-3.9-9.8-5.9-15.2-5.9
			c-4.6,0-9.2,1.4-13.1,4.2c-8.7,6.2-11.8,17.6-7.5,27.4c0.8,1.9,13.2,29.8,35.6,70.4c-3.3-1.8-9.1-4.2-16.4-4.2
			c-1.7,0-3.4,0.1-5,0.4c-29.9-19.7-49.6-30.5-50.5-31c-3.4-1.9-7.2-2.8-10.9-2.8c-6.4,0-12.7,2.7-17.1,7.8c-7,8-7.4,19.9-0.9,28.4
			c0.8,1,18.7,24.7,49.4,58.3c0.5,6.4,1.5,12.5,2.6,17.8c-24.2-8.8-44.6-15.3-59.2-19.6c-1.3-3.1-3-6.1-5.2-8.8
			c-6.7-8.4-16.7-13.2-27.4-13.2c-6.1,0-12,1.6-17.2,4.6c-3-4.4-7-8.3-11.7-11.8c-10.3-7.5-22.2-11.5-34.5-11.5
			c-7.7,0-15.2,1.6-22.3,4.6c-0.3,0.1-0.6,0.2-0.9,0.4c-0.4-3-0.7-5.9-0.8-7.5c-4.5-42.2-18.5-67.9-41.8-76.4
			c-4.6-1.6-9.4-2.5-14.3-2.5c-15.3,0-31.1,8.1-43.4,22.2c-12.2,13.9-21.4,33.8-26,55.9c-0.9,4.3-1.6,8.5-2.2,12.6
			c-1.6,1-3.3,2.2-5.2,3.5c-0.5-12.5-4-25.6-10.4-39c-9.1-18.9-22.4-34.9-31.9-45c-22.1-23.5-29.2-23.5-34.8-23.5
			c-11.8,0-21.8,9.2-22.6,21c-2.9,40,2,69.4,10,90.8c-2.2-0.7-4.4-1.3-6.7-1.9c-2-0.5-4-0.8-6-0.8c-6.8,0-13.3,3-17.6,8.5
			c-2.6,3.3-4.2,7.2-4.8,11.2c-2.4-3.6-3.9-5.6-4.1-5.9c-4.2-5.8-10.8-9.2-18-9.3c-0.1,0-0.2,0-0.3,0c-7,0-13.6,3.3-17.9,8.8
			c-1.1,1.4-8.6,11.6-14.5,30c-1,0.3-2,0.6-3,1c-1-0.4-2.1-0.7-3.3-1c-6.5-18.4-14.8-28.6-16-30c-4.7-5.6-12-8.8-19.7-8.8
			c-0.1,0-0.2,0-0.3,0c-7.8,0.1-15.2,3.6-19.7,9.3c-0.2,0.3-1.8,2.3-4.5,5.9c-0.6-4-2.3-7.9-5.2-11.2c-4.8-5.4-12-8.5-19.4-8.5
			c-2.2,0-4.4,0.3-6.5,0.8c-2.5,0.6-5,1.3-7.4,1.9c8.8-21.4,14.2-50.8,11-90.8c-1-11.8-11.8-21-24.8-21c-6.2,0-14,0-38.2,23.5
			c-10.5,10.1-25.1,26.2-35.1,45c-7.1,13.4-10.9,26.5-11.5,39c-2.1-1.3-4-2.5-5.7-3.5c-0.7-4.1-1.4-8.3-2.4-12.6
			c-5-22.1-15.2-42-28.6-55.9c-13.5-14.1-30.9-22.2-47.7-22.2c-5.4,0-10.7,0.8-15.7,2.5c-25.5,8.5-40.9,34.1-45.9,76.4
			c-0.2,1.6-0.5,4.5-0.9,7.5c-0.3-0.1-0.6-0.2-1-0.4c-7.8-3-16-4.6-24.5-4.6c-13.5,0-26.6,4-37.9,11.5c-5.2,3.5-9.5,7.4-12.8,11.8
			c-5.8-3-12.3-4.6-18.9-4.6c-11.8,0-22.7,4.8-30.1,13.2c-2.4,2.7-4.3,5.7-5.7,8.8c-16,4.3-38.4,10.8-65,19.6
			c1.2-5.3,2.3-11.4,2.9-17.8c33.7-33.7,53.4-57.3,54.2-58.3c7-8.5,6.6-20.3-1-28.4c-4.8-5.1-11.8-7.8-18.8-7.8
			c-4.1,0-8.2,0.9-11.9,2.8c-1,0.5-22.6,11.4-55.4,31c-1.8-0.3-3.6-0.4-5.5-0.4c-8,0-14.3,2.4-18,4.2c24.7-40.5,38.2-68.5,39.1-70.4
			c4.7-9.8,1.2-21.2-8.3-27.4c-4.3-2.8-9.4-4.2-14.4-4.2c-6,0-12,2-16.7,5.9c-2.1,1.7-35.5,29.7-78.6,75c16.7-46,28.9-87,37.2-117.5
			c35.8-47.6,37.9-70,36.4-82.9c-0.1-0.8-0.2-1.6-0.4-2.3c-3.3-13.4-17-27.9-39.5-27.9c-1.7,0-3.4,0.1-5.1,0.2
			c-7.6,0.7-17.5,2.1-29.1,4.8c-2.4-1.6-5.1-2.8-8.1-3.6c-0.5-0.1-1-0.2-1.5-0.4c18.8-11,33.1-25.5,40.3-33c0.5-0.5,1-1,1.4-1.4
			c3.3-2.6,5.9-6,7.3-9.9c3.4-9.2-0.1-19.4-8.7-25.2c-4.3-2.9-9.5-4.5-14.8-4.5c-0.2,0-0.4,0-0.7,0c-10.3,0-19.9,1.1-28.8,3
			c0.7-2.4,1.4-4.7,2-7.1c1.1-3.8,1.2-7.8,0-11.8c-2.9-9.9-12.7-16.8-24-16.8c-14.9,0-35.5,17.1-42.9,23.8c-0.4-1.7-0.8-3.4-1.3-5.1
			c-0.7-2.4-1.9-4.6-3.4-6.6c-4.6-6.1-12.3-9.8-20.5-9.8c-4.5,0-13.2,1.2-20,9.1c-2.4,2.8-10.3,14.4-18.1,30.2
			c-4.6-4.1-10.8-6.5-17.4-6.5c-7.7,0-15,3.2-19.8,8.9c-4.1,4.8-37.6,60.2-28.6,103.2C6.1,495.6-22.1,534-38,590.3
			c-20.6,72.8-17.4,140.3-13.7,174.1c3,27.6,28,48.5,58,48.5l0,0c10.3,0,20.4-2.6,29.3-7.5c1.2-0.7,2.4-1.4,3.6-2.1
			c2.5-1.5,4.9-3.3,7.3-5.3c3.9,7.5,8.7,13.6,14.5,18.3c-17.5,16.9-27.3,37.3-28.5,58.6c-6.3,11.1-12.1,20.6-17.4,28.4
			c-3.6,5.3-4.7,11.8-2.9,17.9c1.8,6.1,6.4,11.2,12.5,14.1c2.2,1,4.4,2.1,6.7,3c3.5,1.5,7.2,2.3,10.8,2.3c5.1,0,10.2-1.5,14.4-4.2
			c3.6,6.6,10.6,11.4,19.1,12.4c3.2,1.8,6.2,3.3,8.8,4.5c9.3,15.4,27.3,33.8,54.9,40.2c-11,5.1-22.6,10.2-34.7,15.1
			c-12.4,5-18.1,18.1-12.8,29.5l1.7,3.7c2.6,5.6,7.5,9.9,13.7,12.2c2.9,1.1,6,1.6,9.1,1.6c3.4,0,6.8-0.7,10-1.9
			c46.7-18.8,86.5-40.5,111.7-55.4c15-8.9,28.8-19.3,41-31c4.6,0.1,9.9,0.2,15.7,0.2c26.1,0,51.2-1.3,68.7-7.9
			c-5.8,4-11.8,7.7-17.8,11.1c-11.4,6.5-15,20.2-8,30.8l4,6c3.4,5.2,9,8.9,15.5,10.3c1.9,0.4,3.8,0.6,5.7,0.6
			c4.6,0,9.2-1.2,13.2-3.5c12.2-7,24.2-14.9,35.7-23.7c9.9,19.3,22.5,38.7,40.2,54.9c26.6,24.3,63.6,38.4,101.4,38.7
			c0.6,0,1.3,0,2.1,0c31.6,0,64.8-8.8,101.4-26.9c20.3-9.9,48.1-26.6,61.8-58.7c0.3,1,0.6,1.9,0.9,2.9c1.8,5.8,6.2,10.7,12,13.6
			c3.7,1.8,7.8,2.7,11.8,2.7c2.4,0,4.8-0.3,7.2-1l7.2-2c13-3.6,20.4-16,16.7-27.9c-1.9-6-3.5-13.1-4.8-21.1
			c17-1.3,33.9-8.2,50.4-20.4h8.9c0.9,3.7,2.7,7.1,5.5,10c4.3,4.6,10.5,7.4,17.1,7.8c0.5,0,2.4,0.1,5.4,0.1c6.8,0,17.7-0.5,29.9-3.1
			c0.8,1,1.5,2.1,2.4,3.1v32.8c9.2-3.8,17.2-8,24.2-12.6c7.7,4.6,16.6,8.8,26.6,12.6v-35.3c10.2,2.1,19.1,2.6,24.9,2.6
			c2.7,0,4.5-0.1,5-0.1c6-0.4,11.6-3.2,15.6-7.8c2.5-2.9,4.2-6.3,5-10h8.1c15,12.3,30.3,19.1,45.8,20.4c-1.2,8-2.6,15.1-4.3,21.1
			c-3.4,11.9,3.3,24.3,15.2,27.9l6.6,2c2.1,0.6,4.3,1,6.5,1c3.7,0,7.4-0.9,10.8-2.7c5.3-2.9,9.2-7.8,10.9-13.6
			c0.3-0.9,0.5-1.9,0.8-2.9c12.5,32,37.7,48.7,56.2,58.7c33.3,18.1,63.5,26.9,92.3,26.9c0.7,0,1.3,0,1.9,0
			c34.4-0.4,68.1-14.5,92.3-38.7c16.1-16.2,27.6-35.7,36.6-54.9c10.5,8.8,21.4,16.7,32.5,23.7c3.6,2.3,7.8,3.5,12,3.5
			c1.7,0,3.5-0.2,5.2-0.6c5.9-1.4,11-5.1,14.1-10.3l3.6-6c6.3-10.5,3.1-24.2-7.3-30.8c-5.5-3.4-10.8-7.1-16.2-11.1
			c15.9,6.6,38.8,7.9,62.6,7.9c5.3,0,10.1-0.1,14.3-0.2c11.2,11.7,23.7,22.1,37.4,31c22.9,14.9,59.2,36.6,101.7,55.4
			c2.9,1.3,6,1.9,9.1,1.9c2.8,0,5.6-0.5,8.3-1.6c5.6-2.2,10.1-6.6,12.5-12.2l1.6-3.7c4.8-11.3-0.4-24.5-11.6-29.5
			c-11-4.9-21.6-10-31.6-15.1c25.1-6.4,41.6-24.8,50-40.2c2.4-1.2,5.2-2.7,8.1-4.5c7.7-1,14.1-5.8,17.4-12.4
			c3.8,2.7,8.4,4.2,13.1,4.2c3.3,0,6.7-0.7,9.9-2.3c2-1,4.1-2,6.1-3c5.6-2.9,9.7-8,11.4-14.1c1.7-6.1,0.7-12.6-2.6-17.9
			c-4.8-7.7-10.1-17.2-15.9-28.4c-1-21.3-10-41.7-25.9-58.6c5.2-4.7,9.7-10.8,13.2-18.3c2.2,2,4.4,3.8,6.6,5.3
			c1.1,0.8,2.2,1.5,3.3,2.1c8.1,4.9,17.3,7.5,26.7,7.5l0,0c27.3,0,50-20.8,52.8-48.5C1795.9,730.6,1798.8,663.1,1780.1,590.3
			L1780.1,590.3z"/>
	</g>
</g>
</svg>
