<?xml version="1.0" encoding="UTF-8"?>
<svg id="Background_1" data-name="Background 1" xmlns="http://www.w3.org/2000/svg" xmlns:xlink="http://www.w3.org/1999/xlink" viewBox="0 0 1700 800">
  <defs>
    <style>
      .cls-1 {
        fill: #f0d7bf;
      }

      .cls-1, .cls-2 {
        stroke-width: 0px;
      }

      .cls-2 {
        fill: none;
      }

      .cls-3 {
        clip-path: url(#clippath);
      }
    </style>
    <clipPath id="clippath">
      <rect class="cls-2" x=".1" width="1700" height="800"/>
    </clipPath>
  </defs>
  <g class="cls-3">
    <g>
      <path class="cls-1" d="m1423.81,667.46c9.96,50.58,23.31,94.28,31.97,120.09,1.45,4.31,7.85,3.05,7.55-1.49-1.78-27.22-6.02-72.81-16-123.43-9.96-50.58-23.31-94.28-31.97-120.09-1.45-4.31-7.85-3.05-7.55,1.49,1.78,27.22,6.02,72.81,16,123.43Z"/>
      <path class="cls-1" d="m1422.03,668.06c18.51,48.09,30.52,92.52,36.92,119.02,1.06,4.41-5.01,6.75-7.18,2.77-12.84-23.51-33.28-63.6-51.65-111.33-18.51-48.09-30.52-92.52-36.92-119.02-1.06-4.41,5.01-6.75,7.18-2.77,12.84,23.51,33.28,63.6,51.65,111.33Z"/>
      <path class="cls-1" d="m1380.73,715.81c25.54,35.73,51.84,64.43,68.02,80.97,3.1,3.17,8.24-.5,6.24-4.46-10.49-20.76-29.28-55.15-54.88-90.97-25.54-35.73-51.84-64.43-68.02-80.97-3.1-3.17-8.24.5-6.24,4.46,10.49,20.76,29.28,55.16,54.88,90.97Z"/>
      <path class="cls-1" d="m1376.48,719.85c33.16,28.75,59.34,57.76,74.28,75.43,2.86,3.38-1.28,8.14-5.03,5.79-19.51-12.21-51.7-33.85-84.78-62.53-33.16-28.75-59.34-57.76-74.28-75.43-2.86-3.38,1.28-8.14,5.03-5.79,19.51,12.21,51.7,33.85,84.78,62.53Z"/>
      <path class="cls-1" d="m1346.09,767.57c39.17,19.29,75.75,31.97,97.62,38.75,4.22,1.31,7-4.33,3.39-6.88-18.8-13.25-51.33-34.62-90.58-53.95-39.17-19.29-75.75-31.97-97.62-38.75-4.22-1.31-7,4.33-3.39,6.88,18.8,13.25,51.33,34.62,90.58,53.95Z"/>
      <path class="cls-1" d="m1324.88,767.12c49.3,11.52,91.7,26.36,116.47,35.83,4.21,1.61,2.74,7.91-1.75,7.49-26.35-2.47-70.81-7.92-120.07-19.43-49.3-11.52-91.7-26.36-116.47-35.83-4.21-1.61-2.74-7.91,1.75-7.49,26.35,2.47,70.81,7.92,120.07,19.43Z"/>
      <path class="cls-1" d="m1303.9,815.64c55.37,3.09,104.43,1.01,133.35-.98,4.55-.31,4.92-6.87.43-7.69-28.54-5.19-77.09-12.72-132.47-15.8-55.37-3.09-104.43-1.01-133.35.98-4.55.31-4.92,6.87-.43,7.69,28.54,5.19,77.09,12.72,132.47,15.8Z"/>
      <g>
        <path class="cls-1" d="m875.95,705.03s0,0,0,0c0,0,0,0,0,0Z"/>
        <path class="cls-1" d="m970.07,801.2c3-.63,9.16-1.12,21.81.18,25.94,2.86,36.81,5.23,41.29-27.67,3.92-32.84,3.38-33,3.54-32.95.13.36-38.55,31.58-55.84,28.93-3.44-.53-4.24-5.11-1.2-6.8,1.83-1.02,4.62-1.99,8.88-2.71,14.14-2.4,47.18-15.8,44.86-35.06-1.24-10.55-4.58-22.37-7.34-30.87-1.08-3.32-5.74-3.38-6.9-.1-3.04,8.61-9.34,20.25-22.13,28.48-22.62,14.79-22.74,17.06-24.8,13.46-1.98-3.43,31.48-29.92,31.42-30.04-.04.16,21.01-18.76,8.18-39.74-12.9-20.41-15.91-24.04-15.84-24.15.59.36-7.89,56.11-23.49,57.95-.03-.04-4.07.65,5.47-14.72,9.59-15.14,22.15-40.84,1.38-53.05-6.47-3.7-11.31-9.07-14.08-12.67-1.38-1.78-4.02-1.93-5.55-.28-2.57,2.77-6.88,6.61-12.99,9.43-19.98,9.61-10.95,33.51-4.78,50.84,6.23,17.37,2.25,15.45,2.3,15.42-9.82-5.69-12.76-36.62-13.85-51.6-.23-3.14-4.07-4.53-6.25-2.26-2.6,2.7-6.33,6.54-11.62,11.93-13.29,13.41-.56,33.1,1.13,35.89.11.18.23.33.37.48,2.3,2.55,24.24,35.32,21.09,37.97-3.08,2.44-2.1-.38-18.97-21.8-9.55-11.69-13.13-23.3-14.43-31.25-.54-3.27-4.82-4.18-6.63-1.4-3.93,6-8.97,14.15-12.44,21.46-6.3,13.24,18.54,36.41,30.13,45.67.98.73,1.85,1.42,2.62,2.08,3.58,3.05-.89,8.53-4.61,5.64-10.8-8.38-23.42-26.57-30.11-36.35-1.77-2.59-5.78-1.87-6.54,1.18-.93,3.73-2.34,9.24-4.52,17.39-7,24.66,1.86,27.73,24.85,39.88,11.07,5.98,16.02,10,18.23,12.22,1.03,1.06.28,3.07-1.15,3.1-20.36-.06-35.64-16.12-42.9-25.34-1.99-2.53-6.07-1.45-6.48,1.75-.72,5.54-.73,10.88-.75,10.89-1.4,52.89,18.86,75.45,43.26,76.14,24.4.58,30.44-44.14,30.03-44.24.31-2.42,3.68-1.67,3.68-1.67.03-.1.05-.2.08-.29.51.27,2.96,1.74,2.11,3.74.21.54-18.92,38.82-1.78,57.64,16.9,18.85,49.64,21.97,80.48-36.82.01.02,3.72-7.21,6.13-14.71.96-2.99-2.07-5.73-4.94-4.45-11.08,4.95-33.47,11.54-50.94-3.13-1.19-.97-.85-3.32.56-3.63Z"/>
      </g>
      <g>
        <path class="cls-1" d="m768.67,803.77c24.05-42.87,22.13-73.66,17.17-90.9-2.16-7.51-12.29-8.79-16.32-2.1-11.44,19-29.78,54.49-31.03,88.31-.19,5.07,3.92,9.26,9,9.26h13.34c3.24,0,6.25-1.75,7.84-4.57Z"/>
        <path class="cls-1" d="m853.69,730.39c-5.69,17.41-20.71,52.19-55.08,76.93-.93.67-2.05,1.02-3.19,1.02h-57.59c-4.75,0-7.24-5.63-4.05-9.14,14.25-15.63,44.62-46.81,68.97-57.32,19.28-8.32,34.43-14.53,43.7-18.26,4.31-1.73,8.67,2.35,7.23,6.77Z"/>
        <path class="cls-1" d="m741.39,726.21c1.24-.81,26.5,60.27-8.37,82.13h-33.01s-1.86-53.64,41.38-82.13Z"/>
      </g>
      <path class="cls-1" d="m241.69,640.63c8.62,13.23,22.2,50.11,23.14,50.52,1.71-10.05,3.99-19.58,6.53-28.21-2.02-1.98-4.01-4.01-5.97-6.08-17.19-16.46-18.02-57.54-17.38-57.27,11.73,10.43,20.24,41.74,25.86,55.3,1.85-5.61,3.77-10.73,5.61-15.27-18.67-34.73-.4-61.98-.85-61.13,5.86,16.52,6.21,36.15,6.39,48.49,1.34-2.84,2.52-5.18,3.43-6.96.08-8.74,4.31-27.43,24.41-40.1-.78-.06-2.75,35.14-22.45,44.88-1.49,3.05-3.43,7.16-5.55,12.18-.02.42-.03.67-.03.67h0c12.52-3.88,25.04-7.72,37.56-11.51-.04,0-2.8,9.35-16.62,17.49-9.88,5.89-18.69,1.38-22.77-2.12-2.26,5.68-4.64,12.29-6.88,19.65.11.3.17.48.17.48-.01,0-.02.02-.03.02,3.65-2.29,10.01-5.24,18.49-6.19,13.85-1.55,19.56,3.72,19.59,3.73-.05-.15-10.87,12.11-23.18,12.7-8.33.28-13.86-3.27-16.52-5.65-2.12,7.58-4.04,15.85-5.53,24.52,3.17-1.91,8.23-4.47,16.06-7.5,16.54-6.24,26.83.5,26.88.42-.08-.26-16.25,17.44-31.64,16.61-6.24-.46-10.04-1.62-12.37-2.77-4.08,26.99-2.84,57.35,3.2,78.7-1.5-.19-2.99-.39-4.49-.61-5.99-21.87-7-52.78-2.62-80.16-2.01-1.36-6.06-4.28-13.51-11.58-15.45-14.53-18.11-51.65-17.6-51.44,5.78,2.42,8.65,8.19,8.67,8.19Z"/>
      <g>
        <path class="cls-1" d="m355.14,696.94c.3,50.29-4.14,94.42-7.32,119.38-.48,3.79-5.96,3.82-6.48.04-3.48-24.96-8.46-69.14-8.76-119.46-.3-50.29,4.14-94.42,7.32-119.38.48-3.79,5.96-3.82,6.48-.04,3.48,24.96,8.46,69.14,8.76,119.46Z"/>
        <path class="cls-1" d="m356.89,697.16c-8.34,49.52-10.99,94.12-11.82,119.29-.13,3.81,5.25,4.72,6.39,1.09,7.39-23.62,19.27-65.65,27.55-114.85,8.34-49.52,10.99-94.12,11.82-119.29.13-3.81-5.25-4.72-6.39-1.09-7.39,23.62-19.27,65.65-27.55,114.85Z"/>
        <path class="cls-1" d="m403.84,733.4c-17.47,39.1-37.11,71.39-48.78,89.29-2.04,3.12-6.87.96-5.9-2.64,5.59-20.75,16.63-57.15,34.13-96.34,17.47-39.1,37.11-71.39,48.78-89.29,2.04-3.12,6.87-.96,5.9,2.64-5.59,20.75-16.63,57.15-34.13,96.34Z"/>
        <path class="cls-1" d="m408.51,736.32c-26.09,33.9-45.21,66.64-55.41,85.43-1.77,3.27,2.41,6.5,5.11,3.95,15.47-14.57,42.06-41.25,68.09-75.08,26.09-33.9,45.21-66.64,55.41-85.43,1.77-3.27-2.41-6.5-5.11-3.95-15.47,14.57-42.06,41.25-68.09,75.08Z"/>
        <path class="cls-1" d="m445.42,774.57c-33.67,26.03-66.1,44.98-84.69,55.07-3.26,1.77-6.48-2.4-3.95-5.11,14.51-15.51,41.18-42.26,74.91-68.33,33.67-26.03,66.1-44.98,84.69-55.07,3.26-1.77,6.48,2.4,3.95,5.11-14.51,15.51-41.18,42.26-74.91,68.33Z"/>
        <path class="cls-1" d="m464.86,770.19c-44.84,20.56-82.18,43.04-102.81,56.24-3.2,2.05-.94,6.98,2.7,5.89,23.42-7,64.7-20.58,109.5-41.13,44.84-20.56,82.18-43.04,102.81-56.24,3.2-2.05.94-6.98-2.7-5.89-23.42,7-64.7,20.58-109.5,41.13Z"/>
        <path class="cls-1" d="m493.25,810.93c-52.28,13.69-99.35,21-125.9,24.43-3.81.49-5.21-4.84-1.64-6.28,24.84-10.03,69.47-26.74,121.76-40.44,52.28-13.69,99.35-21,125.9-24.43,3.81-.49,5.21,4.84,1.64,6.28-24.84,10.03-69.47,26.74-121.76,40.44Z"/>
      </g>
      <path class="cls-1" d="m1234.36,656.21c-.17,15.79,8.19,54.19,7.61,55.04-6.84-7.55-13.88-14.38-20.66-20.29.64-2.76,1.23-5.54,1.77-8.33,5.66-23.11-15.7-58.22-16.09-57.64-4.3,15.1,5.34,46.08,7.88,60.53-4.58-3.74-8.94-7.03-12.93-9.87-2.91-39.32-32.94-52.5-32.11-52.02,3.93,17.08,14.17,33.83,20.65,44.33-2.66-1.67-4.9-3.02-6.63-4.03-4.76-7.33-18.37-20.82-42.13-20.72.63-.46,21.19,28.16,43.04,25.8,2.9,1.77,6.73,4.2,11.22,7.3.24.35.39.55.39.55h0c-12.64,3.45-25.27,6.94-37.87,10.46.04-.01,7.38,6.38,23.41,5.83,11.5-.34,16.51-8.87,18.07-14.02,4.96,3.58,10.52,7.87,16.35,12.89.07.31.12.5.12.5.01,0,.03,0,.04,0-4.31.03-11.26.95-18.93,4.71-12.51,6.13-14.5,13.65-14.52,13.67-.04-.15,15.67,4.38,26.38-1.74,7.18-4.24,9.94-10.2,10.9-13.64,5.86,5.26,11.92,11.2,17.83,17.71-3.7.09-9.34.65-17.58,2.29-17.3,3.62-22.37,14.83-22.45,14.79-.07-.26,23.08,5.98,35.61-2.98,5.01-3.74,7.59-6.76,8.95-8.98,17.94,20.58,33.19,46.85,39.56,68.11,1.16-.96,2.31-1.94,3.46-2.92-6.69-21.66-22.44-48.28-40.84-69.02.97-2.23,2.82-6.87,5.18-17.02,5.23-20.55-12.46-53.29-12.77-52.85-3.58,5.14-2.9,11.55-2.91,11.56Z"/>
    </g>
  </g>
</svg>