<?xml version="1.0" encoding="UTF-8"?>
<svg id="Front" xmlns="http://www.w3.org/2000/svg" xmlns:xlink="http://www.w3.org/1999/xlink" viewBox="0 0 1700 800">
  <defs>
    <style>
      .cls-1 {
        fill: #1a7166;
      }

      .cls-1, .cls-2, .cls-3, .cls-4, .cls-5, .cls-6, .cls-7, .cls-8, .cls-9 {
        stroke-width: 0px;
      }

      .cls-2 {
        fill: none;
      }

      .cls-3 {
        fill: #ffd56c;
      }

      .cls-4 {
        fill: #fff;
      }

      .cls-5 {
        fill: #44bda2;
      }

      .cls-6 {
        fill: #003b2e;
      }

      .cls-10 {
        clip-path: url(#clippath);
      }

      .cls-7 {
        fill: #54b9a7;
      }

      .cls-8 {
        fill: #fcb45d;
      }

      .cls-9 {
        fill: #004534;
      }
    </style>
    <clipPath id="clippath">
      <rect class="cls-2" x=".1" width="1700" height="800"/>
    </clipPath>
  </defs>
  <g class="cls-10">
    <g>
      <g>
        <path class="cls-7" d="m1525.99,350.16c7.53,16.26,14.92,32.69,20.43,49.7,15.64,12.24,29.85,26.32,42.16,41.91-10.95-4.91-22.59-8.23-34.47-9.93,3.12,19,4.45,38.32,8.41,57.18,2.16,10.26,8.25,26.58,23.2,35.62,14.95,9.04,37.76,18.92,63.87,21.98-17.88,8.32-37.66,12.38-57.37,12.11,10.45,15.42,27.2,37.03,44.26,43.11,17.06,6.08,61.58,15.36,92.66,4.09-6.14,9.79-12.75,19.94-20.67,28.37,29.77,4.15,65.64-2.2,83.5-12.45,17.86-10.25,27.5-21.55,34.09-32.83.77,6.19-5.33,18.93-5.33,18.93,6.27-4.5,12.17-9.52,17.61-15.08,8.82-9.02,17.82-19.98,30.39-20.98,4.32-.35,8.69.57,12.97-.07,7.93-1.2,12.17-8.91,4-12.61-6.68-3.03-19.79.18-27.55-1.37-18.85-3.76-36.23-13.95-50.25-26.9-13.12-12.12-23.76-26.46-33.66-41.38-.69,18.93,5.17,35.08,5.63,54.02-23.03-25.75-29.5-69.8-38.52-93.84s-26.21-46.11-46.15-64.78c.08,17.57.16,35.13.24,52.7-8.39-17.17-10.81-36.77-17.66-56.97-6.85-20.2-19.91-24.33-27.78-28.5,3.53,20.93,4.43,42.3,2.57,63.44-8.11-28.64-19.14-57.73-40.27-78.56-30.72-8.99-63.45-11.85-95.79-13.85-3.4-.21-5.24,3.81-2.93,6.31,5.33,5.78,9.07,13.38,12.43,20.63Z"/>
        <path class="cls-1" d="m1825.15,572.2c-54.69,8.89-113.38-13.54-148.21-56.63-30.13-37.27-42.23-86.74-73.06-123.44-9.59-11.42-20.8-21.35-31.97-31.24-16.02-14.18-33.12-28.82-52.36-37.34-.25-.11-.52-.18-.79-.19-2.1-.13-4.19-.26-6.29-.39s-3.23,2.51-1.62,3.91c6.82,5.97,11.23,14.85,15.13,23.27,7.44,16.05,14.74,32.28,20.22,49.07.14.41.39.78.73,1.05,13.11,10.31,25.21,21.92,36.01,34.64,1.51,1.77-.31,4.36-2.49,3.56-7.54-2.77-15.34-4.82-23.27-6.15-1.52-.25-2.84,1.03-2.6,2.55,2.79,18.02,4.18,36.29,7.93,54.14,2.16,10.26,8.25,26.58,23.2,35.62,13.43,8.12,33.19,16.92,55.99,20.84,2.24.39,2.58,3.47.46,4.3-14.55,5.67-30.13,8.66-45.75,8.94-1.8.03-2.82,2.05-1.79,3.53,10.51,15.01,26.04,33.96,41.84,39.59,16.03,5.71,56.28,14.25,86.86,5.92,1.99-.54,3.62,1.63,2.5,3.36-4.44,6.91-9.18,13.81-14.51,19.99-1.19,1.38-.36,3.52,1.45,3.71,28.85,3.01,62.18-3.21,79.19-12.97,13.09-7.51,21.76-15.59,28.05-23.8,1.55-2.02,4.73-.29,3.89,2.11-.03.08-.06.16-.08.24-.75,2.12,1.77,3.91,3.52,2.49,3.84-3.12,7.52-6.47,11-10.03,8.81-9.02,17.82-19.98,30.39-20.98,4.32-.35,8.69.57,12.97-.07,5.74-.87,9.54-5.15,8.11-8.85-.32-.84-1.15-1.38-2.05-1.39-20.53-.22-41.82,7.25-62.6,10.63Z"/>
        <path class="cls-4" d="m1820.06,574.45c-.25.02-24.87,2.35-54.77-3.59-27.67-5.5-65.67-19.41-89.59-54.44-16.84-24.66-29.21-47.65-40.12-67.94-19.33-35.94-34.6-64.33-64.56-86.38l1.78-2.42c30.51,22.46,46.69,52.54,65.42,87.38,10.87,20.22,23.2,43.13,39.95,67.67,23.35,34.18,60.57,47.79,87.69,53.18,29.46,5.86,53.65,3.57,53.89,3.55l.29,2.99Z"/>
      </g>
      <g>
        <path class="cls-7" d="m174.46,296.61c-15.89,8.27-31.97,16.41-48.71,22.69-11.51,16.19-24.92,31.03-39.93,44.04,4.4-11.16,7.18-22.95,8.34-34.89-18.83,3.99-38.08,6.21-56.73,11.03-10.15,2.63-26.17,9.46-34.52,24.82-8.35,15.36-17.17,38.59-19.01,64.81-9.13-17.48-14.1-37.05-14.74-56.75-14.92,11.15-35.74,28.87-41.03,46.2-5.29,17.33-12.52,62.22.18,92.75-10.07-5.68-20.51-11.82-29.29-19.34-2.77,29.93,5.21,65.47,16.28,82.84,11.06,17.37,22.8,26.48,34.36,32.54-6.15,1.05-19.15-4.45-19.15-4.45,4.78,6.05,10.07,11.72,15.88,16.9,9.41,8.39,20.77,16.88,22.36,29.39.54,4.3-.17,8.71.67,12.95,1.56,7.86,9.46,11.75,12.78,3.42,2.72-6.81-1.09-19.76.1-27.58,2.89-19.01,12.26-36.84,24.56-51.44,11.51-13.66,25.33-24.95,39.79-35.53-18.94.18-34.81,6.78-53.7,8.1,24.67-24.19,68.37-32.68,91.97-42.8s44.85-28.3,62.59-49.08c-17.55.89-35.09,1.78-52.64,2.67,16.76-9.17,36.23-12.49,56.09-20.26,19.86-7.77,23.39-21.01,27.19-29.06-20.74,4.49-42.05,6.37-63.26,5.48,28.24-9.42,56.79-21.78,76.62-43.84,7.57-31.1,8.92-63.93,9.43-96.33.05-3.4-4.05-5.06-6.44-2.64-5.53,5.59-12.95,9.68-20.04,13.37Z"/>
        <path class="cls-1" d="m-33.59,605.67c-11.39-54.22,8.31-113.88,49.75-150.66,35.85-31.81,84.71-46.17,119.95-78.66,10.97-10.11,20.37-21.76,29.73-33.37,13.43-16.65,27.26-34.41,34.89-54.03.1-.25.15-.52.16-.8.04-2.1.07-4.2.1-6.3s-2.65-3.11-3.98-1.44c-5.65,7.09-14.32,11.9-22.55,16.19-15.69,8.17-31.57,16.21-48.09,22.46-.41.15-.76.42-1.01.78-9.7,13.57-20.74,26.19-32.94,37.56-1.7,1.59-4.37-.11-3.67-2.33,2.42-7.66,4.11-15.55,5.07-23.53.18-1.53-1.16-2.79-2.67-2.48-17.87,3.61-36.06,5.84-53.72,10.41-10.15,2.63-26.17,9.46-34.52,24.82-7.5,13.79-15.37,33.94-18.24,56.89-.28,2.26-3.35,2.74-4.27.66-6.34-14.27-10.04-29.69-11.04-45.29-.11-1.79-2.18-2.72-3.6-1.63-14.52,11.19-32.73,27.58-37.63,43.62-4.97,16.27-11.65,56.87-1.92,87.04.63,1.96-1.46,3.69-3.24,2.66-7.1-4.12-14.22-8.54-20.64-13.58-1.43-1.12-3.53-.19-3.64,1.62-1.68,28.96,6.07,61.97,16.6,78.51,8.11,12.73,16.57,21.02,25.07,26.93,2.09,1.45.51,4.71-1.93,3.98-.08-.02-.16-.05-.24-.07-2.16-.65-3.83,1.95-2.33,3.63,3.3,3.69,6.81,7.21,10.53,10.53,9.41,8.39,20.77,16.88,22.36,29.39.54,4.3-.17,8.71.67,12.95,1.13,5.69,5.58,9.29,9.21,7.69.82-.36,1.33-1.22,1.29-2.11-.72-20.51-9.17-41.44-13.5-62.05Z"/>
        <path class="cls-4" d="m-36.06,600.69c-.04-.24-3.5-24.74,1.07-54.88,4.22-27.89,16.37-66.49,50.26-91.99,23.86-17.96,46.26-31.37,66.02-43.2,35.01-20.96,62.67-37.52,83.32-68.47l2.5,1.67c-21.03,31.51-50.34,49.06-84.27,69.37-19.7,11.79-42.02,25.16-65.76,43.02-33.07,24.89-44.95,62.71-49.09,90.05-4.5,29.7-1.1,53.76-1.07,54l-2.97.43Z"/>
      </g>
      <g>
        <path class="cls-3" d="m1666.17,563.03c5.9-29.43,21.55-64.02,7.86-93.81-8.35-17.64-24.11-23.46-32.28-2.17-6.54,18.4-3.26,42.33.9,60.66,3.21,13.23,9.58,28.99,21.72,35.83"/>
        <path class="cls-3" d="m1623.43,622.74c7.52-7.95,6.69-21.36,7.2-31.74,1.99-22.49,1.88-38.54-7.8-59.22-5.42-10.67-19.73-33.95-35.64-24.62-16.81,9.58-5.39,43.42-.37,56.14,6.29,17.24,20.17,49.42,35.13,59.36"/>
        <path class="cls-8" d="m1692.44,651.67c29.28-3.32,72.09-27.97,78.38-59.46,1.26-7.66-.36-16.96-7.3-20.86-10.41-5.86-21.04,4.91-28.23,12.29-13.16,13.92-22.09,32.5-31.53,49.27-3.25,5.78-9.29,13.81-11.24,17.28"/>
        <path class="cls-6" d="m1559.16,816.58c11.6-25.56,24.05-50.79,38.73-74.75,14.78-24.13,31.85-46.75,50.91-67.67,9.84-10.8,18.56-22.42,25.9-35.06,6.99-12.03,12.74-24.73,17.7-37.72,10.04-26.32,16.78-53.72,24.98-80.63,4.43-14.54,10.13-28.45,17.24-41.9,7.05-13.32,15.19-26.03,23.93-38.3,2.18-3.06,4.4-6.09,6.65-9.1,1.44-1.93-1.81-3.81-3.24-1.89-18.09,24.21-34.17,50.12-44.52,78.64-4.87,13.43-8.39,27.44-12.33,41.16-3.9,13.55-7.85,27.1-12.48,40.43-9.32,26.85-21.79,52.68-40.16,74.58-4.77,5.69-9.94,11.05-14.8,16.68s-9.34,11.08-13.81,16.78c-8.47,10.81-16.43,22.01-23.86,33.56-15.04,23.39-27.8,48.14-39.52,73.34-1.54,3.31-3.06,6.63-4.57,9.96-.99,2.18,2.24,4.09,3.24,1.89h0Z"/>
        <path class="cls-6" d="m1557.68,813.67c3.4-10.23,4.98-20.9,7.16-31.42,2.1-10.19,4.97-20.17,9.22-29.68,4.15-9.27,9.38-17.95,14.09-26.93s9.2-17.29,13.62-26.04c8.3-16.41,15.69-33.41,19.38-51.51,1.97-9.65,2.9-19.5,2.89-29.35-.02-10.15-1.54-20.17-4.04-29.99-5.03-19.8-13.48-38.53-18.76-58.26-.64-2.41-1.24-4.83-1.77-7.27s-4.13-1.36-3.62,1c4.35,19.84,12.66,38.5,18.42,57.92,2.85,9.62,5.12,19.47,5.79,29.5.66,9.85.08,19.91-1.48,29.65-2.91,18.19-9.66,35.33-17.75,51.79-4.22,8.6-8.75,17.04-13.22,25.51-4.7,8.89-9.8,17.58-14.23,26.6-4.52,9.2-7.98,18.67-10.49,28.61-2.6,10.28-3.96,20.83-6.58,31.11-.66,2.61-1.41,5.2-2.27,7.76-.76,2.29,2.86,3.28,3.62,1h0Z"/>
        <path class="cls-6" d="m1650.93,674.01c16.76-5.31,32.35-13.84,46.54-24.16,14.49-10.55,27.62-22.88,39.52-36.25,6.57-7.38,12.77-15.09,18.64-23.04.61-.82.13-2.08-.67-2.57-.95-.57-1.97-.14-2.57.67-10.3,13.96-21.71,27.14-34.3,39.08-12.68,12.03-26.62,22.83-41.95,31.29-8.36,4.61-17.11,8.48-26.21,11.36-2.29.73-1.31,4.35,1,3.62h0Z"/>
        <path class="cls-6" d="m1684.89,617.73c-3.86-18.82-12.93-36.05-18.2-54.46-5.24-18.34-7.86-37.18-8.05-56.25-.1-10.7.52-21.4,1.82-32.02.12-1.01-.95-1.88-1.88-1.88-1.12,0-1.75.87-1.88,1.88-2.34,19-2.52,38.32-.17,57.34,1.17,9.53,3.01,18.92,5.52,28.19,2.53,9.37,5.87,18.43,9.32,27.49,3.83,10.05,7.73,20.16,9.89,30.72.48,2.36,4.1,1.36,3.62-1h0Z"/>
      </g>
      <path class="cls-7" d="m1571.76,874.32s61.49-84.18,49.8-162.55c-11.69-78.36-40.53-20.82-40.53-20.82,0,0,18.53-40.42,5.47-89.35-11.67-43.7-47.84,43.79-47.84,43.79,0,0,23.99-93.88,9.8-118.79-14.19-24.9-32.75,45.77-32.75,45.77,0,0,25.8-101.42-61.69-100.48l117.74,402.41Z"/>
      <path class="cls-1" d="m1571.76,874.32s-102.04-36.82-133.28-109.63c-31.25-72.81,23.53-39.01,23.53-39.01,0,0-37.01-24.64-51.61-73.14-13.05-43.31,63.72,12.11,63.72,12.11,0,0-69.76-67.26-70.77-95.91-1.01-28.64,51.92,21.72,51.92,21.72,0,0-75.25-72.72-.34-117.9l116.82,401.75Z"/>
      <g>
        <path class="cls-4" d="m1502.68,551.77c-.62,7.53-3.52,14.75-6.35,21.67-2.92,7.14-6.13,14.23-7.9,21.77l2.75-1.12c-4.86-3.44-9.37-7.38-13.92-11.22-5.24-4.42-10.46-8.88-15.88-13.07-2.51-1.94-5.06-3.86-7.76-5.53-2.06-1.27-3.95,1.97-1.89,3.24,5.09,3.13,9.72,7.02,14.31,10.82,5.28,4.37,10.46,8.85,15.76,13.19,2.44,2,4.91,3.98,7.49,5.81.98.69,2.49-.01,2.75-1.12,3.56-15.18,13.08-28.68,14.38-44.44.2-2.41-3.55-2.39-3.75,0h0Z"/>
        <path class="cls-4" d="m1515.38,604c-2.75,15.38-5.4,30.78-8.24,46.14.92-.37,1.84-.75,2.75-1.12-13.75-7.71-27.03-16.22-40.65-24.17-2.09-1.22-3.98,2.02-1.89,3.24,13.61,7.95,26.89,16.46,40.65,24.17.98.55,2.53.1,2.75-1.12,2.84-15.36,5.49-30.76,8.24-46.14.42-2.36-3.19-3.37-3.62-1h0Z"/>
        <path class="cls-4" d="m1527.95,661.07c.49,11.99-5.27,23.12-7.62,34.65l2.31-1.31c-6.32-1.1-12.15-4.98-17.42-8.43-5.7-3.73-11.13-7.84-16.73-11.71-1.99-1.37-3.87,1.88-1.89,3.24,5.71,3.93,11.23,8.13,17.05,11.91,5.43,3.53,11.51,7.47,18.01,8.6.94.17,2.09-.24,2.31-1.31,2.42-11.88,8.26-23.29,7.76-35.65-.1-2.4-3.85-2.42-3.75,0h0Z"/>
        <path class="cls-4" d="m1551.02,689.08c-1.34,15.92-7.22,30.98-11.85,46.14-1.28,4.19-2.47,8.41-3.46,12.68l2.31-1.31c-6.32-1.97-12.18-5.33-17.76-8.84-6.31-3.96-12.35-8.34-18.33-12.78-3.02-2.24-6.02-4.51-9.05-6.75-.82-.61-2.08-.13-2.57.67-.57.95-.14,1.97.67,2.57,11.6,8.58,23,17.76,35.86,24.43,3.27,1.7,6.66,3.22,10.18,4.32.94.29,2.08-.35,2.31-1.31,3.61-15.67,9.96-30.57,13.38-46.3.97-4.46,1.69-8.97,2.07-13.52.2-2.4-3.55-2.39-3.75,0h0Z"/>
        <path class="cls-4" d="m1564.82,739.67c-3.49,15.76-5.59,31.8-9.32,47.52-1.03,4.34-2.2,8.65-3.56,12.9l2.31-1.31c-7.26-1.12-12.96-6.27-19.1-9.88-3.3-1.94-6.98-3.28-10.57-4.59-3.63-1.32-7.3-2.53-10.92-3.89-4.15-1.55-8.2-3.33-11.99-5.62-2.07-1.25-3.96,1.99-1.89,3.24,6.77,4.1,14.33,6.52,21.74,9.15,3.64,1.29,7.46,2.53,10.84,4.43,3.27,1.83,6.3,4.04,9.48,6.02,3.51,2.19,7.28,4.12,11.41,4.76,1.04.16,1.97-.25,2.31-1.31,4.91-15.27,7.26-31.22,10.18-46.95.84-4.5,1.72-9,2.71-13.47.52-2.35-3.09-3.36-3.62-1h0Z"/>
      </g>
      <path class="cls-4" d="m1466.5,518.5c7.16,24.94,13.65,50.06,20.74,75.02,3.41,12.01,6.96,23.99,10.85,35.86,3.88,11.84,8.55,23.39,12.49,35.21,8.02,24.01,12.89,48.86,19.76,73.19,1.82,6.46,3.79,12.87,5.95,19.22,1.78,5.24,3.85,10.37,5.58,15.63,2.64,8.02,4.98,16.14,7.38,24.23,2.86,9.64,5.74,19.28,8.89,28.83,2.69,8.17,5.5,16.37,9.16,24.17.67,1.43,1.39,2.85,2.16,4.23,1.18,2.11,4.42.22,3.24-1.89-3.8-6.81-6.43-14.29-8.97-21.64-3.24-9.38-6.14-18.87-8.98-28.38-2.59-8.66-5.1-17.35-7.8-25.98-3.24-10.35-7.29-20.42-10.46-30.8-7.36-24.1-12.11-48.9-19.47-72.99-3.73-12.19-8.48-23.99-12.62-36.03s-7.57-23.28-11-35.03c-7.25-24.89-13.75-49.98-20.75-74.94-.83-2.97-1.67-5.94-2.53-8.9-.66-2.32-4.28-1.33-3.62,1h0Z"/>
      <g>
        <path class="cls-6" d="m1572.99,861.42c1-23.39,1.99-44.8-5.97-67.69-11.95-34.84-51.27-57.74-77.65-81.13-24.39-21.4-39.32-44.3-46.79-76.15-2.49-11.95-4.98-24.39-6.97-36.83-1.49-6.97-3.98-19.91-4.48-25.88-17.92,50.77-2.99,100.04,35.34,136.38,40.32,38.32,88.1,70.18,101.54,127.92,1.49,7.96,2.49,16.42,3.48,24.39"/>
        <path class="cls-6" d="m1572.49,855.95c-7.96-18.91-17.92-35.84-32.85-50.77-27.37-26.88-56.24-40.81-91.58-55.25-14.43-6.47-30.36-12.44-43.8-21.4-16.92-11.45-27.37-25.38-39.32-41.31-20.9-26.88-38.82-56.74-75.65-62.22-1.49-.5-3.48-1-4.98-1,27.37,9.46,43.3,33.85,57.74,56.74,6.97,10.95,12.44,22.4,19.91,32.85,9.46,13.44,23.39,21.9,37.33,30.86,28.37,17.92,62.22,29.86,93.57,41.81,25.88,9.95,47.15,32.42,65.07,52.33,2.49,2.99,11.58,20.83,13.57,23.82"/>
        <path class="cls-6" d="m1571,865.9c-22.9-55.25-97.06-53.75-142.35-79.64-25.38-14.93-48.78-31.36-73.17-48.28-1.49,13.94,18.91,31.36,27.87,39.32,13.44,11.95,27.87,23.39,43.8,30.86,27.87,12.94,57.74,18.91,86.6,27.87,20.41,5.97,41.31,16.92,57.24,31.36"/>
      </g>
      <path class="cls-6" d="m1574.41,812.51c-3.05-20.36-9.99-39.92-14.39-60.04-15.8-72.28,3.47-151.39,50.74-208.31-7.8,46.4,6.82,93.55,6.47,140.59-.25,33.52-8.08,66.46-15.87,99.06-4.52,18.91-9.04,37.82-13.56,56.73-1.7,7.12-3.45,14.35-7.15,20.67-1.45,2.47-9.29,13.38-12.3,9.79-2.35-2.81,4.16-14.7,4.97-17.95,3.29-13.21,3.08-27.15,1.07-40.55Z"/>
      <g>
        <g>
          <path class="cls-6" d="m98.87,640.93c-7.98-12.62-12.1-26.8-12-41.73.1-14.82,3.7-29.36,7.51-43.6,8.47-31.66,15.89-64.3,14.63-97.27-.36-9.52-1.3-19.16-3.21-28.5-1.88-9.21-5.55-17.97-8.71-26.79-.99-2.78-5.46-1.58-4.45,1.23,2.84,7.93,6.02,15.77,8.05,23.96,2.06,8.3,2.94,17.02,3.47,25.54,1,16.24-.13,32.53-2.67,48.58-2.61,16.46-6.51,32.7-10.71,48.82-3.82,14.67-7.81,29.41-8.45,44.64-.33,7.98.32,16.02,2.25,23.78,2.08,8.41,5.69,16.38,10.31,23.69,1.58,2.5,5.58.19,3.99-2.33h0Z"/>
          <path class="cls-6" d="m100.53,573.11c-1.19-9.76,2.12-19.36,6.36-28.02,4.89-9.99,11.15-19.24,17.19-28.56,5.68-8.77,11.2-17.55,14.67-27.46,4.24-12.11,6.49-24.94,6.85-37.75.4-14.3-1.61-28.74-6.3-42.26-.97-2.79-5.43-1.59-4.45,1.23,8.32,23.97,8.13,50.73.37,74.83-1.62,5.03-3.6,9.81-6.14,14.44-2.47,4.49-5.22,8.83-8,13.13-5.94,9.21-12.15,18.3-17.16,28.07-5.06,9.87-9.37,21.06-8,32.35.15,1.24.95,2.31,2.31,2.31,1.13,0,2.46-1.06,2.31-2.31h0Z"/>
          <path class="cls-3" d="m105.14,409.67c-2.01,1.34-10.94,4.69-13.62,4.69-3.35-10.05-17.63-56.93-12.73-56.93,5.76,0,19.16,35.5,26.35,52.24"/>
          <path class="cls-3" d="m148.38,450.33c-2.26.85-11.72,2.09-14.33,1.48-.99-10.54-4.28-59.45.5-58.33,5.61,1.31,10.62,38.92,13.83,56.85"/>
        </g>
        <g>
          <path class="cls-3" d="m221.37,572.07c-2.01-7.7-4.35-14.74-2.34-23.11,3.01-12.73,9.38-22.44,18.42-31.49,1.67,12.06,4.35,24.11-1.34,35.51-3.35,7.37-13.06,13.06-15.07,20.09"/>
          <path class="cls-3" d="m248.16,569.72c-.33-8.37,5.36-18.42,10.05-24.78,7.03-10.05,18.42-13.07,27.46-20.43,0,12.39-8.37,26.13-17.41,34.5-5.69,5.69-13.73,6.7-19.76,11.72"/>
          <path class="cls-3" d="m269.25,582.45c-1.34-20.09,20.76-34.83,37.17-39.86,2.34,8.38-11.39,25.79-17.08,30.81-5.69,5.02-12.73,9.38-20.43,9.71"/>
          <path class="cls-6" d="m195.78,759.76c6.24-12.91,10.43-26.65,12.84-40.77,2.35-13.76,3.16-27.71,3.42-41.65.14-7.32.03-14.64.29-21.96.26-7.44.73-14.87,1.39-22.29,1.32-14.67,3.46-29.25,6.37-43.69,3.27-16.26,7.51-32.3,12.53-48.11.9-2.84-3.55-4.05-4.45-1.23-8.88,27.96-15.21,56.69-18.36,85.88-1.59,14.71-2.18,29.42-2.3,44.21-.11,13.94-.53,27.93-2.45,41.75-2.18,15.74-6.36,31.18-13.28,45.51-1.29,2.66,2.69,5.01,3.99,2.33h0Z"/>
          <path class="cls-6" d="m214.54,622.24c10.45-21.53,26.38-40.12,42.48-57.62,4.42-4.8,8.91-9.54,13.42-14.25,2.05-2.15-1.21-5.42-3.26-3.26-16.71,17.47-33.39,35.32-46.73,55.57-3.64,5.54-7,11.27-9.89,17.23-1.29,2.66,2.69,5,3.99,2.33h0Z"/>
          <path class="cls-6" d="m213.28,646.81c5.53-5.57,10.25-11.86,15.03-18.06s9.54-11.92,15.01-17.32c11.15-11.01,22.72-21.65,33.06-33.44,5.5-6.27,10.68-12.87,14.95-20.05,1.52-2.56-2.47-4.88-3.99-2.33-7.76,13.05-18.43,24.17-29.14,34.82-5.45,5.42-11.01,10.73-16.49,16.11-5.41,5.31-10.38,10.86-15.04,16.85-5.35,6.88-10.5,13.97-16.66,20.17-2.1,2.11,1.17,5.38,3.26,3.26h0Z"/>
        </g>
        <path class="cls-3" d="m366.53,801.82c11.39-17.41,41.53-31.48,62.29-31.48s26.12,12.73,11.39,26.79c-10.72,10.72-26.12,12.05-40.19,12.05-12.73-.67-22.77-2.68-33.49-6.7"/>
        <path class="cls-9" d="m434.35,778.4c-23.78,12.35-50.28,17.9-76.5,22.3-7.35,1.24-14.72,2.39-22.08,3.59-2.92.48-1.68,4.93,1.23,4.45,26.46-4.32,53.26-8.05,78.6-17.18,7.21-2.6,14.27-5.64,21.08-9.17,2.64-1.37.31-5.35-2.33-3.99h0Z"/>
        <path class="cls-9" d="m396.68,783.24c-3.37,4.69-7.42,8.88-10.05,14.07-.84,1.66.22,3.29,1.99,3.47,6.44.68,12.49,3.32,18.81,4.61,1.22.25,2.49-.35,2.84-1.61.31-1.14-.38-2.59-1.61-2.84-6.75-1.38-13.15-4.04-20.04-4.77l1.99,3.47c2.63-5.19,6.68-9.38,10.05-14.07.73-1.01.18-2.57-.83-3.16-1.16-.68-2.43-.19-3.16.83h0Z"/>
        <path class="cls-9" d="m418.11,777.22c-2.01,4.6-5.49,8.4-6.93,13.28-.35,1.18.42,2.54,1.61,2.84,5.41,1.37,10.66,3.32,16.07,4.69,1.21.3,2.5-.39,2.84-1.61.33-1.19-.4-2.53-1.61-2.84-5.41-1.37-10.66-3.32-16.07-4.69.54.95,1.07,1.89,1.61,2.84,1.29-4.36,4.62-7.96,6.46-12.17.5-1.14.34-2.48-.83-3.16-.98-.57-2.66-.32-3.16.83h0Z"/>
        <g>
          <path class="cls-1" d="m211.58,829.09c41.97-16.07,50.01-65.19,83.95-91.09,16.07-11.61,40.19-26.79,61.62-22.33,25,6.25,29.47,33.94,20.54,53.58-17.86,38.4-49.12,59.83-90.2,67.87-21.43,4.46-56.26,5.36-75.01-8.04"/>
          <path class="cls-5" d="m356.94,732.37c-12.84,19.52-29.54,36.29-47.41,51.23-8.74,7.3-17.73,14.67-27.56,20.46-9.44,5.56-19.64,9.55-30.13,12.66-12.01,3.57-24.28,6.13-36.41,9.25-2.87.74-1.66,5.19,1.23,4.45,21.78-5.61,44.24-9.6,64.23-20.44,10.23-5.55,19.43-12.9,28.43-20.24s18-15.39,26.25-23.87c9.36-9.61,17.99-19.96,25.36-31.17,1.64-2.49-2.36-4.8-3.99-2.33h0Z"/>
          <path class="cls-5" d="m270.89,780.87c-.99,11.83-6.99,22.55-8.85,34.21-.2,1.27.32,2.42,1.61,2.84,8.4,2.69,17.44,1.13,25.9,3.57,2.86.83,4.08-3.63,1.23-4.45-8.46-2.45-17.52-.89-25.9-3.57l1.61,2.84c1.93-12.1,7.98-23.15,9.01-35.44.25-2.96-4.37-2.94-4.62,0h0Z"/>
          <path class="cls-5" d="m301.26,766.58c-.07,9.99-3.52,19.57-4.47,29.47-.12,1.24,1.15,2.31,2.31,2.31,8.64-.02,17.26-.87,25.9-.89,2.97,0,2.98-4.62,0-4.62-8.64.02-17.26.87-25.9.89.77.77,1.54,1.54,2.31,2.31.95-9.91,4.4-19.45,4.47-29.47.02-2.97-4.6-2.97-4.62,0h0Z"/>
          <path class="cls-5" d="m327.16,742.47c0,9.23,0,18.48-.89,27.68-.09.93.78,2.05,1.69,2.23,9.07,1.76,18.24.99,27.4.98,2.97,0,2.98-4.62,0-4.62-8.72.02-17.55.86-26.18-.81.56.74,1.13,1.48,1.69,2.23.9-9.2.89-18.45.89-27.68,0-2.97-4.62-2.97-4.62,0h0Z"/>
          <path class="cls-5" d="m344.12,730.86c.02,5.61.95,11.17,1.87,16.69.16.98,1.29,1.69,2.23,1.69h16.97c2.97,0,2.97-4.62,0-4.62h-16.97l2.23,1.69c-.85-5.12-1.68-10.25-1.7-15.46-.01-2.97-4.63-2.98-4.62,0h0Z"/>
        </g>
        <g>
          <path class="cls-1" d="m38.32,869.9c-3.51-18.75,8.77-41.97,16.66-58.05,14.03-28.58,28.94-50.01,56.12-66.98,42.96-26.79,90.31-36.61,140.29-39.29,11.4-.89,22.8,0,34.2-2.68-5.76,33.72-14.03,55.37-24.55,77.69-12.28,27.68-28.06,48.22-50.86,68.76-34.2,30.36-82.42,43.76-126.26,33.94-14.91-3.57-29.81-8.04-43.84-12.5"/>
          <path class="cls-7" d="m223.65,748.27c-22.53,14.72-43.59,30.73-64.72,47.44-10.98,8.68-22.06,17.27-33.63,25.12-11.24,7.63-23.06,14.27-34.35,21.81-10.91,7.29-21.76,14.49-33.86,19.58-6.18,2.6-12.43,5.02-18.5,7.81l1.5.76c14.03,4.47,28.93,8.93,43.84,12.5,43.84,9.82,92.07-3.57,126.26-33.94,22.8-20.54,38.58-41.08,50.86-68.76,10.38-22.02,18.56-43.4,24.31-76.32-19.33,16.4-40.55,30.18-61.69,43.99Z"/>
          <g>
            <path class="cls-4" d="m282.66,704.72c-9,4.29-16.25,10.99-23.63,17.55-7.5,6.67-15.52,12.45-24.02,17.79-8.67,5.44-17.54,10.57-25.91,16.48-8.51,6-16.54,12.74-24.75,19.14-17.02,13.26-34.21,26.32-52.09,38.4-8.82,5.96-17.81,11.68-27.01,17.03-7.89,4.59-16.06,8.6-24.09,12.93-7.61,4.1-15.13,8.37-22.68,12.58-6.2,3.46-12.4,7-18.83,10.04-1.04.49-2.09.96-2.82,1.25-1.15.46-1.97,1.54-1.61,2.84.31,1.1,1.67,2.08,2.84,1.61,5.8-2.31,11.29-5.43,16.75-8.43,7.51-4.13,14.96-8.38,22.47-12.52,7.51-4.15,15.23-7.9,22.74-12.04,9.38-5.16,18.52-10.74,27.48-16.6,18.09-11.82,35.42-24.74,52.51-37.94,8.43-6.51,16.84-13.06,25.2-19.68,8.03-6.36,16.8-11.68,25.52-17.02,8.61-5.28,17.22-10.63,25.07-17.03,7.59-6.19,14.38-13.47,22.65-18.78,2.1-1.35,4.29-2.55,6.54-3.63,2.68-1.28.34-5.26-2.33-3.99h0Z"/>
            <path class="cls-4" d="m234.17,717.43c-.97,10.84-6.81,20.57-10.44,30.64-.52,1.43.82,2.92,2.23,2.92,10.59-.02,21.32-.92,31.83.81,2.91.48,4.16-3.97,1.23-4.45-10.95-1.81-22.02-.99-33.06-.98.74.97,1.48,1.95,2.23,2.92,3.81-10.55,9.58-20.5,10.6-31.87.27-2.96-4.35-2.94-4.62,0h0Z"/>
            <path class="cls-4" d="m200.85,726.36c.45,8.15-1.53,16.31-3.82,24.07-2.36,7.99-5.33,15.79-8.37,23.54-.56,1.43.86,2.91,2.23,2.92,14.47.07,28.42,5.26,42.96,4.47,2.95-.16,2.97-4.78,0-4.62-14.53.79-28.49-4.4-42.96-4.47.74.97,1.48,1.95,2.23,2.92,3.1-7.91,6.13-15.86,8.51-24.02,2.33-7.98,4.31-16.45,3.85-24.82-.16-2.95-4.78-2.97-4.62,0h0Z"/>
            <path class="cls-4" d="m157.01,742.44c.37,8.36-.62,16.76-2.05,24.98-1.58,9.08-3.75,18.07-6.48,26.86-1.34,4.31-2.82,8.57-4.54,12.74-.58,1.42.87,2.92,2.23,2.92,16.33,0,32.93.46,48.99,3.67,4.29.86,8.53,1.94,12.65,3.39,2.81.99,4.01-3.47,1.23-4.45-7.71-2.72-15.81-4.16-23.91-5.19-8.5-1.08-17.06-1.6-25.62-1.86-4.45-.13-8.89-.18-13.34-.18.74.97,1.48,1.95,2.23,2.92,3.24-7.87,5.71-16.06,7.77-24.31,2.27-9.07,4.02-18.3,4.96-27.61.46-4.61.71-9.25.5-13.89-.13-2.96-4.75-2.97-4.62,0h0Z"/>
            <path class="cls-4" d="m121.06,767.44c.8,22.08-9.55,42.66-12.28,64.3-.12.97.8,2,1.69,2.23,8.61,2.22,16.79,5.85,25.46,7.9,8.99,2.12,18.32,1.67,27.15,4.6,2.83.94,4.04-3.52,1.23-4.45-8.84-2.94-18.17-2.48-27.15-4.6s-16.84-5.67-25.46-7.9l1.69,2.23c2.73-21.69,13.08-42.12,12.28-64.3-.11-2.96-4.72-2.98-4.62,0h0Z"/>
            <path class="cls-4" d="m86.07,789.15c-5.01,17.84-10.14,35.81-17.35,52.9-1.81,4.3-3.8,8.54-6.1,12.61-.8,1.41,0,2.84,1.38,3.39,21.07,8.34,43.87,10.77,65.77,16.1,2.89.7,4.12-3.75,1.23-4.45-21.9-5.33-44.69-7.76-65.77-16.1.46,1.13.92,2.26,1.38,3.39,4.41-7.81,7.76-16.23,10.82-24.64,3.34-9.18,6.28-18.51,9.05-27.88,1.38-4.69,2.72-9.39,4.04-14.09.8-2.86-3.65-4.09-4.45-1.23h0Z"/>
          </g>
        </g>
        <g>
          <path class="cls-7" d="m42.16,691.09c-18.75-13.4-30.36-47.33-32.15-69.66-.89-9.82-.89-35.72,8.93-41.97,15.18-9.82,17.86,19.65,29.47,22.33,6.25-9.83-7.14-24.11-2.68-36.62,4.46-11.61,14.29-26.79,25.01-34.83,5.36,7.14,1.79,21.43,8.04,27.68,8.93,10.72,12.5,1.79,11.61-8.04,0-6.25-8.04-14.29-6.25-20.54,1.79-5.36,14.29-15.19,18.75-18.76,1.79,4.47,4.46,23.23,10.72,22.33,8.04-.89,3.57-19.65,1.79-24.12,13.4-6.25,56.26-25,71.44-16.97,16.97,8.04,15.18,71.45,8.93,86.63-3.57-1.79-25.01-15.18-26.79-3.57-.89,8.04,20.54,8.04,22.33,16.97.89,7.15-12.5,24.11-17.86,24.11-8.93,0-16.07-17.86-27.68-16.97-14.29.89-8.93,7.14,0,13.4,10.72,8.04,20.54,6.25,17.86,20.54-2.68,13.4-12.5,18.75-23.22,14.29-1.79-1.79-26.79-23.22-21.43-5.36,1.79,7.14,16.07,8.04,18.75,16.07,1.79,6.25-4.47,16.07-8.04,20.54-13.4,17.86-20.54,4.46-36.61-1.79-2.68,9.82,12.5,12.5,8.04,21.43-2.68,5.36-18.75,3.57-24.11,3.57-11.61-.89-27.68-1.79-35.72-8.93"/>
          <path class="cls-4" d="m171.55,513.65c-18.45,21.65-36.86,43.34-54.91,65.33-18.02,21.96-35.7,44.22-52.66,67.01-9.47,12.72-18.71,25.61-27.64,38.71-1.68,2.46,2.32,4.77,3.99,2.33,15.88-23.27,32.7-45.88,50.08-68.05,17.48-22.31,35.5-44.18,53.74-65.87,10.18-12.1,20.42-24.15,30.68-36.18,1.92-2.25-1.33-5.53-3.26-3.26h0Z"/>
          <path class="cls-4" d="m44.96,619.77c0,16.51-.32,33.59,3.65,49.73.3,1.2,1.66,1.95,2.84,1.61,12.83-3.65,26.16-7.01,39.57-7.06,2.97-.01,2.98-4.63,0-4.62-13.82.05-27.59,3.46-40.8,7.23l2.84,1.61c-3.88-15.73-3.49-32.41-3.49-48.5,0-2.97-4.62-2.97-4.62,0h0Z"/>
          <path class="cls-4" d="m69.97,588.51c1.76,16.33-.97,32.8.89,49.12.11.97.63,2.01,1.69,2.23,13.3,2.74,26.57-1.64,39.91-1.71,2.97-.01,2.98-4.63,0-4.62-12.83.06-25.9,4.5-38.68,1.87l1.69,2.23c-1.86-16.32.87-32.78-.89-49.12-.13-1.24-.97-2.31-2.31-2.31-1.14,0-2.44,1.06-2.31,2.31h0Z"/>
          <path class="cls-4" d="m97.65,573.33c-.87,10.4-1.77,20.81-1.79,31.26,0,1.31,1.06,2.22,2.31,2.31,11.09.78,21.95-2.57,33.04-1.79,2.96.21,2.95-4.41,0-4.62-11.09-.78-21.95,2.57-33.04,1.79l2.31,2.31c.02-10.45.92-20.85,1.79-31.26.25-2.96-4.37-2.94-4.62,0h0Z"/>
          <path class="cls-4" d="m118.19,545.65c.01,11.14.91,22.57-2.6,33.32-.47,1.44.78,2.93,2.23,2.92,10.77-.03,21.72-1.79,31.87-5.44,2.77-1,1.58-5.46-1.23-4.45-9.79,3.52-20.25,5.24-30.64,5.28.74.97,1.48,1.95,2.23,2.92,3.63-11.15,2.78-23,2.76-34.55,0-2.97-4.62-2.98-4.62,0h0Z"/>
          <path class="cls-4" d="m144.98,522.43c-.05,9.01-2.62,17.78-2.68,26.79,0,1.5,1.48,2.62,2.92,2.23,9.47-2.59,18.91-5.37,28.58-7.14,2.92-.54,1.68-4.99-1.23-4.45-9.67,1.78-19.1,4.56-28.58,7.14.97.74,1.95,1.48,2.92,2.23.05-9.01,2.62-17.78,2.68-26.79.02-2.97-4.6-2.97-4.62,0h0Z"/>
          <path class="cls-4" d="m154.8,517.96c.03,4.19.86,8.32.89,12.51,0,1.36,1.06,2.15,2.31,2.31,7.64.94,15.64.81,22.94-1.87,1.17-.43,1.96-1.57,1.61-2.84-.31-1.13-1.66-2.04-2.84-1.61-6.96,2.56-14.43,2.59-21.71,1.7l2.31,2.31c-.03-4.19-.86-8.32-.89-12.51-.02-2.97-4.64-2.98-4.62,0h0Z"/>
        </g>
      </g>
    </g>
  </g>
</svg>