<svg id="eJArGCsFEY41" xmlns="http://www.w3.org/2000/svg" xmlns:xlink="http://www.w3.org/1999/xlink" viewBox="0 0 1000 1000" shape-rendering="geometricPrecision" text-rendering="geometricPrecision" project-id="5728d0c8813047559e30f64c514a563f" export-id="0a714ff67b4a4b4a8ff51be8dfb55bcc" cached="false">
<style><![CDATA[
#eJArGCsFEY464_to {animation: eJArGCsFEY464_to__to 3000ms linear infinite normal forwards}@keyframes eJArGCsFEY464_to__to { 0% {transform: translate(389.965027px,338.069977px);animation-timing-function: cubic-bezier(0.61,0,0.455,1)} 50% {transform: translate(303.450012px,284.619985px);animation-timing-function: cubic-bezier(0.61,0,0.455,1)} 100% {transform: translate(389.965027px,338.069977px)}} #eJArGCsFEY492_tr {animation: eJArGCsFEY492_tr__tr 3000ms linear infinite normal forwards}@keyframes eJArGCsFEY492_tr__tr { 0% {transform: translate(646.174988px,602.240005px) rotate(0deg);animation-timing-function: cubic-bezier(0.86,0,0.32,0.995)} 50% {transform: translate(646.174988px,602.240005px) rotate(-180.000001deg);animation-timing-function: cubic-bezier(0.86,0,0.32,0.995)} 100% {transform: translate(646.174988px,602.240005px) rotate(0deg)}} #eJArGCsFEY4101_to {animation: eJArGCsFEY4101_to__to 3000ms linear infinite normal forwards}@keyframes eJArGCsFEY4101_to__to { 0% {transform: translate(781.155792px,345.755005px);animation-timing-function: cubic-bezier(0.565,0,0.525,1.005)} 70% {transform: translate(830.655775px,247.282966px);animation-timing-function: cubic-bezier(0.565,0,0.525,1.005)} 100% {transform: translate(781.155792px,345.755005px)}} #eJArGCsFEY4124_to {animation: eJArGCsFEY4124_to__to 3000ms linear infinite normal forwards}@keyframes eJArGCsFEY4124_to__to { 0% {transform: translate(803.589966px,526.130005px);animation-timing-function: cubic-bezier(0.72,-0.025,0.44,0.995)} 40% {transform: translate(832.34393px,573.05001px);animation-timing-function: cubic-bezier(0.72,-0.025,0.44,0.995)} 100% {transform: translate(803.589966px,526.130005px)}}
]]></style>
<g style="isolation:isolate"><g><g><path d="M693.24,252.8c0,0,25.04,25.63,29.7,89.7s9.9,110.66,93.77,138.03c83.86,27.38,119.98,154.93,46.01,234.14s-175.31,122.89-393.14,83.87C251.76,759.52,156.24,636.05,132.94,511.41s13.4-329.65,244.62-366.93s315.67,108.33,315.67,108.33l.01-.01Z" fill="#f0d7bf" stroke-width="0"/><path d="M746.52,370.62c0,8.89,7.21,16.1,16.1,16.1s16.1-7.21,16.1-16.1-7.21-16.1-16.1-16.1-16.1,7.21-16.1,16.1Z" fill="#f0d7bf" stroke-width="0"/><path d="M132.99,641.88c0,11.49,9.32,20.81,20.81,20.81s20.81-9.32,20.81-20.81-9.32-20.81-20.81-20.81-20.81,9.32-20.81,20.81Z" fill="#f0d7bf" stroke-width="0"/><path d="M802.34,436.51c0,11.49,9.32,20.81,20.81,20.81s20.81-9.32,20.81-20.81-9.32-20.81-20.81-20.81-20.81,9.32-20.81,20.81Z" fill="#f0d7bf" stroke-width="0"/><path d="M139.4,613.79c.62,0,1.26-.11,1.88-.34c2.75-1.04,4.13-4.11,3.09-6.85-27.06-71.55-33.64-131.71-34.4-169.58-.83-41.05,4.82-65.49,4.88-65.73.68-2.86-1.09-5.72-3.95-6.4-2.85-.67-5.72,1.09-6.4,3.94-.24,1.03-5.98,25.67-5.18,67.93.74,38.8,7.42,100.41,35.1,173.6.8,2.13,2.83,3.44,4.97,3.44l.01-.01Z" fill="#f0d7bf" stroke-width="0"/></g><g><g><path d="M294.98,702.16c-31.75-21.45-34.81-104.79-34.93-138.82-.02-6.22-5.07-11.24-11.29-11.24h-74.07c-6.25,0-11.31,5.07-11.29,11.32.12,34.11,3.21,117.31,34.93,138.74h96.65Z" fill="#fff" stroke-width="0"/><polygon points="283.99,711.12 264.26,711.12 264.26,760.43 266.79,765.7 266.79,799.23 281.45,799.23 281.45,765.7 283.99,760.43 283.99,711.12" fill="#252a40" stroke-width="0"/><path d="M333.52,804.02v-1.64c0,0-36.84-6.28-57.57-6.96v-.07c-.63,0-1.22.02-1.84.03-.61-.01-1.2-.03-1.83-.03v.07c-20.73.68-57.57,6.96-57.57,6.96v1.64c-2.27.63-3.94,2.69-3.94,5.16c0,2.97,2.4,5.38,5.38,5.38s5.37-2.41,5.37-5.38c0-.72-.14-1.4-.4-2.03h105.98c-.26.63-.4,1.31-.4,2.03c0,2.97,2.4,5.38,5.37,5.38s5.38-2.41,5.38-5.38c0-2.47-1.67-4.53-3.94-5.16" fill="#252a40" stroke-width="0"/><path d="M251.06,809.29c0-2.89-.65-5.23-1.46-5.26v0c0,0-.01,0-.01,0h-5.27c-.8,0-1.48,2.35-1.48,5.27s.67,5.27,1.48,5.27h5.28c.81-.04,1.46-2.38,1.46-5.27" fill="#252a40" stroke-width="0"/><polygon points="247.73,809.87 274.12,807.15 301.43,809.87 301.43,804.02 247.73,804.02 247.73,809.87" fill="#252a40" stroke-width="0"/><path d="M302.01,705.68c-31.74-21.45-34.81-104.79-34.93-138.82-.02-6.22-5.07-11.23-11.29-11.23h-74.07c-6.25,0-11.31,5.06-11.29,11.32.12,34.11,3.21,117.3,34.92,138.73h96.66Z" fill="#18325b" stroke-width="0"/><path d="M357.26,713.42h-142.26v-22.15c0-5.44,4.41-9.85,9.85-9.85h122.55c5.44,0,9.85,4.41,9.85,9.85v22.15h.01Z" fill="#f15a50" stroke-width="0"/><path d="M351.85,721.03h-131.13c-8.48,0-15.36-6.88-15.36-15.36v-5.23c0-2.26,1.84-4.1,4.1-4.1h153.65c2.26,0,4.1,1.83,4.1,4.1v5.23c0,8.48-6.88,15.36-15.36,15.36" fill="#547a9b" stroke-width="0"/><path d="M242.82,707.15c0,2.2-1.79,3.97-3.98,3.97h-32.47c-16.95-3.51-26.06-21.16-30.86-36.79-4.14-13.51-5.08-25.47-5.08-25.47h12.23c1.75,13.77,5.09,24.2,8.87,32.05c8.48,17.7,19.23,22.27,19.23,22.27h28.08c1.09,0,2.09.44,2.81,1.16.74.72,1.17,1.72,1.17,2.81" fill="#18325b" stroke-width="0"/><g style="mix-blend-mode:multiply" opacity="0.35"><g clip-path="url(#eJArGCsFEY425)"><g><path d="M191.53,680.91l-16.02-6.58c-4.14-13.51-5.08-25.46-5.08-25.46h12.23c1.75,13.77,5.09,24.2,8.87,32.05" fill="#82acdb" stroke-width="0"/></g><clipPath id="eJArGCsFEY425"><rect width="21.09" height="32.05" rx="0" ry="0" transform="translate(170.43 648.86)" fill="none" stroke-width="0"/></clipPath></g></g></g><path d="M406.12,817.25h-42.17c0,0-2.35-7.51,2.75-16.81c0,0,3.39,2.72,13.56.88c0,0,4.24,3.6,7.17,5.01c2.94,1.42,19.82,4.74,18.68,10.92h.01Z" fill="#181b29" stroke-width="0"/><path d="M260.4,782.48c0,0-1.98,3.26-4.3,4.65s-6.22,5.02-7.85,11.07c0,0,1.07,2.7,6.29,6.53c1.96,1.44,9.18,11.18,12.11,12.36h19.48c0,0,1.52-6.95-8.41-9.28-5.48-4.23-7.18-12.92-7.18-12.92l2.88-7.74-13.01-4.68-.01.01Z" fill="#181b29" stroke-width="0"/><path d="M265.14,650.07v0c.58-5.78,1.71-8.71,1.71-8.71s73.96,13.94,93.63,20.55c9.77,3.28,17.23,9.31,18.15,18.13h.05c.1.91,2.48,89,2.82,121.06-8.06,1.99-13.9,1.8-16.66,1.49-2.24-13.05-9-41.53-11.9-55.06-3.43-16.02-7.78-35.14-8.61-48.34-29.9-2.6-69.37-7-74.11-9.39-7.81-3.94-10.16-17.89-5.07-39.74l-.01.01Z" transform="translate(.000001 0)" fill="#00a6b3" stroke-width="0"/><path d="M311.72,661.92c-10.95-2.48-23.38-5.23-33.67-7.52l-27.74-6.32-30.52-9.97c0,0-.27,2.14-.85,7.91c0,0-10.86,35.71,6.36,44.93c13.37,7.16,40.65,8.67,66.25,9.65l38.83-23.78c-2.32-7.47-11.89-13.36-18.65-14.89l-.01-.01Z" fill="#41c5e3" stroke-width="0"/><path d="M270.18,741.37c-3.46,11.37-11.05,34.82-14.92,45.48c1.49,1.76,6.4,5.71,16.08,7.88c14.11-27.8,40.4-72.89,49.51-90.07v0c0,0,7.42-13.32,7.42-13.32c2.82-4.92,3.34-9.93,2.09-14.53l-42.55,16.72c-8.12,13.12-13.02,32.71-17.63,47.84Z" fill="#41c5e3" stroke-width="0"/><path d="M289.94,616.46l30.94-6.2c-3.71-16.14-19.16-62.95-23.16-70.1-.09-.17-.19-.35-.3-.53-.09-.17-.2-.36-.31-.53-2.14-3.55-5.23-6.54-8.65-9-.35-.25-.67-.49-1.03-.74-9.86-6.67-22-9.33-23.03-9.55-.05-.02-.06-.02-.06-.02-3.12-.2-6.51-.26-10.21-.14-6.26.17-16.4,1.71-25.43,4.16c0,0-.06.02-.11.03-.88.28-6.75,2.47-12.83,9-2.05,2.14-4.13,4.81-6.01,8.06.42,10.11,2.61,28.31,3.85,44.05.2,2.38,3.77,15.02,3.91,17.28.66,10.82,2.23,18.39.19,34.76-.51,4.09-.76,6.62-.76,8.25c0,1.14,1.44,2.32,2.04,2.65c6.21,3.58,30.4,4.11,42.56,4.11c10.8,0,27.03-1.72,29.07-4.44c1.88-2.51.15-6.12-.74-11.13-3.98-22.58-2.57-34.36-2.32-50.66c0-.41.02-1.55.02-1.55h.01l2.36,32.25v-.01Z" fill="#fff" stroke-width="0"/><path d="M259.32,534.17c-17.56,2.08-21.61-11.62-18.7-12.98c1.91-.3,2.5-1.82,2.77-2.82c2.54-9.86-.63-25.51-.63-25.51s12.51,9.89,18.38,14.53c1.82,1.45,2.99,2.39,2.99,2.39-.04.31-.83,3.94-.28,6.67.06.36.16.7.28,1.02.2.53.2,2.33.2,2.33l.02-.02c1.21,1.52,6.26,13.02-5.03,14.39Z" fill="#e96543" stroke-width="0"/><path d="M233.39,555.72c0,0-3.45,20.69-5.93,30.08c0,0-1.61.59-7.63.52l13.56-30.6Z" fill="#e3e6ed" stroke-width="0"/><path d="M225.08,571.08c0,0-.17,1.16-.5,3.1-.58,3.4-1.6,9.22-2.9,15.35-.88,4.13-1.88,8.4-2.94,12.19h-24.15c0-.06.02-.12.02-.19c0-.09,0-.17.03-.28.35-3.68.82-7.96,1.35-12.32.03-.25.04-.39.04-.39.41-3.38.83-6.82,1.25-10.06.2-1.69.41-3.32.61-4.87.97-7.47,1.74-13.02,1.74-13.02l25.45,10.49Z" fill="#f58765" stroke-width="0"/><path d="M197.28,578.48c.48.39,10.38,8.43,24.4,11.05c1.3-6.14,2.31-11.96,2.89-15.35-.53-.8-.97-1.31-1.16-1.41-1.3-.66-15.52-4.3-15.52-4.3l-10.01,5.15c-.2,1.55-.4,3.18-.61,4.87l.01-.01Z" fill="#e96543" stroke-width="0"/><path d="M202.87,547.94c3.98-8.94,7.1-13.17,8.8-14.97c5.37-5.67,12.09-7.39,12.09-7.39c2.73-1.1,4.81-1.73,4.81-1.73s8.14,5.87,5.28,28.98c-1.25,10.05-8.78,30.73-8.78,30.73-5.21.87-12.95-1.04-18.74-3.14-7.43-2.69-11.76-6.51-11.76-6.51s3.86-16.01,8.29-25.97h.01Z" fill="#fff" stroke-width="0"/><path d="M293.74,606.94c0,0,5.41,9.86,13.63,11.03s39.39.2,39.39.2l3.4-9.33-37.56-9.71-18.86,7.8v.01Z" fill="#e69290" stroke-width="0"/><path d="M307.96,610.42c-.87-.14-39.43-4.88-41.19-4.75s-4.51-.33-4.51-.33l-47.07-6.78-20.6,3.16c0,0-2.26,15.04,5.96,16.21s95.59,4.03,95.59,4.03" fill="#f58765" stroke-width="0"/><path d="M272.96,523.85c0,0,12.3,36.06,14.59,61.92s2.87,31.75,2.87,31.75l34.99-10.03c0,0-10.02-68.74-36.68-83.64c0,0-11.53-5.74-15.77,0Z" fill="#fff" stroke-width="0"/><g><path d="M297.31,623.88h-43.03c0-1.89,1.53-3.43,3.43-3.43h39.61v3.43h-.01Z" fill="#1c478a" stroke-width="0"/><polygon points="297.19,577.02 363.72,577.02 347.76,623.88 280.79,623.88 297.19,577.02" fill="#fff" stroke-width="0"/><polygon points="364.69,577.02 348.74,623.88 281.78,623.88 298.16,577.02 364.69,577.02" fill="#372c40" stroke-width="0"/><path d="M328.83,600.02c-.41,1.79-2.2,3.24-3.99,3.24s-2.91-1.46-2.49-3.24c.41-1.79,2.2-3.24,3.99-3.24s2.91,1.45,2.49,3.24Z" fill="#fff" stroke-width="0"/></g><path d="M267.45,489.38c-.44,2.65.51,5.36,1.96,7.62c1.02,1.6,2.21-.23,4.08-.57c2.89-.53,3.2-4.36,3.35-12.65c1.34-3.52.96-8.69.63-9.2-1.2-1.86-4.04-2.41-6.23-2.17" fill="#030303" stroke-width="0"/><path d="M244.83,508.82c1.22,1.14,3.18,2.27,5.46,3.3c5.06,2.27,11.72,4,15.65,3.85c3.78-.15,6.43-6.83,8.64-14.2.32-1.08.59-2.21.79-3.36c1.87-10.57-1.24-23.09-5.82-27.75-4.56-4.65-10.3-7.88-16.95-8.62-10.11-1.12-12.95,9.46-13.5,17.47-.61,8.82-1.34,22.81,5.73,29.31" fill="#f58765" stroke-width="0"/><path d="M248.19,474.57c1.54,1.48,2.1,3.69,2.41,5.8.46,3.18.48,6.53-.76,9.49-.35.84-.33,4.87-.99,4.7-.21-.05-.44-3.15-1.12-4.78-1.06-2.52-5.03-3.18-6.63-1.4-2.57,2.84-.67,5.87.41,7.76.66,1.14,1.64,2.4,1.9,3.65.33,1.59.87,7.45-.07,8.91-.78,1.22-2.18-4.24-3.06-5.27-6.56-7.64-13.93-27.87-4.27-33.2c1.47-.81,6.16-1.56,7.65-.81" fill="#030303" stroke-width="0"/><path d="M234.47,522.4c0,0-36.47-7.73-43.36,48.62s6.24,53.76,23.42,54.41c17.18.64,63.25-3.27,63.25-3.27l.52-18.9-45.36-6.49c0,0,.31-44.82,3.57-53.61c3.25-8.78-2.04-20.76-2.04-20.76Z" fill="#fff" stroke-width="0"/><path d="M234.66,652.25h-65.23c-2.88,0-5.21-2.33-5.21-5.21s2.33-5.21,5.21-5.21h65.23c2.88,0,5.22,2.33,5.22,5.21s-2.34,5.21-5.22,5.21" fill="#18325b" stroke-width="0"/><path d="M237.25,525.11c1.23-2.39,2.37-4.34,3.89-6.56c3.33,2.9,16.11,7.87,19.34,10.21-1.11,3.41-.49,11.14-1.59,14.55-6.1-3.83-17.54-12.87-21.64-18.21v.01Z" fill="#ddd" stroke-width="0"/><path d="M264.39,519.81l-3.92,8.96l4.81,13.62c0,0,1.72-3.5,6.06-16.53l-6.95-6.05Z" fill="#ddd" stroke-width="0"/><path d="M255.74,540.21c0,0-.77,4.72,5.36,18.08c3.06,6.67,4.81-18.08,4.81-18.08l-5.62-11.18-4.55,11.18Z" fill="#939596" stroke-width="0"/><path d="M241.13,477.4c0,0,9.43,3.13,18.55-1.3c9.11-4.43,8.43,3.26,11.18,7.81c0,0,.41-4.17-.9-8.72-1.3-4.56,3.26,10.43,8.33,13.81c0,0-2.86-8.34-1.82-13.81s-1.95-19.27-21.09-17.97-18.48,14.58-14.25,20.18Z" fill="#030303" stroke-width="0"/></g><g><path d="M497.55,626.57v5.19c0,1.82-1.25,3.3-2.77,3.3h-402.09c-1.53,0-2.77-1.48-2.77-3.3v-5.19c0-1.81,1.25-3.3,2.77-3.3h402.1c1.53,0,2.77,1.48,2.77,3.3h-.01Z" fill="#bfbfbf" stroke-width="0"/><path d="M497.55,626.57v5.19c0,1.82-1.15,3.3-2.55,3.3h-319.21c-1.4,0-2.55-1.48-2.55-3.3v-5.19c0-1.81,1.15-3.3,2.55-3.3h319.21c1.4,0,2.55,1.48,2.55,3.3Z" fill="#d8d8d8" stroke-width="0"/><rect width="281.83" height="195.83" rx="0" ry="0" transform="translate(126.5 635.06)" fill="#bfbfbf" stroke-width="0"/><rect width="281.82" height="195.83" rx="0" ry="0" transform="translate(205.48 635.06)" fill="#ededeb" stroke-width="0"/><g><path d="M480.09,820.08h-119.92v-179.49h119.92v179.49Zm-118.63-1.29h117.33v-176.9h-117.33v176.9Z" fill="#fff" stroke-width="0"/><rect width="118.63" height="1.29" rx="0" ry="0" transform="translate(360.81 699.97)" fill="#fff" stroke-width="0"/><rect width="118.63" height="1.3" rx="0" ry="0" transform="translate(360.81 760.5)" fill="#fff" stroke-width="0"/></g></g><g id="eJArGCsFEY464_to" transform="translate(389.965027,338.069977)"><g transform="translate(-389.965027,-338.069977)"><path d="M486.79,273.28v129.97c0,5.56-4.51,10.08-10.08,10.08h-172.72c-5.99,0-10.85-4.86-10.85-10.85v-133.69c0-3.3,2.68-5.98,5.98-5.98h177.19c5.79,0,10.48,4.69,10.48,10.48v-.01Z" fill="#fff" stroke-width="0"/><g><g><rect width="6.01" height="6.01" rx="0" ry="0" transform="translate(351.98 387.27)" fill="#54b9a7" stroke-width="0"/><rect width="65.78" height="1.78" rx="0" ry="0" transform="translate(362.16 387.27)" fill="#455b64" stroke-width="0"/><rect width="42.51" height="1.77" rx="0" ry="0" transform="translate(362.16 391.5)" fill="#455b64" stroke-width="0"/></g><g><path d="M468.35,375.51h-149.83c-.25,0-.45-.2-.45-.45v-80.9c0-.25.2-.45.45-.45s.45.2.45.45v80.45h149.38c.25,0,.45.2.45.45s-.2.45-.45.45Z" fill="#263238" stroke-width="0"/><path d="M345.02,375.51c-.25,0-.45-.2-.45-.45v-81.78c0-.25.2-.45.45-.45s.45.2.45.45v81.78c0,.25-.2.45-.45.45Z" fill="#263238" stroke-width="0"/><path d="M371.3,375.51c-.25,0-.45-.2-.45-.45v-81.78c0-.25.2-.45.45-.45s.45.2.45.45v81.78c0,.25-.2.45-.45.45Z" fill="#263238" stroke-width="0"/><path d="M397.32,375.51c-.25,0-.45-.2-.45-.45v-81.78c0-.25.2-.45.45-.45s.45.2.45.45v81.78c0,.25-.2.45-.45.45Z" fill="#263238" stroke-width="0"/><path d="M423.34,375.51c-.25,0-.45-.2-.45-.45v-81.78c0-.25.2-.45.45-.45s.45.2.45.45v81.78c0,.25-.2.45-.45.45Z" fill="#263238" stroke-width="0"/><path d="M448.85,375.51c-.25,0-.45-.2-.45-.45v-81.78c0-.25.2-.45.45-.45s.45.2.45.45v81.78c0,.25-.2.45-.45.45Z" fill="#263238" stroke-width="0"/><path d="M468.35,361.38h-150.25c-.25,0-.45-.2-.45-.45s.2-.45.45-.45h150.25c.25,0,.45.2.45.45s-.2.45-.45.45Z" fill="#263238" stroke-width="0"/><path d="M468.35,347.15h-150.25c-.25,0-.45-.2-.45-.45s.2-.45.45-.45h150.25c.25,0,.45.2.45.45s-.2.45-.45.45Z" fill="#263238" stroke-width="0"/><path d="M468.35,332.2h-150.25c-.25,0-.45-.2-.45-.45s.2-.45.45-.45h150.25c.25,0,.45.2.45.45s-.2.45-.45.45Z" fill="#263238" stroke-width="0"/><path d="M468.35,317.62h-150.25c-.25,0-.45-.2-.45-.45s.2-.45.45-.45h150.25c.25,0,.45.2.45.45s-.2.45-.45.45Z" fill="#263238" stroke-width="0"/><path d="M468.35,303.03h-150.25c-.25,0-.45-.2-.45-.45s.2-.45.45-.45h150.25c.25,0,.45.2.45.45s-.2.45-.45.45Z" fill="#263238" stroke-width="0"/><g><path d="M318.52,350.53c4.59,0,7.33-14.82,13.84-14.82s7.19,10.81,12.67,10.81s5.31-18.99,12.67-18.99s5.65,7.71,13.35,7.71s4.79-17.89,12.84-17.89s4.79,24.65,13.18,24.65c5.31,0,7.36-7.83,13.69-7.83c4.19,0,6.67,3.92,12.15,3.92s6.68-15.06,13.53-15.06s7.63,8.91,12.67,8.91s6.85-14.59,16.09-14.59v57.71h-146.68v-24.53Z" opacity="0.44" fill="#54b9a7" stroke-width="0"/><path d="M318.52,351.24v-1.43c1.39,0,3.31-3.46,4.71-5.99c2.4-4.34,4.89-8.83,9.13-8.83s6.09,3.29,7.88,6.19c1.4,2.27,2.85,4.62,4.79,4.62c1.71,0,3.2-4.56,4.28-7.89c1.78-5.46,3.61-11.1,8.39-11.1c4.26,0,5.94,2.22,7.41,4.17c1.43,1.9,2.67,3.54,5.94,3.54c2.96,0,4.12-4.18,5.24-8.22c1.32-4.75,2.68-9.67,7.6-9.67s6.12,6.19,7.44,12.75c1.07,5.3,2.39,11.9,5.74,11.9c2,0,3.63-1.63,5.36-3.35c2.11-2.1,4.49-4.48,8.34-4.48c2.31,0,4.11.97,5.86,1.91c1.83.99,3.72,2,6.29,2c1.9,0,3.63-3.58,5.03-6.46c2.04-4.23,4.16-8.6,8.5-8.6s6.43,2.84,8.31,5.35c1.37,1.83,2.66,3.56,4.36,3.56c1.45,0,3.09-2.77,4.53-5.22c2.47-4.18,5.55-9.37,11.56-9.37v1.43c-4.63,0-7.3,4.51-9.65,8.49-2.02,3.41-3.61,6.1-6.44,6.1s-4.52-2.1-6.19-4.33c-1.68-2.25-3.42-4.58-6.48-4.58-2.86,0-4.82,4.05-6.55,7.62-1.93,3.99-3.6,7.43-6.98,7.43s-5.55-1.22-7.55-2.3c-1.6-.86-2.99-1.61-4.6-1.61-2.77,0-4.74,1.97-6.65,3.87-1.95,1.95-3.97,3.96-7.05,3.96-5.13,0-6.42-6.38-7.78-13.13-1.03-5.13-2.32-11.52-5.4-11.52s-4.47,4.52-5.58,8.51c-1.34,4.82-2.6,9.38-7.26,9.38s-6.24-2.28-7.77-4.3c-1.38-1.83-2.57-3.4-5.59-3.4s-4.93,5.54-6.38,9.99c-1.64,5.03-2.93,9-6.29,9s-4.94-2.67-6.68-5.49c-1.61-2.62-3.27-5.32-5.99-5.32s-5.26,4.39-7.21,7.91c-2.14,3.86-3.82,6.9-6.63,6.9l.01.01Z" fill="#54b9a7" stroke-width="0"/></g></g></g><g><path d="M298,262.81h180.83c4.39,0,7.96,3.57,7.96,7.96v1.58h-193.65v-4.68c0-2.68,2.18-4.86,4.86-4.86Z" fill="#263238" stroke-width="0"/><g><path d="M302.15,267.58c0,1-.81,1.81-1.81,1.81s-1.81-.81-1.81-1.81.81-1.81,1.81-1.81s1.81.81,1.81,1.81Z" fill="#c7c7c6" stroke-width="0"/><path d="M309.55,267.58c0,1-.81,1.81-1.81,1.81s-1.81-.81-1.81-1.81.81-1.81,1.81-1.81s1.81.81,1.81,1.81Z" fill="#fff" stroke-width="0"/><path d="M316.94,267.58c0,1-.81,1.81-1.81,1.81s-1.81-.81-1.81-1.81.81-1.81,1.81-1.81s1.81.81,1.81,1.81Z" fill="#ffc829" stroke-width="0"/></g></g></g></g><g id="eJArGCsFEY492_tr" transform="translate(646.174988,602.240005) rotate(0)"><g transform="translate(-646.174988,-602.240005)"><path d="M782.67,833.89h-272.99c0-6.88,4.12-12.45,9.19-12.45h254.61c5.08,0,9.19,5.58,9.19,12.45v0Z" fill="#372c40" stroke-width="0"/><path d="M551.55,399.24v100.88c0,47.7,33.94,87.46,78.99,96.47.51.1.99.28,1.43.52c2.31.61,3.95,2.71,3.95,5.14s-1.64,4.53-3.95,5.14c-.44.24-.92.41-1.43.52-45.05,9.01-78.99,48.77-78.99,96.47v100.88c0,0,196.78,0,196.78,0v-100.88c0-47.7-33.94-87.46-78.99-96.47-.51-.1-.99-.28-1.43-.52-2.31-.61-3.95-2.71-3.95-5.14s1.64-4.53,3.95-5.14c.44-.24.92-.41,1.43-.52c45.05-9.01,78.99-48.77,78.99-96.47v-100.88c0,0-196.78,0-196.78,0Z" fill="#fff" stroke-width="0"/><path d="M782.67,370.59h-272.99c0,6.88,4.12,12.45,9.19,12.45h254.61c5.08,0,9.19-5.58,9.19-12.45v0Z" fill="#372c40" stroke-width="0"/><g><path d="M632.98,584.37c1.21.24,2.4.61,3.54,1.11c7.11,2.5,11.86,9.19,11.86,16.76s0,62.27,0,62.27h3.12c0,0,0-54.7,0-62.27s4.75-14.27,11.86-16.76c1.14-.49,2.33-.87,3.54-1.11c39.97-7.99,68.98-43.43,68.98-84.26-54.81,23.83-117.06,23.83-171.87,0c0,40.83,29.01,76.27,68.98,84.26h-.01Z" fill="#372c40" stroke-width="0"/><path d="M717.14,730.66c-.35-.18-.7-.35-1.05-.51l-49.48-23.31c-10.57-4.98-22.8-4.98-33.37,0l-49.48,23.31c-.35.17-.7.34-1.05.51-11.61,5.9-18.72,18.03-18.72,31.06v43.53c0,0,24.29,0,24.29,0h123.3c0,0,24.29,0,24.29,0v-43.53c0-13.02-7.12-25.15-18.72-31.06h-.01Z" fill="#372c40" stroke-width="0"/></g><path d="M519.33,383.05h254.61v16.58c0,3.22-2.62,5.84-5.84,5.84h-242.93c-3.22,0-5.84-2.62-5.84-5.84v-16.58v0Z" fill="#54b9a7" stroke-width="0"/><path d="M524.71,799.02h242.93c3.22,0,5.84,2.62,5.84,5.84v16.58h-254.61v-16.58c0-3.22,2.62-5.84,5.84-5.84Z" fill="#54b9a7" stroke-width="0"/></g></g><g id="eJArGCsFEY4101_to" transform="translate(781.155792,345.755005)"><g transform="translate(-781.155792,-345.755005)"><g><rect width="127.27" height="174.73" rx="7.21" ry="7.21" transform="translate(698.83 258.39)" fill="#ffd56c" stroke-width="0"/><rect width="104.91" height="73.95" rx="4.13" ry="4.13" transform="translate(712.59 270.09)" fill="#f6f7f8" stroke-width="0"/><rect width="37.49" height="28.55" rx="4.13" ry="4.13" transform="translate(712.59 356.42)" fill="#f6f7f8" stroke-width="0"/><circle r="11.26" transform="translate(724.03 410.85)" fill="none" stroke="#f6f7f8" stroke-width="0.57" stroke-miterlimit="10"/><circle r="11.26" transform="translate(755.33 410.85)" fill="#372c40" stroke-width="0"/><circle r="11.26" transform="translate(784.91 410.85)" fill="#372c40" stroke-width="0"/><rect width="68.1" height="4.82" rx="0" ry="0" transform="translate(737.14 284.62)" fill="#f0d7bf" stroke-width="0"/><rect width="68.1" height="4.82" rx="0" ry="0" transform="translate(737.14 303.09)" fill="#f0d7bf" stroke-width="0"/><rect width="68.1" height="4.82" rx="0" ry="0" transform="translate(737.14 321.19)" fill="#f0d7bf" stroke-width="0"/><line x1="719.22" y1="400.66" x2="724.03" y2="410.85" fill="none" stroke="#3663af" stroke-width="0.57" stroke-miterlimit="10"/><line x1="755.24" y1="410.77" x2="755.24" y2="399.42" fill="none" stroke="#3663af" stroke-width="0.57" stroke-miterlimit="10"/><line x1="784.91" y1="410.85" x2="795.29" y2="415.24" fill="none" stroke="#3663af" stroke-width="0.57" stroke-miterlimit="10"/><rect width="11.45" height="11.45" rx="1.83" ry="1.83" transform="translate(718.96 280.91)" fill="#f0d7bf" stroke-width="0"/><rect width="11.45" height="11.45" rx="1.83" ry="1.83" transform="translate(718.96 298.96)" fill="#f0d7bf" stroke-width="0"/><rect width="11.45" height="11.45" rx="1.83" ry="1.83" transform="translate(718.96 316.65)" fill="#f0d7bf" stroke-width="0"/></g><g><path d="M807.9,332.69l37.21.48c10.23.13,18.5,8.61,18.37,18.85l-.33,25.66c-.13,10.23-8.61,18.5-18.85,18.37l-11.16-.14-7.61,12.8-7.28-13-11.16-.14c-10.23-.13-18.5-8.61-18.37-18.85l.33-25.66c.13-10.23,8.61-18.5,18.85-18.37Z" fill="#fff" stroke-width="0"/><g><path d="M841.11,365.96c-.03,2.27,1.79,4.14,4.06,4.17s4.14-1.79,4.17-4.06-1.79-4.14-4.06-4.17-4.14,1.79-4.17,4.06Z" fill="#372c40" stroke-width="0"/><path d="M822.35,365.72c-.03,2.27,1.79,4.14,4.06,4.17s4.14-1.79,4.17-4.06-1.79-4.14-4.06-4.17-4.14,1.79-4.17,4.06Z" fill="#372c40" stroke-width="0"/><path d="M803.6,365.47c-.03,2.27,1.79,4.14,4.06,4.17s4.14-1.79,4.17-4.06-1.79-4.14-4.06-4.17-4.14,1.79-4.17,4.06Z" fill="#372c40" stroke-width="0"/></g></g></g></g><g id="eJArGCsFEY4124_to" transform="translate(803.589966,526.130005)"><g transform="translate(-803.589966,-526.130005)"><rect width="212.98" height="147.98" rx="8.73" ry="8.73" transform="translate(697.1 452.14)" fill="#54b9a7" stroke-width="0"/><g><circle r="53.59" transform="translate(765.25 526.13)" fill="#fff" stroke-width="0"/><path d="M817.86,515.95c-4.76-24.73-26.5-43.42-52.62-43.42v53.59l52.62-10.18v.01Z" fill="#ededeb" stroke-width="0"/><path d="M818.84,526.13c0-3.48-.34-6.88-.98-10.18l-52.62,10.18l5.28,53.33c27.12-2.65,48.32-25.51,48.32-53.33Z" fill="#ffd56c" stroke-width="0"/><path d="M765.25,526.13L714.67,508.4c-1.95,5.55-3.02,11.51-3.02,17.73c0,29.6,23.99,53.59,53.59,53.59c1.78,0,3.54-.09,5.28-.26l-5.28-53.33h.01Z" fill="#372c40" stroke-width="0"/><path d="M714.67,508.4l50.58,17.73-41.44-33.99c-3.94,4.79-7.05,10.29-9.14,16.26Z" fill="#4553a4" stroke-width="0"/></g><g><path d="M837.89,490.14c0,3.22-2.61,5.83-5.83,5.83s-5.83-2.61-5.83-5.83s2.61-5.83,5.83-5.83s5.83,2.61,5.83,5.83Z" fill="#ededeb" stroke-width="0"/><path d="M886.67,491.19h-44.99c-.58,0-1.05-.47-1.05-1.05s.47-1.05,1.05-1.05h44.99c.58,0,1.05.47,1.05,1.05s-.47,1.05-1.05,1.05Z" fill="#fff" stroke-width="0"/><path d="M837.89,508.13c0,3.22-2.61,5.83-5.83,5.83s-5.83-2.61-5.83-5.83s2.61-5.83,5.83-5.83s5.83,2.61,5.83,5.83Z" fill="#4553a4" stroke-width="0"/><path d="M886.67,509.18h-44.99c-.58,0-1.05-.47-1.05-1.05s.47-1.05,1.05-1.05h44.99c.58,0,1.05.47,1.05,1.05s-.47,1.05-1.05,1.05Z" fill="#fff" stroke-width="0"/><path d="M837.89,526.13c0,3.22-2.61,5.83-5.83,5.83s-5.83-2.61-5.83-5.83s2.61-5.83,5.83-5.83s5.83,2.61,5.83,5.83Z" fill="#372c40" stroke-width="0"/><path d="M886.67,527.18h-44.99c-.58,0-1.05-.47-1.05-1.05s.47-1.05,1.05-1.05h44.99c.58,0,1.05.47,1.05,1.05s-.47,1.05-1.05,1.05Z" fill="#fff" stroke-width="0"/><path d="M837.89,544.12c0,3.22-2.61,5.83-5.83,5.83s-5.83-2.61-5.83-5.83s2.61-5.83,5.83-5.83s5.83,2.61,5.83,5.83Z" fill="#ffd56c" stroke-width="0"/><path d="M886.67,545.17h-44.99c-.58,0-1.05-.47-1.05-1.05s.47-1.05,1.05-1.05h44.99c.58,0,1.05.47,1.05,1.05s-.47,1.05-1.05,1.05Z" fill="#fff" stroke-width="0"/><path d="M837.89,562.11c0,3.22-2.61,5.83-5.83,5.83s-5.83-2.61-5.83-5.83s2.61-5.83,5.83-5.83s5.83,2.61,5.83,5.83Z" fill="#fff" stroke-width="0"/><path d="M886.67,563.17h-44.99c-.58,0-1.05-.47-1.05-1.05s.47-1.05,1.05-1.05h44.99c.58,0,1.05.47,1.05,1.05s-.47,1.05-1.05,1.05Z" fill="#fff" stroke-width="0"/></g></g></g></g></g></svg>
