<?xml version="1.0" encoding="UTF-8"?>
<svg id="Layer_1" data-name="Layer 1" xmlns="http://www.w3.org/2000/svg" viewBox="0 0 1000 1000">
  <defs>
    <style>
      .cls-1 {
        fill: #4553a4;
      }

      .cls-1, .cls-2, .cls-3, .cls-4, .cls-5, .cls-6, .cls-7, .cls-8, .cls-9, .cls-10, .cls-11, .cls-12, .cls-13, .cls-14, .cls-15 {
        stroke-width: 0px;
      }

      .cls-2 {
        fill: #0d121c;
      }

      .cls-3 {
        fill: #495171;
      }

      .cls-4 {
        fill: #f58765;
      }

      .cls-5 {
        fill: #565656;
      }

      .cls-6 {
        fill: #54b9a7;
      }

      .cls-7 {
        fill: #ffd56c;
      }

      .cls-8 {
        fill: #f47d72;
      }

      .cls-9 {
        fill: #372c40;
      }

      .cls-10 {
        fill: #ddd;
      }

      .cls-11 {
        fill: #fff;
      }

      .cls-12 {
        fill: #030303;
      }

      .cls-13 {
        fill: #e7ecf7;
      }

      .cls-14 {
        fill: #f0d7bf;
      }

      .cls-15 {
        fill: #ededeb;
      }
    </style>
  </defs>
  <path class="cls-14" d="M782.55,313.91c-22.11-5.94-45.64-3.43-66.19,6.67-35.61,17.5-113.48,46.22-120.76-32.91-8.76-95.16-206.92-123-280.97-50.32-90.08,88.41-3.67,151.13-76.85,189.78-73.18,38.66-132.64,141.25-46.4,185.56,55.84,28.69,104.63,22.69,108.68,51.67,7.63,54.68,6.07,87.72,56.23,102.91,94.86,28.73,119.63-24.6,178.73-33.9,59.1-9.3,277.14,71.42,349.95-58.61,43.89-78.38-111.51-151.39-67.41-194.1,46.93-45.46,42.73-145.87-35-166.77Z"/>
  <g>
    <rect class="cls-13" x="521.31" y="417.42" width="236.71" height="223.18" rx="12.39" ry="12.39" transform="translate(395.04 -264.2) rotate(33.27)"/>
    <g>
      <g>
        <rect class="cls-6" x="582.52" y="503.22" width="19.26" height="44.73" transform="translate(385.37 -238.69) rotate(33.27)"/>
        <rect class="cls-6" x="613.41" y="499.45" width="19.26" height="66.63" transform="translate(394.38 -254.47) rotate(33.27)"/>
        <g>
          <path class="cls-3" d="M627.26,492.01c-9.07,0-18.13-.68-27.02-2.06-.57-.09-.96-.62-.87-1.19.09-.57.63-.96,1.19-.87,23.33,3.61,47.77,2.41,70.69-3.48.56-.14,1.13.19,1.27.75.14.56-.19,1.13-.75,1.27-14.45,3.71-29.51,5.59-44.51,5.59Z"/>
          <polygon class="cls-3" points="678.48 483.47 669.73 490.15 670.97 485.5 667.55 482.11 678.48 483.47"/>
        </g>
        <rect class="cls-6" x="646.1" y="489.71" width="19.26" height="95.03" transform="translate(402.18 -271.66) rotate(33.27)"/>
        <rect class="cls-6" x="675.91" y="489.58" width="19.26" height="112.97" transform="translate(411.91 -286.57) rotate(33.27)"/>
        <polygon class="cls-3" points="669.28 604.37 560.82 533.21 613.61 452.76 615.36 453.9 563.72 532.61 670.42 602.62 669.28 604.37"/>
      </g>
      <g>
        <rect class="cls-11" x="544.24" y="575.1" width="129.21" height="6.51" transform="translate(417.05 -239.21) rotate(33.27)"/>
        <rect class="cls-11" x="676.12" y="431.75" width="6.51" height="77.65" transform="translate(-86.76 780.46) rotate(-56.73)"/>
        <rect class="cls-11" x="621.01" y="457.81" width="129.21" height="6.51" transform="translate(365.3 -300.54) rotate(33.27)"/>
        <rect class="cls-11" x="537.7" y="585.07" width="129.21" height="6.51" transform="translate(421.45 -233.98) rotate(33.27)"/>
        <rect class="cls-11" x="531.16" y="595.04" width="129.21" height="6.51" transform="translate(425.85 -228.76) rotate(33.27)"/>
      </g>
    </g>
    <g>
      <path class="cls-11" d="M372.21,667.58l204.93-96.63c1.56-.73,2.22-2.59,1.49-4.15l-124.8-264.67c-.73-1.56-2.59-2.22-4.15-1.49l-152.4,71.86c-.72.34-1.29.95-1.58,1.69l-29,74.66c-.31.8-.28,1.69.09,2.46l101.27,214.77c.73,1.56,2.59,2.22,4.15,1.49Z"/>
      <path class="cls-13" d="M293.52,379.8l-24.48,63.02c-1.02,2.63,1.69,5.15,4.24,3.95l44.34-20.91c1.56-.73,2.22-2.59,1.49-4.15l-19.86-42.12c-1.17-2.48-4.73-2.35-5.73.2Z"/>
      <rect class="cls-13" x="331.73" y="381.59" width="129.44" height="7.67" rx="2.98" ry="2.98" transform="translate(-126.51 205.89) rotate(-25.24)"/>
      <rect class="cls-13" x="339.99" y="399.11" width="129.44" height="7.67" rx="2.98" ry="2.98" transform="translate(-133.2 211.08) rotate(-25.24)"/>
      <rect class="cls-13" x="348.25" y="416.63" width="129.44" height="7.68" rx="2.98" ry="2.98" transform="translate(-139.88 216.28) rotate(-25.24)"/>
      <rect class="cls-13" x="299.17" y="446.99" width="189.65" height="7.67" rx="2.98" ry="2.98" transform="translate(-154.64 211.09) rotate(-25.24)"/>
      <rect class="cls-13" x="307.43" y="464.51" width="189.65" height="7.67" rx="2.98" ry="2.98" transform="translate(-161.32 216.28) rotate(-25.24)"/>
      <rect class="cls-13" x="315.69" y="482.02" width="189.65" height="7.67" rx="2.98" ry="2.98" transform="translate(-168.01 221.48) rotate(-25.24)"/>
      <rect class="cls-13" x="323.95" y="499.54" width="189.65" height="7.67" rx="2.98" ry="2.98" transform="translate(-174.69 226.68) rotate(-25.24)"/>
      <rect class="cls-13" x="332.21" y="517.06" width="189.65" height="7.67" rx="2.98" ry="2.98" transform="translate(-181.37 231.87) rotate(-25.24)"/>
      <rect class="cls-13" x="340.48" y="534.58" width="189.65" height="7.67" rx="2.98" ry="2.98" transform="translate(-188.05 237.07) rotate(-25.24)"/>
      <rect class="cls-13" x="348.74" y="552.1" width="189.65" height="7.67" rx="2.98" ry="2.98" transform="translate(-194.74 242.26) rotate(-25.24)"/>
      <rect class="cls-13" x="357" y="569.62" width="189.65" height="7.67" rx="2.98" ry="2.98" transform="translate(-201.42 247.46) rotate(-25.24)"/>
      <rect class="cls-13" x="365.26" y="587.14" width="189.65" height="7.67" rx="2.98" ry="2.98" transform="translate(-208.1 252.66) rotate(-25.24)"/>
    </g>
    <g>
      <rect class="cls-6" x="364.88" y="460.48" width="274.78" height="190.91" rx="8.73" ry="8.73"/>
      <g>
        <circle class="cls-11" cx="452.79" cy="555.94" r="69.14"/>
        <path class="cls-15" d="M520.68,542.81c-6.13-31.91-34.19-56.02-67.88-56.02v69.14l67.88-13.13Z"/>
        <path class="cls-7" d="M521.94,555.94c0-4.49-.44-8.88-1.26-13.13l-67.88,13.13,6.81,68.81c34.99-3.42,62.34-32.92,62.34-68.81Z"/>
        <path class="cls-9" d="M452.79,555.94l-65.25-22.87c-2.51,7.16-3.89,14.85-3.89,22.87,0,38.19,30.96,69.14,69.14,69.14,2.3,0,4.57-.12,6.81-.34l-6.81-68.81Z"/>
        <path class="cls-1" d="M387.54,533.07l65.25,22.87-53.46-43.85c-5.08,6.19-9.09,13.27-11.8,20.98Z"/>
      </g>
      <g>
        <path class="cls-15" d="M546.52,509.51c0,4.15-3.37,7.52-7.52,7.52s-7.52-3.37-7.52-7.52,3.37-7.52,7.52-7.52,7.52,3.37,7.52,7.52Z"/>
        <path class="cls-11" d="M609.45,510.87h-58.04c-.75,0-1.36-.61-1.36-1.36s.61-1.36,1.36-1.36h58.04c.75,0,1.36.61,1.36,1.36s-.61,1.36-1.36,1.36Z"/>
        <path class="cls-1" d="M546.52,532.73c0,4.15-3.37,7.52-7.52,7.52s-7.52-3.37-7.52-7.52,3.37-7.52,7.52-7.52,7.52,3.37,7.52,7.52Z"/>
        <path class="cls-11" d="M609.45,534.08h-58.04c-.75,0-1.36-.61-1.36-1.36s.61-1.36,1.36-1.36h58.04c.75,0,1.36.61,1.36,1.36s-.61,1.36-1.36,1.36Z"/>
        <path class="cls-9" d="M546.52,555.94c0,4.15-3.37,7.52-7.52,7.52s-7.52-3.37-7.52-7.52,3.37-7.52,7.52-7.52,7.52,3.37,7.52,7.52Z"/>
        <path class="cls-11" d="M609.45,557.3h-58.04c-.75,0-1.36-.61-1.36-1.36s.61-1.36,1.36-1.36h58.04c.75,0,1.36.61,1.36,1.36s-.61,1.36-1.36,1.36Z"/>
        <path class="cls-7" d="M546.52,579.16c0,4.15-3.37,7.52-7.52,7.52s-7.52-3.37-7.52-7.52,3.37-7.52,7.52-7.52,7.52,3.37,7.52,7.52Z"/>
        <path class="cls-11" d="M609.45,580.51h-58.04c-.75,0-1.36-.61-1.36-1.36s.61-1.36,1.36-1.36h58.04c.75,0,1.36.61,1.36,1.36s-.61,1.36-1.36,1.36Z"/>
        <path class="cls-11" d="M546.52,602.37c0,4.15-3.37,7.52-7.52,7.52s-7.52-3.37-7.52-7.52,3.37-7.52,7.52-7.52,7.52,3.37,7.52,7.52Z"/>
        <path class="cls-11" d="M609.45,603.73h-58.04c-.75,0-1.36-.61-1.36-1.36s.61-1.36,1.36-1.36h58.04c.75,0,1.36.61,1.36,1.36s-.61,1.36-1.36,1.36Z"/>
      </g>
    </g>
  </g>
  <g>
    <path class="cls-11" d="M740.69,721.71c0,32.6-25.22,59.3-57.24,61.67v.17h-350.23c-40.15,0-72.68-32.53-72.68-72.68,0-37.85,28.93-68.98,65.89-72.37,2.09-65.78,56.07-118.49,122.37-118.49,52.78,0,97.77,33.39,114.96,80.2,9.78-4.94,20.8-7.69,32.5-7.69,38.64,0,70.24,30.13,72.54,68.19,3.26-.55,6.62-.82,10.05-.82,34.14,0,61.84,27.69,61.84,61.84Z"/>
    <g>
      <rect class="cls-13" x="329.06" y="811.05" width="334.61" height="23.5" transform="translate(992.72 1645.6) rotate(-180)"/>
      <rect class="cls-6" x="413.84" y="811.05" width="249.82" height="23.5" transform="translate(1077.51 1645.6) rotate(-180)"/>
    </g>
  </g>
  <g>
    <path class="cls-6" d="M571.95,695.17c0-39.62-28.66-74.62-72.43-74.62-39.32,0-71.19,32.12-71.19,71.74,0,39.62,31.87,71.74,71.19,71.74,39.32,0,72.43-29.23,72.43-68.85Z"/>
    <g>
      <path class="cls-11" d="M459.53,732.67h78.53c1.86,0,3.37-1.52,3.37-3.4v-14.55c0-1.88-1.51-3.4-3.37-3.4h0c-1.86,0-3.37,1.52-3.37,3.4v7.76c0,1.88-1.51,3.4-3.37,3.4h-65.05c-1.86,0-3.37-1.52-3.37-3.4v-7.76c0-1.88-1.51-3.4-3.37-3.4h0c-1.86,0-3.37,1.52-3.37,3.4v14.55c0,1.88,1.51,3.4,3.37,3.4Z"/>
      <path class="cls-11" d="M488.23,684.69v-41.23c0-1.57,1.26-2.84,2.82-2.84h14.16c1.55,0,2.82,1.27,2.82,2.84v41.23c0,1.57,1.26,2.84,2.82,2.84h7.13c2.49,0,3.75,3.01,2.02,4.81l-19.71,20.53c-1.12,1.17-2.99,1.15-4.09-.05l-18.84-20.53c-1.67-1.82-.39-4.76,2.07-4.76h5.99c1.55,0,2.82-1.27,2.82-2.84Z"/>
    </g>
    <path class="cls-13" d="M563.31,653.33c-4.74-11.41-13.25-20.42-24.23-25.93-1.56-.78-.19-3.13,1.36-2.35,11.65,5.84,20.46,15.48,25.47,27.55.67,1.61-1.94,2.32-2.6.72h0Z"/>
    <path class="cls-13" d="M425.81,703.1c.42,4.11,1.46,8.06,3.02,11.88.66,1.62-1.95,2.32-2.6.72-1.66-4.06-2.67-8.24-3.12-12.61-.18-1.74,2.52-1.73,2.7,0h0Z"/>
  </g>
  <g>
    <g>
      <g>
        <path class="cls-4" d="M224.28,452.32c-.48.99-2.69,3.07-3.41,3.92-1.85,2.18-8.13,2.46-11,2.65-7.88.52-14.61-3.71-18.79-10.42-1.62-2.6-1.55-2.61-2.34-5.57-.99-3.68-1.91-7.46-1.74-11.27.17-3.81,1.57-7.73,4.51-10.16,1.32-1.09,2.89-1.85,4.49-2.41,5.91-2.12,12.6-1.95,18.4.45l7.71,3.79s7.52,17.9,2.17,29.02Z"/>
        <path class="cls-8" d="M193.54,451.72c4.15,4.75,9.98,8.6,16.33,7.16,2.73-.62,8.4-1.27,10.54-2.28-8.96-2.33-17.92-7.16-26.87-4.88Z"/>
        <path class="cls-4" d="M218.74,477.52c-5.41-9.05-7.88-19.23-7.12-29.28h-20.81c1.23,9.62.01,19.46-3.62,28.68,10.52.2,21.03.41,31.55.6Z"/>
        <path class="cls-12" d="M222.9,424.63c-2.28,1.44-4.36,3.31-5.87,5.56-2.07,3.06-1.75,7.12-2.93,10.62-1.9,5.6-7.31,9.09-12.38,12.14-1.79,1.09-3.68,2.2-5.77,2.29-2.93.12-5.62-1.84-7.14-4.33-1.53-2.49-2.55-5.94-2.99-8.83-.69-4.52-1.85-7.79-2.08-12.35-.15-3.11,1.75-7.33,5.03-10.06,0,0-.02-8.26,10.95-9.16"/>
        <path class="cls-4" d="M216.22,436.5c-.8-.39-1.23-1.27-1.64-2.06-.41-.8-.98-1.64-1.85-1.82-.79-.16-1.6.29-2.08.92-.49.64-.7,1.43-.9,2.22-.3,1.23-.54,2.49-.48,3.76.04,1.26.4,2.56,1.21,3.54.8.98,2.09,1.61,3.35,1.43,1.26-.18,2.39-1.26,2.43-2.53l-.04-5.46Z"/>
      </g>
      <path class="cls-11" d="M168.81,549.6c-1.56-1.13-16.12-13.93-17.73-14.96,6.11-8.29,9.82-15.78,17.15-23,4.33-4.24,7.5-10.81,9.67-16.49,2.17-5.66.66-18.46-4.76-21.17-3.6-1.79-8.05-.99-11.51,1.03-3.47,2.03-6.15,5.13-8.75,8.19-11.38,13.33-28.87,36.81-35.77,55.49-1.3,3.47-.04,7.36,3.07,9.4,5.09,3.35,48.77,23.72,53.42,25.62,7.88-4.73-.85-11.71-4.79-24.12Z"/>
      <g>
        <g>
          <path class="cls-2" d="M171.32,817.1c-2.55,5.54-3.49,11.8-2.7,17.84,10.95-.56,21.89-1.47,32.78-2.71-.29-2.97-.73-6.25-2.98-8.22-1.59-1.39-3.78-1.85-5.53-3.02-1.85-1.24-3.12-3.29-3.42-5.5-4.67.78-13.61,2.92-18.16,1.61Z"/>
          <path class="cls-11" d="M168.18,836.56c9.47,1.01,33.61-2.4,33.61-2.4l.33-2.83c-2.12.58-33.67,2.71-33.67,2.71l-.27,2.52Z"/>
        </g>
        <g>
          <path class="cls-12" d="M179.84,575.95c-.76.43-1.27,1.19-1.73,1.93-9.07,15.05-4.46,34.13-2.44,51.6,1.22,10.44,1.39,20.99,1.38,31.52-.01,11.42.47,22.95-.86,34.47-1.25,10.91-4.29,21.79-4.92,32.59-1.58,26.88-.21,53.32-2.45,80.15,8.96-.48,18,.28,26.75,2.25,1.34-39.51,11.16-74.1,17.78-113.87,4.64-27.86,4.54-57.99,5.7-92.06.35-10.28-1.16-20.59-.08-30.82-11.73,2.38-23.83,3.02-35.76,1.89-1.15-.11-2.37-.22-3.37.34Z"/>
          <path class="cls-5" d="M218.97,573.71c-5.84,1.19-11.77,1.94-17.72,2.25-3.65,30.26-4.57,59.47-.41,89.93,4.55,31.84-4.55,62.16-9.1,95.5-1.51,6.07-3.03,12.14-3.03,18.2-1.11,9.95-1.8,19.71-1.81,29.33,2.91.39,5.8.89,8.67,1.53,1.34-39.51,11.16-74.1,17.78-113.87,4.64-27.86,4.54-57.99,5.7-92.06.35-10.28-1.16-20.59-.08-30.82Z"/>
          <path class="cls-12" d="M164.79,807.76c-.12-.57-.2-1.18.08-1.7.35-.65,1.17-.88,1.89-1.03,9.77-2.05,20.25-.46,29,4.35.82.45,1.22,1.4,1.03,2.31-.51,2.58-.85,5.2-1.01,7.84-.06.9-.87,1.56-1.76,1.38-8.25-1.53-16.74-2.88-24.86-1.19-1.21.25-2.24-.93-1.83-2.11.36-1.04.8-2.08.6-3.14-.18-.9-.79-1.64-1.3-2.39-.88-1.31-1.52-2.79-1.85-4.33Z"/>
        </g>
      </g>
      <g>
        <g>
          <path class="cls-2" d="M267.89,826.88c2.92.61,5.94,1.06,8.53,2.55,2.59,1.48,4.68,4.3,4.28,7.26-14.69.28-29.38.56-44.07.84-1.61-2.83-1.35-6.34-.72-9.53.64-3.19,1.61-6.41,1.24-9.65,4.98-.14,9.96-.28,14.94-.42.56,3.67,4.51,5.71,8.05,6.87,2.53.83,5.12,1.53,7.75,2.07Z"/>
          <polygon class="cls-11" points="235.09 835.54 235.31 839.34 281.04 837.95 281.19 835.79 235.09 835.54"/>
        </g>
        <g>
          <path class="cls-12" d="M198.81,574.94c-2.33,13.46-4.97,18.25-4.05,31.65,1.33,19.33,12.4,30.09,14.66,41.12,5.92,28.95,11.31,46.2,13.13,68.22,2.81,33.66.92,64.93,9.19,98.28,8.16-.31,16.32-.18,24.47.4,1.74-37.1,1.26-70.65-.29-107.77-.57-13.71-.91-22.57-1.51-40.93-1.02-30.83-10.02-63.88-13.72-94.04-11.91,2.56-29.78,4.6-41.87,3.08Z"/>
          <path class="cls-5" d="M256.16,707.02c-.57-13.7-.15-22.76-.76-41.13-1-30.83-10.2-63.82-13.89-93.99-1.19.25-9.31,1.02-10.61,1.26,20.72,79.34,22.37,160.19,19.73,241.11,1.86.09,4.19.43,6.05.56,1.74-37.11,1.04-70.71-.52-107.82Z"/>
          <path class="cls-12" d="M230.66,822.42c1.06-4.15-.94-5.29-1.1-7.97-.06-.98.59-1.87,1.53-2.14,8.39-2.39,17.18-3.39,25.89-2.97,1.22.06,2.08,1.17,1.95,2.37-.33,2.93-.37,5.89-.1,8.83.12,1.27-.95,2.32-2.24,2.24-7.85-.51-15.84-.78-23.39,1.17-1.12.28-2.81-.43-2.53-1.55Z"/>
        </g>
      </g>
      <g>
        <path class="cls-10" d="M175.31,476.38c.22-2.64.18-5.3-.12-7.94,12.33-4.68,26.54-4.16,38.49,1.41,4.29,1.99,8.46,4.81,10.57,9.04-16.28-1.79-32.78-1.62-49.01.52l.08-3.04Z"/>
        <g>
          <path class="cls-11" d="M234.69,477.16c-12.61-2.23-25.3-4.19-38.1-4.81-6.59-.32-13.19-.27-19.76.27-5.11.42-10.79.08-14.15,4.53-8.22,10.91-6.29,27.7-3.79,42.19,1.27,7.34,4.13,14.49,6.57,21.48,2.3,6.57,4.66,12.7,6.65,19.38,2.64,8.91,1.62,17.73-.76,26.57-.38,1.39-.78,2.94-.29,4.28.7,1.88,2.74,2.25,4.44,2.33,19.31.98,46.93,2.97,68.92-3.67,3.59-1.08,1.81-4.68,2.5-8.04.88-4.31-.25-8.19-.79-12.43-4.86-38.53.44-78.45-11.43-92.09Z"/>
          <path class="cls-10" d="M246.68,569.25c-4.86-38.53-1.04-78.09-12.92-91.73-1.42-.25-1.36-.87-2.79-1.1,3.06,6.72,4.16,14.18,4.16,20.56,0,31.85,6.9,62.33,4.86,94.07,1.69-.4,3.36-.83,4.99-1.32,3.59-1.08,1.81-4.68,2.5-8.04.88-4.31-.26-8.19-.8-12.43Z"/>
        </g>
      </g>
    </g>
    <g>
      <path class="cls-4" d="M321.47,519.59s.1-6.69,1.26-8.63c1.16-1.94,1.88-5.49,3.24-4.82,1.37.67.37,5,.37,5l-4.86,8.44Z"/>
      <g>
        <path class="cls-4" d="M250.44,494.12l.75,1.22.81,1.29c.55.87,1.1,1.74,1.66,2.6,1.12,1.73,2.25,3.47,3.42,5.17,2.31,3.42,4.71,6.76,7.18,9.98,2.48,3.2,5.02,6.3,7.67,9.09,1.33,1.39,2.66,2.72,4,3.92,1.34,1.19,2.69,2.27,3.98,3.11.16.11.32.2.48.31l.12.08.03.02-.04-.02-.09-.04-.17-.07-.15-.06c-.38-.12-.52-.12-.54-.1,0,.06.48.15,1.09.16.62.01,1.39-.03,2.21-.13.83-.09,1.71-.23,2.61-.4,1.82-.33,3.73-.78,5.67-1.3.96-.26,1.94-.54,2.92-.83.98-.29,1.96-.59,2.95-.9,1.97-.62,3.95-1.3,5.93-1.99,1.99-.69,3.97-1.41,5.95-2.15,1.99-.73,3.97-1.5,5.95-2.27l2.97-1.17,1.48-.59,1.44-.58.16-.07c3.35-1.35,7.16.27,8.51,3.62,1.2,2.99.04,6.34-2.61,7.99l-1.46.91-1.43.88c-.96.58-1.92,1.15-2.89,1.71-1.93,1.12-3.88,2.21-5.84,3.28-1.97,1.06-3.96,2.1-5.97,3.11-2.02,1.01-4.07,1.98-6.15,2.92-1.04.47-2.09.93-3.16,1.39-1.06.45-2.14.88-3.24,1.31-2.19.85-4.45,1.65-6.85,2.35-1.2.35-2.45.67-3.76.95-1.32.28-2.7.52-4.25.66-1.55.13-3.26.21-5.41-.09-1.09-.17-2.29-.43-3.67-.97-.17-.06-.35-.15-.53-.22-.17-.08-.35-.16-.53-.25l-.27-.14-.2-.1-.23-.13c-.31-.17-.63-.34-.93-.51-2.44-1.39-4.59-2.92-6.6-4.49-2-1.58-3.87-3.2-5.62-4.88-3.5-3.36-6.67-6.83-9.62-10.42-2.96-3.57-5.7-7.24-8.33-10.98-1.3-1.88-2.58-3.76-3.81-5.68-.62-.96-1.23-1.92-1.83-2.91l-.89-1.49-.93-1.58c-2.93-4.99-1.25-11.4,3.73-14.32,4.92-2.89,11.24-1.29,14.21,3.55l.16.25Z"/>
        <path class="cls-4" d="M321.79,527.96c2.79,1.94,6.62,1.08,8.65-1.65,1.07-1.44,2.38-2.92,3.72-3.77,3.21-2.04,7.57-3.55,8.9-5.03,1.96-2.2-1.21-2.14-1.6-2.07-2.51.4-5.89,1.54-5.89,1.54,0,0,5.42-3.5,7.93-3.92,2.51-.43,3.63-2.42,1.06-3.36-2.57-.94-9.35,1.67-11.03,2.9,0,0,2.79-3.02,6.17-3.71,3.38-.69,4.49-1.39,5.54-2.31,1.05-.92-1.01-2.83-5.7-1.75-4.69,1.08-6.22,2.67-7.99,4.21,0,0,.87-1.69,2.87-4.09,2-2.4,5.97-2.89,6.41-4.7.46-1.86-4.09-1.1-6.41.44-2.32,1.54-4.13,2.46-6.13,5.41-2,2.95-3.8,5.83-4.57,7.88-.77,2.05-4.47,8.98-3.58,12.02.23.77.84,1.43,1.63,1.98Z"/>
      </g>
    </g>
    <path class="cls-11" d="M239.76,481.46c-2.39-2.16-5.33-3.67-8.25-5.17-1.71-.88-3.52-1.69-5.46-1.8-11.39-.6-2.29,20.16-.46,24.61,4.44,10.82,11.11,21.53,18.52,30.59,0,0,22.67,21.07,35.15,22.5,12.48,1.43,45.33-18.45,45.33-18.45l-8.72-15.51s-32.77,10.43-35.51,9.61c-2.74-.82-26.51-33.64-40.61-46.38Z"/>
    <path class="cls-12" d="M193.26,427.03s9.38,3.11,18.44-1.29,8.39,3.24,11.12,7.77c0,0,.4-4.14-.89-8.68s3.24,10.37,8.29,13.73c0,0-2.85-8.29-1.81-13.73s-1.94-19.16-20.98-17.87c-19.03,1.29-18.37,14.5-14.17,20.07Z"/>
  </g>
</svg>