<?xml version="1.0" encoding="UTF-8"?>
<svg id="Layer_1" data-name="Layer 1" xmlns="http://www.w3.org/2000/svg" viewBox="0 0 1000 1000">
  <defs>
    <style>
      .cls-1 {
        fill: #263238;
      }

      .cls-1, .cls-2, .cls-3, .cls-4, .cls-5, .cls-6, .cls-7, .cls-8, .cls-9, .cls-10, .cls-11, .cls-12, .cls-13, .cls-14, .cls-15, .cls-16, .cls-17, .cls-18, .cls-19, .cls-20, .cls-21, .cls-22 {
        stroke-width: 0px;
      }

      .cls-2 {
        fill: #4553a4;
      }

      .cls-3 {
        fill: #495171;
      }

      .cls-4 {
        fill: #f58765;
      }

      .cls-5 {
        fill: #0d181e;
      }

      .cls-23, .cls-24 {
        fill: none;
        stroke: #495171;
        stroke-miterlimit: 10;
        stroke-width: .75px;
      }

      .cls-6 {
        fill: #939596;
      }

      .cls-7, .cls-14 {
        fill: #54b9a7;
      }

      .cls-8 {
        fill: #ffd56c;
      }

      .cls-9 {
        fill: #fff8ee;
      }

      .cls-10 {
        fill: #372c40;
      }

      .cls-11 {
        fill: #fafbfb;
      }

      .cls-12 {
        fill: #ddd;
      }

      .cls-13 {
        fill: #455b64;
      }

      .cls-14 {
        opacity: .44;
      }

      .cls-15 {
        fill: #c7c7c6;
      }

      .cls-16 {
        fill: #fff;
      }

      .cls-24 {
        stroke-linecap: round;
      }

      .cls-17 {
        fill: #030303;
      }

      .cls-18 {
        fill: #e7ecf7;
      }

      .cls-19 {
        fill: #f0d7bf;
      }

      .cls-20 {
        fill: #ffc829;
      }

      .cls-21 {
        fill: #ededeb;
      }

      .cls-22 {
        fill: #e96543;
      }
    </style>
  </defs>
  <g>
    <path class="cls-19" d="M441.44,815.55c-4.9,0-9.81-.16-14.73-.49-54.51-3.62-103.37-27.25-137.59-66.55-44.32-50.88-61.69-125.15-44.25-189.23,10.76-39.5,35.3-76.73,69.09-104.84,26.92-22.39,59.67-33.65,91.33-44.53,12.63-4.34,25.68-8.82,38.24-13.96,11.22-4.61,22.08-9.89,32.29-15.7l1.07-.6c5.95-3.42,11.83-7.12,17.47-11.01,12.45-8.54,23.98-18.12,34.28-28.46,6.73-6.73,13.1-13.98,18.91-21.53,9.93-12.9,18.96-26.81,27.7-40.27,1.55-2.39,3.1-4.78,4.66-7.16,11.16-17.05,23.29-35.03,38.07-50.89,16.98-18.23,35.59-31.47,55.29-39.35,37.68-15.03,81.22-11.89,122.61,8.86,47.37,23.76,84.54,67.45,97,114.04,11.36,42.48,3.12,88.01-23.2,128.2-19.16,29.24-46.45,56.5-85.91,85.79-5.91,4.4-12.36,9.04-19.72,14.17-4.75,3.32-9.86,6.82-16.56,11.35l-4.18,2.84c-9.2,6.27-16.6,11.57-23.27,16.67-8.94,6.78-16.71,13.29-23.77,19.91-5.45,5.12-10.51,10.35-15.04,15.55-5.89,6.74-10.99,13.51-15.59,20.69-2.51,3.91-4.83,7.9-6.9,11.84-3.34,6.3-6.27,12.85-8.72,19.47-2.64,7.12-5.24,14.1-8,21.11-9.84,25.14-22.71,53.86-43.55,76.32-7.52,8.1-15.81,15.72-24.66,22.62-37.57,29.36-84.09,45.14-132.36,45.14ZM476.76,381.89h0c-10.28,5.85-21.21,11.16-32.5,15.8-12.61,5.16-25.7,9.66-38.35,14-31.51,10.83-64.09,22.03-90.74,44.2-33.5,27.87-57.82,64.77-68.48,103.9-17.28,63.49-.06,137.09,43.86,187.5,33.89,38.92,82.29,62.32,136.3,65.91,53.02,3.51,104.8-12.2,145.81-44.26,8.76-6.84,16.98-14.39,24.44-22.42,20.63-22.22,33.41-50.75,43.18-75.73,2.76-6.99,5.35-13.96,7.99-21.07,2.48-6.69,5.44-13.31,8.82-19.69,2.09-3.99,4.44-8.02,6.98-11.98,4.65-7.27,9.81-14.11,15.76-20.91,4.57-5.25,9.68-10.53,15.17-15.69,7.11-6.66,14.93-13.22,23.92-20.03,6.69-5.12,14.11-10.43,23.35-16.72l4.19-2.84c6.7-4.52,11.8-8.01,16.54-11.33,7.34-5.12,13.78-9.74,19.68-14.14,39.27-29.16,66.42-56.27,85.46-85.32,26.03-39.74,34.18-84.73,22.96-126.7-12.33-46.08-49.12-89.32-96.03-112.84-40.89-20.51-83.88-23.63-121.07-8.8-19.44,7.77-37.82,20.85-54.61,38.89-14.68,15.75-26.76,33.65-37.87,50.64-1.56,2.38-3.11,4.77-4.66,7.16-8.76,13.49-17.81,27.43-27.78,40.39-5.86,7.62-12.28,14.92-19.07,21.71-10.38,10.42-22,20.07-34.54,28.68-5.68,3.91-11.6,7.64-17.61,11.09l-1.07.6Z"/>
    <g>
      <g>
        <path class="cls-19" d="M499.04,228.85c-21.42-41.95-91.25-49.17-155.98-16.12-64.72,33.05-99.83,93.84-78.41,135.79,21.42,41.95,91.25,49.17,155.97,16.12,64.72-33.05,99.83-93.84,78.41-135.79Z"/>
        <path class="cls-19" d="M568.06,682.39c13.39-2.6,26.96-4.31,40.64-5.18,54.19-3.41,108.88,4.13,160.57-15.82,44.66-17.24,85.25-47.51,112.08-87.43,42.37-63.1,49.96-148.88,21.06-218.98-47.05-114.21-183.03-166.74-297.42-126.56-11.93,4.19-23.54,9.31-34.64,15.34-29.38,15.93-52.74,40.38-74.38,66.13-5.53,6.55-10.93,13.19-16.29,19.81-5.26,6.5-10.81,12.45-16.57,17.9-3.83,3.65-7.78,7.08-11.81,10.31-7.81,6.26-15.97,11.78-24.46,16.71-7.11,4.15-14.44,7.9-21.95,11.33-10.62,4.84-21.62,9.05-32.96,12.84-10.17,3.45-20.58,6.55-31.19,9.51-1.85.51-3.69,1.03-5.54,1.54-7.29,2-14.62,4.04-21.96,6.19-8.8,2.56-17.6,5.23-26.37,8.09-44.01,14.24-87.29,32.66-123.44,61.01-40.42,31.71-67.91,77.15-71.24,128.92-6.58,102.35,82.76,217.02,190.78,211.17,25.74-1.41,50.77-9.91,73.44-22.15,21.27-11.48,40.43-26,59.38-40.88,17.13-13.49,34.07-27.27,52.18-39.38,9.11-6.09,18.58-11.56,28.32-16.38,15.21-7.57,31.11-13.63,47.47-18.26,7.55-2.15,15.19-3.99,22.93-5.52.46-.09.91-.17,1.36-.26Z"/>
      </g>
      <g>
        <path class="cls-19" d="M308.44,293.15c-.29,0-.59-.03-.86-.07-.3-.07-.57-.16-.84-.27-.27-.11-.54-.25-.77-.41-.25-.16-.47-.34-.68-.57-.23-.2-.41-.43-.57-.68-.16-.23-.3-.5-.41-.77-.11-.27-.2-.54-.25-.84-.07-.27-.09-.57-.09-.86s.02-.59.09-.88c.05-.27.14-.57.25-.84.11-.27.25-.52.41-.77.16-.25.34-.48.57-.68.2-.2.43-.39.68-.54.23-.18.5-.32.77-.43.27-.09.54-.18.84-.25.57-.11,1.15-.11,1.74,0,.27.07.57.16.84.25.27.11.52.25.77.43.25.16.47.34.68.54.84.84,1.31,1.99,1.31,3.17,0,.29-.02.59-.09.86-.07.29-.14.57-.25.84-.11.27-.25.54-.43.77-.16.25-.34.47-.54.68-.2.23-.43.41-.68.57-.25.16-.5.29-.77.41-.27.11-.57.2-.84.27-.29.04-.59.07-.88.07Z"/>
        <path class="cls-19" d="M409.64,288.69c0-2.47,2.02-4.48,4.48-4.48h0c2.47,0,4.46,2.02,4.46,4.48h0c0,2.47-1.99,4.46-4.46,4.46h0c-2.47,0-4.48-1.99-4.48-4.46ZM374.42,288.69c0-2.47,1.99-4.48,4.48-4.48h0c2.47,0,4.46,2.02,4.46,4.48h0c0,2.47-1.99,4.46-4.46,4.46h0c-2.49,0-4.48-1.99-4.48-4.46ZM339.2,288.69c0-2.47,1.99-4.48,4.48-4.48h0c2.47,0,4.46,2.02,4.46,4.48h0c0,2.47-1.99,4.46-4.46,4.46h0c-2.49,0-4.48-1.99-4.48-4.46Z"/>
        <path class="cls-19" d="M449.33,293.15c-1.18,0-2.33-.48-3.17-1.29-.2-.23-.38-.46-.54-.7-.16-.23-.32-.5-.41-.77-.11-.27-.2-.54-.27-.84-.04-.27-.09-.57-.09-.86,0-1.18.47-2.33,1.31-3.17,1.68-1.65,4.66-1.68,6.31,0,.23.2.41.43.57.68.16.25.3.5.41.77.11.27.2.57.25.84.07.3.09.59.09.88s-.02.59-.09.86c-.05.29-.14.57-.25.84-.11.27-.25.54-.41.77-.16.25-.34.47-.57.7-.81.81-1.97,1.29-3.15,1.29Z"/>
      </g>
    </g>
  </g>
  <g>
    <path class="cls-16" d="M551.15,254.79v115.62c0,4.95-4.01,8.96-8.96,8.96h-153.65c-5.33,0-9.66-4.32-9.66-9.66v-118.93c0-2.94,2.38-5.32,5.32-5.32h157.63c5.15,0,9.32,4.17,9.32,9.32Z"/>
    <g>
      <g>
        <rect class="cls-7" x="431.23" y="356.19" width="5.34" height="5.34"/>
        <rect class="cls-13" x="440.29" y="356.19" width="58.52" height="1.58"/>
        <rect class="cls-13" x="440.29" y="359.96" width="37.81" height="1.58"/>
      </g>
      <g>
        <path class="cls-1" d="M534.75,345.73h-133.28c-.22,0-.4-.18-.4-.4v-71.96c0-.22.18-.4.4-.4s.4.18.4.4v71.56h132.88c.22,0,.4.18.4.4s-.18.4-.4.4Z"/>
        <path class="cls-1" d="M425.04,345.73c-.22,0-.4-.18-.4-.4v-72.75c0-.22.18-.4.4-.4s.4.18.4.4v72.75c0,.22-.18.4-.4.4Z"/>
        <path class="cls-1" d="M448.42,345.73c-.22,0-.4-.18-.4-.4v-72.75c0-.22.18-.4.4-.4s.4.18.4.4v72.75c0,.22-.18.4-.4.4Z"/>
        <path class="cls-1" d="M471.57,345.73c-.22,0-.4-.18-.4-.4v-72.75c0-.22.18-.4.4-.4s.4.18.4.4v72.75c0,.22-.18.4-.4.4Z"/>
        <path class="cls-1" d="M494.71,345.73c-.22,0-.4-.18-.4-.4v-72.75c0-.22.18-.4.4-.4s.4.18.4.4v72.75c0,.22-.18.4-.4.4Z"/>
        <path class="cls-1" d="M517.4,345.73c-.22,0-.4-.18-.4-.4v-72.75c0-.22.18-.4.4-.4s.4.18.4.4v72.75c0,.22-.18.4-.4.4Z"/>
        <path class="cls-1" d="M534.75,333.16h-133.66c-.22,0-.4-.18-.4-.4s.18-.4.4-.4h133.66c.22,0,.4.18.4.4s-.18.4-.4.4Z"/>
        <path class="cls-1" d="M534.75,320.5h-133.66c-.22,0-.4-.18-.4-.4s.18-.4.4-.4h133.66c.22,0,.4.18.4.4s-.18.4-.4.4Z"/>
        <path class="cls-1" d="M534.75,307.21h-133.66c-.22,0-.4-.18-.4-.4s.18-.4.4-.4h133.66c.22,0,.4.18.4.4s-.18.4-.4.4Z"/>
        <path class="cls-1" d="M534.75,294.23h-133.66c-.22,0-.4-.18-.4-.4s.18-.4.4-.4h133.66c.22,0,.4.18.4.4s-.18.4-.4.4Z"/>
        <path class="cls-1" d="M534.75,281.25h-133.66c-.22,0-.4-.18-.4-.4s.18-.4.4-.4h133.66c.22,0,.4.18.4.4s-.18.4-.4.4Z"/>
        <g>
          <path class="cls-14" d="M401.47,323.51c4.09,0,6.52-13.18,12.31-13.18s6.4,9.62,11.27,9.62,4.72-16.89,11.27-16.89,5.03,6.85,11.88,6.85,4.26-15.92,11.42-15.92,4.26,21.93,11.73,21.93c4.72,0,6.55-6.96,12.18-6.96,3.73,0,5.93,3.48,10.81,3.48s5.94-13.39,12.03-13.39,6.79,7.92,11.27,7.92,6.09-12.98,14.31-12.98v51.34h-130.48v-21.82Z"/>
          <path class="cls-7" d="M401.47,324.14v-1.27c1.24,0,2.94-3.08,4.19-5.33,2.14-3.86,4.35-7.85,8.12-7.85s5.42,2.92,7.01,5.5c1.24,2.02,2.53,4.11,4.26,4.11,1.52,0,2.84-4.06,3.81-7.02,1.58-4.85,3.21-9.87,7.46-9.87,3.79,0,5.28,1.97,6.59,3.71,1.28,1.69,2.38,3.15,5.29,3.15,2.63,0,3.66-3.72,4.66-7.31,1.17-4.23,2.39-8.6,6.76-8.6s5.45,5.51,6.62,11.34c.95,4.72,2.13,10.59,5.1,10.59,1.78,0,3.23-1.45,4.77-2.98,1.87-1.87,4-3.99,7.42-3.99,2.06,0,3.66.86,5.21,1.7,1.63.88,3.31,1.78,5.6,1.78,1.69,0,3.23-3.19,4.47-5.75,1.82-3.76,3.7-7.65,7.56-7.65s5.72,2.53,7.39,4.76c1.22,1.63,2.36,3.17,3.88,3.17,1.29,0,2.75-2.47,4.03-4.64,2.2-3.71,4.94-8.34,10.28-8.34v1.27c-4.12,0-6.49,4.01-8.58,7.55-1.79,3.03-3.21,5.43-5.73,5.43s-4.02-1.87-5.5-3.85c-1.5-2-3.04-4.07-5.77-4.07-2.54,0-4.29,3.6-5.83,6.78-1.72,3.55-3.2,6.61-6.21,6.61s-4.94-1.09-6.72-2.05c-1.43-.77-2.66-1.43-4.09-1.43-2.46,0-4.22,1.75-5.91,3.44-1.74,1.73-3.53,3.52-6.27,3.52-4.57,0-5.71-5.67-6.92-11.68-.92-4.56-2.06-10.25-4.81-10.25s-3.98,4.02-4.96,7.57c-1.19,4.29-2.31,8.34-6.46,8.34s-5.55-2.03-6.91-3.83c-1.23-1.63-2.29-3.03-4.97-3.03s-4.39,4.93-5.67,8.89c-1.46,4.47-2.61,8.01-5.6,8.01s-4.4-2.37-5.94-4.89c-1.43-2.33-2.91-4.73-5.33-4.73s-4.68,3.9-6.41,7.04c-1.9,3.43-3.4,6.14-5.9,6.14Z"/>
        </g>
      </g>
    </g>
    <g>
      <path class="cls-1" d="M383.75,245.47h159.45c4.39,0,7.96,3.57,7.96,7.96v.53h-172.27v-3.63c0-2.68,2.18-4.86,4.86-4.86Z"/>
      <g>
        <path class="cls-15" d="M386.91,249.72c0,.89-.72,1.61-1.61,1.61s-1.61-.72-1.61-1.61.72-1.61,1.61-1.61,1.61.72,1.61,1.61Z"/>
        <path class="cls-16" d="M393.49,249.72c0,.89-.72,1.61-1.61,1.61s-1.61-.72-1.61-1.61.72-1.61,1.61-1.61,1.61.72,1.61,1.61Z"/>
        <path class="cls-20" d="M400.07,249.72c0,.89-.72,1.61-1.61,1.61s-1.61-.72-1.61-1.61.72-1.61,1.61-1.61,1.61.72,1.61,1.61Z"/>
      </g>
    </g>
  </g>
  <g>
    <rect class="cls-7" x="626.81" y="482.24" width="185.61" height="128.96" rx="8.73" ry="8.73"/>
    <g>
      <circle class="cls-16" cx="686.2" cy="546.72" r="46.71"/>
      <path class="cls-21" d="M732.05,537.85c-4.14-21.55-23.09-37.84-45.85-37.84v46.71l45.85-8.87Z"/>
      <path class="cls-8" d="M732.91,546.72c0-3.03-.3-6-.85-8.87l-45.85,8.87,4.6,46.48c23.64-2.31,42.11-22.24,42.11-46.48Z"/>
      <path class="cls-10" d="M686.2,546.72l-44.08-15.45c-1.7,4.84-2.63,10.03-2.63,15.45,0,25.8,20.91,46.71,46.71,46.71,1.55,0,3.08-.08,4.6-.23l-4.6-46.48Z"/>
      <path class="cls-2" d="M642.12,531.27l44.08,15.45-36.11-29.62c-3.43,4.18-6.14,8.97-7.97,14.17Z"/>
    </g>
    <g>
      <path class="cls-21" d="M749.51,515.36c0,2.8-2.27,5.08-5.08,5.08s-5.08-2.27-5.08-5.08,2.27-5.08,5.08-5.08,5.08,2.27,5.08,5.08Z"/>
      <path class="cls-16" d="M792.02,516.27h-39.21c-.51,0-.92-.41-.92-.92s.41-.92.92-.92h39.21c.51,0,.92.41.92.92s-.41.92-.92.92Z"/>
      <path class="cls-2" d="M749.51,531.04c0,2.8-2.27,5.08-5.08,5.08s-5.08-2.27-5.08-5.08,2.27-5.08,5.08-5.08,5.08,2.27,5.08,5.08Z"/>
      <path class="cls-16" d="M792.02,531.96h-39.21c-.51,0-.92-.41-.92-.92s.41-.92.92-.92h39.21c.51,0,.92.41.92.92s-.41.92-.92.92Z"/>
      <path class="cls-10" d="M749.51,546.72c0,2.8-2.27,5.08-5.08,5.08s-5.08-2.27-5.08-5.08,2.27-5.08,5.08-5.08,5.08,2.27,5.08,5.08Z"/>
      <path class="cls-16" d="M792.02,547.64h-39.21c-.51,0-.92-.41-.92-.92s.41-.92.92-.92h39.21c.51,0,.92.41.92.92s-.41.92-.92.92Z"/>
      <path class="cls-8" d="M749.51,562.4c0,2.8-2.27,5.08-5.08,5.08s-5.08-2.27-5.08-5.08,2.27-5.08,5.08-5.08,5.08,2.27,5.08,5.08Z"/>
      <path class="cls-16" d="M792.02,563.32h-39.21c-.51,0-.92-.41-.92-.92s.41-.92.92-.92h39.21c.51,0,.92.41.92.92s-.41.92-.92.92Z"/>
      <path class="cls-16" d="M749.51,578.08c0,2.8-2.27,5.08-5.08,5.08s-5.08-2.27-5.08-5.08,2.27-5.08,5.08-5.08,5.08,2.27,5.08,5.08Z"/>
      <path class="cls-16" d="M792.02,579h-39.21c-.51,0-.92-.41-.92-.92s.41-.92.92-.92h39.21c.51,0,.92.41.92.92s-.41.92-.92.92Z"/>
    </g>
  </g>
  <rect class="cls-16" x="711.87" y="325.62" width="138.28" height="130.38" rx="12.39" ry="12.39"/>
  <rect class="cls-16" x="406.62" y="526.13" width="155.14" height="146.28" rx="13.23" ry="13.23"/>
  <g>
    <g>
      <rect class="cls-7" x="751.08" y="391.29" width="11.25" height="26.13"/>
      <rect class="cls-7" x="768.48" y="378.5" width="11.25" height="38.92"/>
      <g>
        <path class="cls-24" d="M748.99,383.8c13.2-6.01,25.11-14.84,34.7-25.72"/>
        <polygon class="cls-3" points="785.38 356.12 784.07 359.85 783.53 358.21 781.84 357.86 785.38 356.12"/>
      </g>
      <rect class="cls-7" x="785.87" y="361.91" width="11.25" height="55.52"/>
      <rect class="cls-7" x="803.26" y="351.43" width="11.25" height="65.99"/>
      <polyline class="cls-23" points="744.46 361.91 744.46 417.51 819.63 417.51"/>
    </g>
    <g>
      <rect class="cls-18" x="744.03" y="422.88" width="75.48" height="3.8"/>
      <rect class="cls-18" x="759.01" y="347.63" width="45.36" height="3.8"/>
      <rect class="cls-18" x="743.94" y="340.99" width="75.48" height="3.8"/>
      <rect class="cls-18" x="744.03" y="429.85" width="75.48" height="3.8"/>
      <rect class="cls-18" x="744.03" y="436.82" width="75.48" height="3.8"/>
    </g>
  </g>
  <g>
    <g>
      <polygon class="cls-18" points="502.49 621.57 477.65 590.62 456.05 618.3 437.32 598.07 439.77 595.8 455.83 613.16 477.61 585.25 501.8 615.39 515.84 586.72 545.48 581.48 546.06 584.76 518.09 589.71 502.49 621.57"/>
      <path class="cls-7" d="M550.05,583.12c0-2.36-1.92-4.28-4.28-4.28s-4.28,1.92-4.28,4.28,1.92,4.28,4.28,4.28,4.28-1.92,4.28-4.28Z"/>
      <path class="cls-7" d="M506.6,618.48c0-2.36-1.92-4.28-4.28-4.28s-4.28,1.92-4.28,4.28,1.92,4.28,4.28,4.28,4.28-1.92,4.28-4.28Z"/>
      <path class="cls-7" d="M520.75,588.22c0-2.36-1.92-4.28-4.28-4.28s-4.28,1.92-4.28,4.28,1.92,4.28,4.28,4.28,4.28-1.92,4.28-4.28Z"/>
      <circle class="cls-7" cx="477.47" cy="588.22" r="4.28"/>
      <circle class="cls-7" cx="456.45" cy="615.22" r="4.28"/>
      <path class="cls-7" d="M443.76,597.75c0-2.36-1.92-4.28-4.28-4.28s-4.28,1.92-4.28,4.28,1.92,4.28,4.28,4.28,4.28-1.92,4.28-4.28Z"/>
    </g>
    <polyline class="cls-23" points="420.64 570.7 420.64 629.08 550.92 629.08"/>
  </g>
  <g>
    <g>
      <g>
        <path class="cls-17" d="M295.85,591.28c-42.75,4.49-42.12,27.84-42.12,27.84l17.27,97.34,12.33,84.81h20.39c8.69-111.48-7.87-209.98-7.87-209.98Z"/>
        <path class="cls-17" d="M265.21,617.79s19.01-11.63,21.24-21.81l-69.94-.85s-13.39,134.72-13.08,206.14h20.22s41.56-183.48,41.56-183.48Z"/>
        <path class="cls-16" d="M205.1,801.27c.01,2.65.03,5.24.06,7.71h16.14s.9-7.71.9-7.71h-17.1Z"/>
        <path class="cls-16" d="M285.01,801.27c0,2.65.02,5.24.06,7.71h16.14s.9-7.71.9-7.71h-17.1Z"/>
      </g>
      <g>
        <path class="cls-17" d="M221.31,808.26l-16.48-.44c-4.59,4.57-7.87,10.31-9.47,16.44h29.76c-.6-5.46-1.83-10.84-3.8-16.01Z"/>
        <path class="cls-11" d="M195.36,824.27c-.16.59-.31,1.17-.43,1.77-.19.93.54,1.81,1.53,1.81h27.29c.91,0,1.64-.74,1.57-1.6-.05-.66-.12-1.32-.2-1.97h-29.76Z"/>
      </g>
      <g>
        <path class="cls-17" d="M285.15,808.73l15.73-.41c4.38,4.35,30.78,9.83,32.31,15.69h-51.67c.57-5.21,1.74-10.34,3.63-15.28Z"/>
        <path class="cls-11" d="M333.19,824.01c.15.56.3,1.12.41,1.69.19.89-.51,1.73-1.46,1.73h-49.31c-.87,0-1.57-.7-1.5-1.53.06-.63.12-1.26.19-1.89h51.67Z"/>
      </g>
    </g>
    <path class="cls-4" d="M384.04,495.52c.96-2.29,1.59-3.41,2.25-4.92.72-1.65.87-1.66,1.71-3.73.84-2.07,1.51-5.56,1.78-6.33.51-.87,1.81-.76,2.88,1.4.66,1.34.49,3.09.41,4.23-.09,1.28-.51,2.82-.13,3.04.38.22,2.22-.68,4.06-1.08,1.84-.4,3.47-1.15,5.48-.51,2.02.64,1.87,2.53,1.6,3.2-.29.7-1.1,1.2-1.1,1.2,0,0,1.07-.15,1.94.64.87.79.81,2.81-.02,3.55,0,0,1.3,0,1.53,1.43.19,1.2.04,2.39-1.17,2.84,0,0,.99.25,1.04.83.05.58.03,1.97-.98,2.62-1.01.65-3.45.75-3.45.75,0,0-.19.43-1.34,1-.4.2-2.06,1.9-3.7,2.74-2.25,1.16-3.87,1.48-6.19,1.87-1.23.21-2.18,1.03-3.91,2.82-4.12-4.82-5.32-13.69-5.32-13.69,1.51-1.45,2.27-2.98,2.65-3.9Z"/>
    <g>
      <path class="cls-9" d="M381.43,499.4s2.71,5.16,8.87,11.27l-3.58,4.4c-4.28-2.02-8.27-7.75-9.71-12.26l4.42-3.4Z"/>
      <path class="cls-16" d="M335.6,558.14c20.6-5.11,40.39-24.97,53.95-42.59-2.64-1.89-10.88-10.35-11.16-14.34-11.62,8.4-30.39,20.4-44.82,27.41-4.04,1.97-5.8,22.71-1.94,25.98,3.12,2.64,3.97,3.53,3.97,3.53Z"/>
      <g>
        <path class="cls-16" d="M215.05,596.69l80.77-.36c-1.54-3.24-.56-1.07-2.1-4.31,1.59-2.45,3.18-4.9,4.77-7.35-1.64-2.32-3.4-3.97-5.04-6.29,6.34-30.8,9.85-59.78,10.32-91.19-14.06-4.39-32.04-11.83-46.43-15.06-14.35,6.08-26.22,8.58-40.83,11.52-3.92,8.57-5.16,28.68-4.91,38.06.25,9.38,1.93,18.66,3.61,27.89l-.16,47.08Z"/>
        <path class="cls-16" d="M281.42,519.08c8.96,12.35,33.06,31.45,54.29,39.01,8.75-2.02,13.44-13.53,18.19-19.74-12.8-10.61-37.77-35.31-50.14-51.15-7.83.8-7.22,6.39-12.3,11.01-5.08,4.62-6.42,15.33-10.05,20.88Z"/>
      </g>
      <path class="cls-12" d="M213.66,594.39l1.55-44.79c-1.68-9.24-3.35-18.52-3.61-27.89-.25-9.33,1.85-21.23,5.72-29.85,19.69,15.47,11.07,76.69,13.59,84.4,0,0,25.81.48,35.43,3.28,5.8,1.69,18.17-11.86,29.14-11.35-.66,3.39-1.34,6.78-2.04,10.18,1.64,2.32,3.4,3.97,5.04,6.29-1.59,2.45-3.18,4.9-4.77,7.35,1.55,3.24.56,1.07,2.1,4.31l-82.17-1.94Z"/>
      <path class="cls-16" d="M189.93,571.39c3.92-27.37,15.89-74.02,26.58-87.74,2.08.32,11.31,14.55,13.96,31.78,1.23,8.02-.21,13.73-2.64,21.47-4.59,14.61-14.06,31.52-15.75,45.75,0,0-23.31-3.16-22.15-11.26Z"/>
      <rect class="cls-5" x="223.19" y="589.95" width="72.69" height="6.74"/>
    </g>
    <path class="cls-4" d="M237.82,614.94s1.47,3.21-.72,5.05c-2.19,1.84-8.35,5.53-10.96,3.54-2.61-1.99,11.67-8.59,11.67-8.59Z"/>
    <path class="cls-9" d="M220.71,618.87c2.5-4.38,7.96-8.98,12.74-10.58,1.45,2.32,2.87,4.3,4.32,6.62-4.25,2.33-9.61,6.37-11.62,8.63-.31-.42-3.94-2.53-5.43-4.67Z"/>
    <path class="cls-16" d="M223.57,622.27c3.64-4.1,9.66-8.02,13.79-10.14-8.42-14.97-13.01-25.15-19-41.15-2.8-7.47-17.09-9.19-24.34-9.03-4.02,2.22-4.7,8.2-3.58,12.24,5.37,19.24,16.94,36.77,33.13,48.08Z"/>
    <path class="cls-4" d="M244.2,619.03s-4.87-4.6-6.46-4.22c-1.59.38-2.48,1.18-1.52,2.8.96,1.62,6.32,2.88,7.98,1.42Z"/>
    <path class="cls-22" d="M271.35,486.31c-17.1,2.03-21.05-11.31-18.21-12.64,1.86-.29,2.44-1.77,2.7-2.74,2.47-9.6-.61-24.84-.61-24.84,0,0,12.18,9.63,17.89,14.14,1.77,1.42,2.91,2.33,2.91,2.33-.03.3-.81,3.84-.27,6.49.06.35.15.69.27.99.2.52.2,2.27.2,2.27l.02-.02c1.17,1.48,6.1,12.68-4.9,14.01Z"/>
    <path class="cls-17" d="M280.13,443.76c-.43,2.58.5,5.22,1.91,7.42.99,1.56,2.15-.22,3.97-.56,2.81-.51,3.12-4.24,3.26-12.32,1.31-3.43.94-8.46.61-8.96-1.17-1.81-3.93-2.35-6.07-2.11"/>
    <path class="cls-4" d="M258.11,462.7c1.19,1.11,3.1,2.21,5.32,3.21,4.92,2.21,11.41,3.9,15.24,3.75,3.68-.15,6.26-6.65,8.41-13.83.31-1.05.57-2.16.77-3.27,1.82-10.3-1.2-22.49-5.67-27.02-4.44-4.53-10.03-7.68-16.51-8.4-9.84-1.09-12.61,9.21-13.14,17.02-.6,8.59-1.3,22.21,5.58,28.54"/>
    <path class="cls-17" d="M261.38,429.34c1.5,1.44,2.05,3.59,2.35,5.65.45,3.1.47,6.35-.74,9.24-.34.82-.32,4.74-.97,4.58-.21-.05-.43-3.07-1.09-4.66-1.03-2.45-4.89-3.1-6.46-1.36-2.5,2.77-.65,5.71.4,7.56.64,1.11,1.6,2.34,1.85,3.55.32,1.55.85,7.26-.07,8.68-.76,1.19-2.12-4.13-2.98-5.13-6.39-7.44-13.57-27.14-4.16-32.33,1.43-.79,6-1.52,7.45-.79"/>
    <path class="cls-12" d="M249.86,477.48c1.2-2.33,2.31-4.23,3.79-6.39,3.24,2.83,15.69,7.67,18.83,9.94-1.08,3.32-.47,10.85-1.55,14.17-5.94-3.73-17.08-12.53-21.07-17.73Z"/>
    <path class="cls-12" d="M276.29,472.32l-3.81,8.72,4.68,13.26s1.67-3.41,5.9-16.09l-6.77-5.89Z"/>
    <path class="cls-6" d="M267.87,492.18s-.75,4.6,5.22,17.61c2.98,6.49,4.68-17.61,4.68-17.61l-5.47-10.89-4.43,10.89Z"/>
    <path class="cls-17" d="M254.5,432.1s9.19,3.04,18.06-1.27c8.88-4.31,8.21,3.17,10.89,7.61,0,0,.39-4.06-.87-8.5-1.27-4.44,3.17,10.15,8.11,13.44,0,0-2.79-8.12-1.78-13.44,1.01-5.33-1.9-18.77-20.54-17.5-18.64,1.27-17.99,14.2-13.88,19.65Z"/>
  </g>
  <rect class="cls-16" x="483.19" y="321.84" width="216.51" height="193.4" rx="11.47" ry="11.47"/>
  <g>
    <circle class="cls-7" cx="591.44" cy="418.54" r="76.7" transform="translate(-122.72 540.8) rotate(-45)"/>
    <path class="cls-16" d="M588.14,457.9c-2.63,0-5.16-1.03-7.05-2.88l-37.33-36.54c-3.98-3.89-4.04-10.27-.15-14.25,3.89-3.98,10.27-4.04,14.25-.15l29.99,29.36,62.88-66.66c3.82-4.05,10.19-4.24,14.24-.42,4.05,3.82,4.23,10.2.42,14.24l-69.92,74.13c-1.86,1.97-4.43,3.11-7.13,3.16-.07,0-.13,0-.2,0Z"/>
  </g>
</svg>