<?xml version="1.0" encoding="UTF-8"?>
<svg xmlns="http://www.w3.org/2000/svg" viewBox="0 0 1000 1000">
  <defs>
    <style>
      .cls-1 {
        fill: #f0d7bf;
      }

      .cls-1, .cls-2, .cls-3, .cls-4, .cls-5, .cls-6, .cls-7, .cls-8, .cls-9, .cls-10, .cls-11, .cls-12, .cls-13, .cls-14, .cls-15, .cls-16, .cls-17, .cls-18, .cls-19 {
        stroke-width: 0px;
      }

      .cls-2 {
        fill: #939596;
      }

      .cls-3 {
        fill: #030303;
      }

      .cls-4 {
        fill: #efbf58;
      }

      .cls-5 {
        fill: #f37474;
      }

      .cls-6 {
        fill: #ddd;
      }

      .cls-7 {
        fill: #3ca08d;
      }

      .cls-8 {
        fill: #fec77f;
      }

      .cls-9 {
        fill: #ffd56c;
      }

      .cls-10 {
        fill: #fff;
      }

      .cls-11 {
        fill: #54b9a7;
      }

      .cls-12 {
        fill: #f58776;
      }

      .cls-13 {
        fill: #f3b8a5;
      }

      .cls-14 {
        fill: #d1816b;
      }

      .cls-15 {
        fill: #fafbfb;
      }

      .cls-16 {
        fill: #d75556;
      }

      .cls-17 {
        fill: #303030;
      }

      .cls-18 {
        fill: #33657a;
      }

      .cls-19 {
        fill: #ededeb;
      }
    </style>
  </defs>
  <g id="Layer_2" data-name="Layer 2">
    <path class="cls-1" d="m465.71,380.66c40.31-6.78,78.53-25.46,111.5-53.78,49.25-42.31,152.31-114.3,250.62-78.44,135.6,49.46,136.21,192.55,100.89,270.28-35.32,77.73-285.8,305.35-610.53,269.13C27.61,755.43-29.02,384.46,125.96,317.34c134.42-58.22,180.27,90.12,339.75,63.33Z"/>
  </g>
  <g id="Layer_1" data-name="Layer 1">
    <g>
      <rect class="cls-10" x="593.83" y="278.53" width="259.6" height="156.78" rx="7.93" ry="7.93"/>
      <g>
        <path class="cls-8" d="m619.96,375.22c10.04,31.75,43.91,49.36,75.67,39.32,31.75-10.04,49.36-43.91,39.32-75.67-10.04-31.75-43.91-49.36-75.67-39.32-31.75,10.04-49.36,43.91-39.32,75.67Zm97.26-30.74c6.93,21.93-5.27,45.41-27.2,52.34-21.93,6.93-45.41-5.27-52.34-27.2-6.93-21.93,5.27-45.4,27.2-52.34s45.4,5.27,52.34,27.2Z"/>
        <path class="cls-18" d="m734.04,377.85l-17.49-6.43c-4.31,11.69-13.75,21.36-26.52,25.4-4.47,1.41-9.01,1.99-13.46,1.89-.29,6.71-.58,13.21-.84,18.61,6.57.19,13.28-.69,19.9-2.78,18.5-5.85,32.19-19.8,38.41-36.7Z"/>
        <path class="cls-3" d="m659.28,299.56c-18.27,5.77-31.83,19.44-38.17,36.05l17.41,6.63c4.39-11.49,13.75-20.96,26.36-24.95,14.32-4.53,29.28-.85,39.88,8.33l12.23-14.08c-15.32-13.28-36.97-18.53-57.72-11.97Z"/>
        <path class="cls-12" d="m717.22,344.48c2.89,9.15,2.41,18.56-.68,26.94l17.49,6.43c4.46-12.1,5.1-25.72.91-38.97-3.48-11-9.82-20.3-17.95-27.35l-12.23,14.08c5.63,4.87,10.05,11.27,12.45,18.87Z"/>
      </g>
      <rect class="cls-11" x="263.24" y="289.93" width="166.52" height="226.54" rx="9.06" ry="9.06"/>
      <g>
        <rect class="cls-17" x="283.35" y="312.6" width="43.15" height="27.33" rx="2.13" ry="2.13"/>
        <rect class="cls-10" x="331.33" y="312.6" width="78.31" height="3.06" rx="1.36" ry="1.36"/>
        <rect class="cls-10" x="331.33" y="320.62" width="78.31" height="3.06" rx="1.36" ry="1.36"/>
        <rect class="cls-10" x="331.33" y="328.65" width="78.31" height="3.06" rx="1.36" ry="1.36"/>
        <rect class="cls-10" x="331.33" y="336.67" width="78.31" height="3.06" rx="1.36" ry="1.36"/>
        <rect class="cls-10" x="284.96" y="344.69" width="124.68" height="3.06" rx="1.36" ry="1.36"/>
        <rect class="cls-10" x="284.96" y="352.72" width="59.27" height="3.06" rx="1.36" ry="1.36"/>
        <rect class="cls-9" x="283.35" y="382.12" width="43.15" height="27.33" rx="1.6" ry="1.6"/>
        <rect class="cls-10" x="331.33" y="382.12" width="78.31" height="3.06" rx="1.36" ry="1.36"/>
        <rect class="cls-10" x="331.33" y="390.14" width="78.31" height="3.06" rx="1.36" ry="1.36"/>
        <rect class="cls-10" x="331.33" y="398.16" width="78.31" height="3.06" rx="1.36" ry="1.36"/>
        <rect class="cls-10" x="331.33" y="406.19" width="78.31" height="3.06" rx="1.36" ry="1.36"/>
        <rect class="cls-10" x="284.96" y="414.21" width="124.68" height="3.06" rx="1.36" ry="1.36"/>
        <rect class="cls-10" x="284.96" y="422.23" width="59.27" height="3.06" rx="1.36" ry="1.36"/>
        <rect class="cls-5" x="283.35" y="451.63" width="43.15" height="27.33" rx="1.7" ry="1.7"/>
        <rect class="cls-10" x="331.33" y="451.63" width="78.31" height="3.06" rx="1.36" ry="1.36"/>
        <rect class="cls-10" x="331.33" y="459.66" width="78.31" height="3.06" rx="1.36" ry="1.36"/>
        <rect class="cls-10" x="331.33" y="467.68" width="78.31" height="3.06" rx="1.36" ry="1.36"/>
        <rect class="cls-10" x="331.33" y="475.7" width="78.31" height="3.06" rx="1.36" ry="1.36"/>
        <rect class="cls-10" x="284.96" y="483.73" width="124.68" height="3.06" rx="1.36" ry="1.36"/>
        <rect class="cls-10" x="284.96" y="491.75" width="59.27" height="3.06" rx="1.36" ry="1.36"/>
      </g>
      <rect class="cls-10" x="645.27" y="509.15" width="236.65" height="156.78" rx="7.93" ry="7.93"/>
      <g>
        <g>
          <path class="cls-14" d="m711.78,413.87c.16.2.32.39.48.59.98,1.22,1.68,2.73,1.81,4.29-1.68,1.41-3.07,3.48-3.9,5.51-.96-.21-1.79-1.07-1.96-2.04-.17-.97.09-1.97.46-2.89.37-.92.86-1.78,1.18-2.72.38-1.13.98-2.04,1.94-2.74Z"/>
          <path class="cls-14" d="m715.31,408.51c2.73,2.58,5.14,5.5,7.14,8.67-1.31.81-3.07.54-4.32-.36-1.24-.9-2.07-2.25-2.87-3.56-.36-.58-.83-.87-1.1-1.5-.27-.63-.36-1.36-.1-2,.26-.64.57-1.28,1.26-1.25Z"/>
          <path class="cls-14" d="m714.34,413.47c.16.2.32.4.48.59.98,1.22,1.68,2.73,1.81,4.29-1.68,1.41-3.07,3.48-3.9,5.51-.96-.21-1.79-1.07-1.96-2.04-.17-.97.09-1.97.46-2.89.37-.92.86-1.79,1.18-2.72.38-1.13.98-2.04,1.94-2.74Z"/>
          <path class="cls-13" d="m687.45,437.5c2.42-2.85,5.15-5.44,8.14-7.69,3.94-.07,7.54-2.41,10.23-5.29,2.69-2.88,4.96-6.21,8.1-8.59.69-.52,1.43-1.01,1.98-1.68.55-.67.88-1.59.61-2.41-.27-.82-1.31-1.39-2.06-.96.8-.86,2.36-1.43,3.52-1.59,1.17-.16,2.37-.19,3.47-.6,1.1-.42,2.12-1.34,2.21-2.51-3.59-.32-7.38-.46-10.93.16-2.86.5-5.77,2.1-8.53,3.39-1.16.54-2.15,1.36-2.91,2.38-5.14,6.89-11.82,12.57-19.33,16.78.62,1.69,1.26,3.94,2.23,5.46.97,1.52,1.6,2.53,3.29,3.15Z"/>
        </g>
        <g>
          <path class="cls-14" d="m365.18,413.48c-.16.2-.32.39-.48.59-.98,1.22-1.68,2.73-1.81,4.29,1.68,1.41,3.07,3.48,3.9,5.51.96-.21,1.79-1.07,1.96-2.04.17-.97-.09-1.97-.46-2.89-.37-.92-.86-1.78-1.18-2.72-.38-1.13-.98-2.04-1.94-2.74Z"/>
          <path class="cls-14" d="m361.65,408.13c-2.73,2.58-5.14,5.5-7.14,8.67,1.31.81,3.07.54,4.32-.36,1.24-.9,2.07-2.25,2.87-3.56.36-.58.83-.87,1.1-1.5.27-.63.36-1.36.1-2-.26-.64-.57-1.28-1.26-1.25Z"/>
          <path class="cls-14" d="m362.62,413.08c-.16.2-.32.4-.48.59-.98,1.22-1.68,2.73-1.81,4.29,1.68,1.41,3.07,3.48,3.9,5.51.96-.21,1.79-1.07,1.96-2.04.17-.97-.09-1.97-.46-2.89-.37-.92-.86-1.79-1.18-2.72-.38-1.13-.98-2.04-1.94-2.74Z"/>
          <path class="cls-13" d="m389.52,437.11c-2.42-2.85-5.15-5.44-8.14-7.69-3.94-.07-7.54-2.41-10.23-5.29-2.69-2.88-4.96-6.21-8.1-8.59-.69-.52-1.43-1.01-1.98-1.68-.55-.67-.88-1.59-.61-2.41.27-.82,1.31-1.39,2.06-.96-.8-.86-2.36-1.43-3.52-1.59-1.17-.16-2.37-.19-3.47-.6-1.1-.42-2.12-1.34-2.21-2.51,3.59-.32,7.38-.46,10.93.16,2.86.5,5.77,2.1,8.53,3.39,1.16.54,2.15,1.36,2.91,2.38,5.14,6.89,11.82,12.57,19.33,16.78-.62,1.69-1.26,3.94-2.23,5.46-.97,1.52-1.6,2.53-3.29,3.15Z"/>
        </g>
        <path class="cls-2" d="m389.43,419.01s-3.44,6.55-11.26,14.29l4.54,5.58c5.43-2.57,10.49-9.84,12.32-15.56l-5.61-4.32Z"/>
        <path class="cls-10" d="m447.56,493.54c-26.13-6.49-51.24-31.68-68.44-54.03,3.35-2.4,13.81-13.13,14.16-18.19,14.74,10.66,38.55,25.88,56.86,34.78,5.13,2.49,7.36,28.81,2.46,32.96-3.96,3.35-5.04,4.48-5.04,4.48Z"/>
        <path class="cls-10" d="m516.3,443.98c-11.36,15.67-41.95,39.9-68.88,49.49-11.1-2.56-17.04-17.16-23.08-25.05,16.24-13.45,47.92-44.8,63.61-64.9,9.93,1.01,9.16,8.11,15.6,13.97,6.44,5.86,8.15,19.46,12.75,26.49Z"/>
        <path class="cls-2" d="m689.99,419.04s3.44,6.55,11.26,14.29l-4.54,5.58c-5.43-2.57-10.49-9.84-12.32-15.56l5.61-4.32Z"/>
        <path class="cls-10" d="m631.85,493.57c26.13-6.49,51.24-31.68,68.44-54.03-3.35-2.4-13.81-13.13-14.16-18.19-14.74,10.66-38.55,25.88-56.86,34.78-5.13,2.49-7.36,28.81-2.46,32.96,3.96,3.35,5.04,4.48,5.04,4.48Z"/>
        <path class="cls-10" d="m563.11,444.02c11.36,15.67,41.95,39.9,68.88,49.49,11.1-2.56,17.04-17.16,23.08-25.05-16.24-13.45-47.92-44.8-63.61-64.9-9.93,1.01-9.16,8.11-15.6,13.97-6.44,5.86-8.15,19.46-12.75,26.49Z"/>
        <g>
          <g>
            <path class="cls-3" d="m588.96,556.78c-56.71,5.95-55.87,36.93-55.87,36.93l22.91,129.1,16.36,112.49h27.04c11.52-147.86-10.44-278.52-10.44-278.52Z"/>
            <path class="cls-3" d="m548.33,591.94s25.22-15.43,28.18-28.93l-94.7,3.22s-15.83,174.34-15.42,269.08h26.82s55.12-243.37,55.12-243.37Z"/>
            <path class="cls-10" d="m468.6,835.3c.01,3.52.04,6.95.08,10.23h21.4s1.2-10.23,1.2-10.23h-22.68Z"/>
            <path class="cls-10" d="m574.59,835.3c0,3.52.03,6.95.08,10.23h21.41s1.2-10.23,1.2-10.23h-22.68Z"/>
          </g>
          <g>
            <path class="cls-3" d="m490.1,844.58l-21.87-.58c-6.09,6.06-10.43,13.67-12.56,21.81h39.47c-.79-7.25-2.42-14.37-5.05-21.23Z"/>
            <path class="cls-15" d="m455.68,865.81c-.21.78-.42,1.56-.58,2.35-.26,1.24.72,2.4,2.04,2.4h36.19c1.21,0,2.18-.98,2.08-2.13-.07-.87-.16-1.75-.26-2.62h-39.47Z"/>
          </g>
          <g>
            <path class="cls-3" d="m574.77,845.21l20.86-.55c5.81,5.77,40.82,13.04,42.85,20.81h-68.54c.76-6.91,2.31-13.72,4.82-20.26Z"/>
            <path class="cls-15" d="m638.49,865.47c.19.75.4,1.49.55,2.24.25,1.19-.68,2.29-1.94,2.29h-65.4c-1.15,0-2.08-.93-1.99-2.03.07-.84.16-1.67.25-2.5h68.54Z"/>
          </g>
        </g>
        <path class="cls-10" d="m530.37,393.43c10.48,24.33,23.87,157.47,11.65,181.11-12.87,24.88-52.28,9.31-66.58,2.61-3.23-1.51-5.3-4.75-5.35-8.32-.3-24.78-.49-123.56,14.95-161.62,4.13-10.16,41-23.86,45.34-13.79Z"/>
        <path class="cls-10" d="m553.31,388.07s39.96,2.59,43.84,26.5c3.88,23.91,5.12,130.4,6.83,157.03,1.17,18.15-36.98,27.21-61.25-8.6-11.33-16.72-17.27-72.58-19.07-88.5-5.67-49.99,29.65-86.44,29.65-86.44Z"/>
        <path class="cls-3" d="m565.04,358.56s14.64-18.07,9-33.22c-5.63-15.13-24.89,1.64-35.03-2.01-10.14-3.66-17.91-3.13-20.09,23.11-1.62,19.49,14.12,36.88,14.12,36.88l32-24.77Z"/>
        <path class="cls-14" d="m554.54,377.79l-1.48,25.8s-8.59.91-26.54-3.24c0,0,2.4-22.73.16-37.37,0,0,.23,2.41,3.17,2.52,0,0,4.15,14.88,24.69,12.29Z"/>
        <path class="cls-13" d="m541.02,384.8c11.94,2.98,21.82-1.72,23.51-12,.41-2.47.72-6.08.97-9.84,0-.04,0-.08,0-.12.05-.8.1-1.61.14-2.41.04-.58.07-1.17.09-1.75.34-6.71.46-12.8.46-12.8-.88-16.75-17.06-23.82-30.6-18.16-13.54,5.65-9.5,26.19-9.96,36.1-.48,9.91,5.14,18.43,15.38,20.98Z"/>
        <path class="cls-3" d="m566.14,347.02h0c.58-3.44,1.29-9.83-3.9-16.59-7.74-10.1-24.79-10.61-32.17-1.28-7.38,9.33-4.58,18.01-4.58,18.01,0,0,2.68,1.16,3.68,6.59,0,0-1.62-.38-.2,3.7,1.88,5.36,5.46-8.02,4.48-15.4-.98-7.38,12.34-13.88,20.98-11.69,8.64,2.19,10.93,10.31,10.93,10.31,0,0,.79,2.97.77,6.36Z"/>
        <path class="cls-19" d="m519.96,395.51c.29-2.42,7.42-7.76,7.42-7.76l14.64,13.85-8.55,21.01s-14.4-19.6-13.5-27.09Z"/>
        <path class="cls-19" d="m542.02,401.6l8.92,17.77s14.82-14.92,7.77-28.73c0,0-1.69-4.35-4.8-2.38,0,0-8.27,8.77-11.89,13.34Z"/>
        <path class="cls-2" d="m538,411.47s-.68,4.17,4.73,15.96c2.7,5.88,4.24-15.96,4.24-15.96l-4.96-9.87-4.02,9.87Z"/>
        <path class="cls-13" d="m530.19,349.27s-2.27-4.13-6.44-2.4c-4.18,1.73-2.62,16.13,5.55,14.69l.89-12.29Z"/>
        <path class="cls-3" d="m530.97,321.74s46.56-2.01,35.17,25.28c0,0-14.76-4.23-19.25.84-4.49,5.07-13.81-8.38-7.72-15.87,6.09-7.5-8.17,7.73-8.2-10.24Z"/>
      </g>
      <rect class="cls-10" x="169.06" y="561.14" width="274.15" height="176.38" rx="16.68" ry="16.68"/>
      <g>
        <rect class="cls-6" x="806.09" y="529.15" width="14.86" height="4.24" rx="1.88" ry="1.88"/>
        <rect class="cls-6" x="806.09" y="537.59" width="53.05" height="4.24" rx="1.88" ry="1.88"/>
        <rect class="cls-6" x="806.09" y="546.03" width="14.86" height="4.24" rx="1.88" ry="1.88"/>
        <rect class="cls-6" x="806.09" y="624.56" width="53.05" height="4.24" rx="1.88" ry="1.88"/>
        <rect class="cls-6" x="806.09" y="633.01" width="14.86" height="4.24" rx="1.88" ry="1.88"/>
        <rect class="cls-6" x="806.09" y="641.45" width="53.05" height="4.24" rx="1.88" ry="1.88"/>
      </g>
      <g>
        <rect class="cls-3" x="198.78" y="623.12" width="15.9" height="86.42" rx="4.42" ry="4.42"/>
        <rect class="cls-17" x="198.78" y="638.12" width="15.9" height="71.41" rx="4.42" ry="4.42"/>
        <rect class="cls-9" x="225.26" y="616.9" width="15.9" height="92.64" rx="4.42" ry="4.42"/>
        <rect class="cls-11" x="253.82" y="644.28" width="15.9" height="65.26" rx="4.42" ry="4.42"/>
        <rect class="cls-5" x="282.94" y="671.73" width="15.9" height="37.81" rx="4.42" ry="4.42"/>
        <rect class="cls-7" x="253.82" y="663.22" width="15.9" height="46.32" rx="4.98" ry="4.98"/>
        <rect class="cls-16" x="282.94" y="686.38" width="15.9" height="23.16" rx="4.98" ry="4.98"/>
        <rect class="cls-4" x="225.26" y="633.65" width="15.9" height="75.88" rx="4.98" ry="4.98"/>
      </g>
      <rect class="cls-6" x="349.91" y="606.6" width="78.48" height="5.73" rx="1.86" ry="1.86"/>
      <rect class="cls-6" x="349.91" y="628.65" width="78.48" height="5.73" rx="1.86" ry="1.86"/>
      <rect class="cls-6" x="349.91" y="650.69" width="78.48" height="5.73" rx="1.86" ry="1.86"/>
      <rect class="cls-6" x="349.91" y="672.74" width="78.48" height="5.73" rx="1.86" ry="1.86"/>
      <circle class="cls-5" cx="340.47" cy="609.72" r="3.78"/>
      <circle class="cls-11" cx="340.47" cy="632.43" r="3.78"/>
      <circle class="cls-9" cx="340.47" cy="653.56" r="3.78"/>
      <circle class="cls-3" cx="340.47" cy="675.6" r="3.78"/>
      <rect class="cls-6" x="676.98" y="529.15" width="110.69" height="34.54" rx="4.12" ry="4.12"/>
      <rect class="cls-6" x="676.98" y="585.91" width="110.69" height="8.21" rx="3.64" ry="3.64"/>
      <rect class="cls-6" x="676.98" y="603.19" width="110.69" height="8.21" rx="3.64" ry="3.64"/>
      <rect class="cls-6" x="676.98" y="620.46" width="110.69" height="8.21" rx="3.64" ry="3.64"/>
      <rect class="cls-6" x="676.98" y="637.73" width="110.69" height="8.21" rx="3.64" ry="3.64"/>
      <g>
        <rect class="cls-6" x="765.1" y="324.03" width="74.3" height="5.43" rx="1.86" ry="1.86"/>
        <rect class="cls-6" x="765.1" y="344.9" width="74.3" height="5.43" rx="1.86" ry="1.86"/>
        <rect class="cls-6" x="765.1" y="365.77" width="74.3" height="5.43" rx="1.86" ry="1.86"/>
        <rect class="cls-6" x="765.1" y="386.64" width="74.3" height="5.43" rx="1.86" ry="1.86"/>
        <circle class="cls-5" cx="756.16" cy="326.99" r="3.58"/>
        <circle class="cls-11" cx="756.16" cy="348.48" r="3.58"/>
        <circle class="cls-9" cx="756.16" cy="368.49" r="3.58"/>
        <circle class="cls-3" cx="756.16" cy="389.36" r="3.58"/>
      </g>
    </g>
  </g>
</svg>