<?xml version="1.0" encoding="UTF-8"?>
<svg xmlns="http://www.w3.org/2000/svg" xmlns:xlink="http://www.w3.org/1999/xlink" viewBox="0 0 1000 1000">
  <defs>
    <style>
      .cls-1 {
        fill: url(#linear-gradient);
      }

      .cls-1, .cls-2, .cls-3, .cls-4, .cls-5, .cls-6, .cls-7, .cls-8, .cls-9, .cls-10, .cls-11, .cls-12, .cls-13 {
        stroke-width: 0px;
      }

      .cls-2 {
        fill: #f0d7bf;
      }

      .cls-3 {
        fill: #939596;
      }

      .cls-4 {
        fill: #030303;
      }

      .cls-5 {
        fill: #a8daea;
      }

      .cls-6 {
        fill: #ffd56c;
      }

      .cls-7 {
        fill: #fff;
      }

      .cls-8 {
        fill: #54b9a7;
      }

      .cls-9 {
        fill: #f9f8f3;
      }

      .cls-10 {
        fill: #f3b8a5;
      }

      .cls-11 {
        fill: #d1816b;
      }

      .cls-12 {
        fill: #fafbfb;
      }

      .cls-13 {
        fill: #ededeb;
      }
    </style>
    <linearGradient id="linear-gradient" x1="589.54" y1="446.94" x2="589.54" y2="805.96" gradientUnits="userSpaceOnUse">
      <stop offset="0" stop-color="#fff" stop-opacity="0"/>
      <stop offset="1" stop-color="#fff"/>
    </linearGradient>
  </defs>
  <g id="Layer_2" data-name="Layer 2">
    <path class="cls-2" d="m536.16,415.34c-37.08-6.23-72.22-23.41-102.54-49.46-45.29-38.91-140.08-105.12-230.49-72.14-124.71,45.49-125.27,177.09-92.79,248.57,32.49,71.49,262.85,280.82,561.49,247.51,267.24-29.81,319.32-370.98,176.79-432.72-123.62-53.55-165.79,82.88-312.46,58.24Z"/>
  </g>
  <g id="Layer_1" data-name="Layer 1">
    <g>
      <rect class="cls-13" x="483.49" y="298.68" width="237.36" height="378.63" rx="10.66" ry="10.66"/>
      <rect class="cls-7" x="458.23" y="279.47" width="237.36" height="378.63" rx="10.66" ry="10.66"/>
      <rect class="cls-8" x="509.09" y="577.39" width="135.79" height="32.44" rx="3.61" ry="3.61"/>
      <g>
        <path class="cls-6" d="m523.55,469.65h106.87c11.49,0,20.82,9.33,20.82,20.82v66.52c0,1.94-1.57,3.51-3.51,3.51h-141.49c-1.94,0-3.51-1.57-3.51-3.51v-66.52c0-11.49,9.33-20.82,20.82-20.82Z"/>
        <rect class="cls-8" x="545.1" y="503.72" width="63.77" height="41.06" rx="1.25" ry="1.25"/>
        <g>
          <rect class="cls-7" x="551.72" y="511.29" width="41.21" height="2.91"/>
          <path class="cls-7" d="m603.85,512.75c0,1.85-1.5,3.35-3.35,3.35s-3.35-1.5-3.35-3.35,1.5-3.35,3.35-3.35,3.35,1.5,3.35,3.35Z"/>
        </g>
        <g>
          <rect class="cls-7" x="551.72" y="522.79" width="41.21" height="2.91"/>
          <path class="cls-6" d="m603.85,524.25c0,1.85-1.5,3.35-3.35,3.35s-3.35-1.5-3.35-3.35,1.5-3.35,3.35-3.35,3.35,1.5,3.35,3.35Z"/>
        </g>
        <g>
          <rect class="cls-7" x="551.72" y="534.29" width="41.21" height="2.91"/>
          <path class="cls-7" d="m603.85,535.75c0,1.85-1.5,3.35-3.35,3.35s-3.35-1.5-3.35-3.35,1.5-3.35,3.35-3.35,3.35,1.5,3.35,3.35Z"/>
        </g>
      </g>
      <path class="cls-8" d="m595.33,474.23l-.32.09c-11.8,3.23-24.25,3.23-36.04,0l-.32-.09v-22.5h36.69v22.5Z"/>
      <g>
        <g>
          <path class="cls-8" d="m526.66,434.89l12.91,1.69v-40.87l-12.91,1.68c-4.74.62-8.28,4.65-8.28,9.43v18.63c0,4.78,3.54,8.81,8.28,9.43Z"/>
          <path class="cls-7" d="m523.57,433.91c.95.49,1.98.83,3.09.98l.51.07v-37.63l-.51.07c-1.11.15-2.14.49-3.09.98v35.54Z"/>
        </g>
        <g>
          <rect class="cls-8" x="619.73" y="360.62" width="1.97" height="50.45"/>
          <path class="cls-6" d="m623.8,357.88c0,1.71-1.39,3.09-3.09,3.09s-3.09-1.39-3.09-3.09,1.39-3.09,3.09-3.09,3.09,1.39,3.09,3.09Z"/>
          <rect class="cls-8" x="531.83" y="360.62" width="1.97" height="50.45"/>
          <path class="cls-6" d="m535.9,357.88c0,1.71-1.39,3.09-3.09,3.09s-3.09-1.39-3.09-3.09,1.39-3.09,3.09-3.09,3.09,1.39,3.09,3.09Z"/>
          <path class="cls-8" d="m627.46,434.89l-12.91,1.69v-40.87l12.91,1.68c4.74.62,8.28,4.65,8.28,9.43v18.63c0,4.78-3.54,8.81-8.28,9.43Z"/>
          <path class="cls-7" d="m630.56,433.91c-.95.49-1.98.83-3.09.98l-.51.07v-37.63l.51.07c1.11.15,2.14.49,3.09.98v35.54Z"/>
        </g>
      </g>
      <circle class="cls-6" cx="576.98" cy="418.1" r="45.16"/>
      <circle class="cls-7" cx="555.82" cy="419.16" r="9.09"/>
      <circle class="cls-7" cx="598.51" cy="419.16" r="9.09"/>
      <path class="cls-8" d="m651.24,540.39v-38.05c0-8.29-7.41-15.01-16.56-15.01h-1.07c-9.14,0-16.56,6.72-16.56,15.01v55.78h34.18s0-18.82,0-17.73Z"/>
      <path class="cls-8" d="m536.91,540.39v-38.05c0-8.29-7.41-15.01-16.56-15.01h-1.07c-9.14,0-16.56,6.72-16.56,15.01v55.78h34.18s0-18.82,0-17.73Z"/>
      <rect class="cls-6" x="482.63" y="555.12" width="188.7" height="6" rx="1.05" ry="1.05"/>
    </g>
    <g>
      <g>
        <g>
          <g>
            <g>
              <path class="cls-4" d="m239.13,516.49c-55.23,5.8-54.41,35.96-54.41,35.96l22.31,125.73,15.93,109.55h26.34c11.22-144-10.16-271.25-10.16-271.25Z"/>
              <path class="cls-4" d="m199.56,550.72s24.56-15.03,27.44-28.17l-92.22,3.13s-15.41,169.79-15.02,262.05h26.12s53.68-237.01,53.68-237.01Z"/>
              <path class="cls-7" d="m121.92,787.73c.01,3.43.04,6.77.08,9.96h20.84s1.17-9.96,1.17-9.96h-22.09Z"/>
              <path class="cls-7" d="m225.14,787.73c0,3.43.03,6.77.07,9.96h20.85s1.17-9.96,1.17-9.96h-22.09Z"/>
            </g>
            <g>
              <path class="cls-4" d="m142.85,796.77l-21.29-.56c-5.93,5.9-10.16,13.32-12.23,21.24h38.44c-.77-7.06-2.36-14-4.91-20.68Z"/>
              <path class="cls-12" d="m109.33,817.44c-.2.76-.41,1.52-.56,2.29-.25,1.21.7,2.33,1.98,2.33h35.25c1.17,0,2.12-.95,2.03-2.07-.07-.85-.16-1.7-.26-2.55h-38.44Z"/>
            </g>
            <g>
              <path class="cls-4" d="m225.32,797.38l20.32-.53c5.66,5.62,39.76,12.7,41.73,20.26h-66.75c.74-6.73,2.25-13.36,4.7-19.73Z"/>
              <path class="cls-12" d="m287.37,817.11c.19.73.39,1.45.53,2.18.24,1.15-.66,2.23-1.89,2.23h-63.69c-1.12,0-2.02-.91-1.94-1.97.07-.81.15-1.63.24-2.44h66.75Z"/>
            </g>
          </g>
          <path class="cls-5" d="m180.42,354.79c-2,.29-6.24,3.01-6.34,5.03-.33,6.33,11.84,11.59,23,10.7,11.16-.89,11.17-6.95,9.07-9.96-2.17-3.12-7.13-8.47-25.73-5.77Z"/>
          <path class="cls-7" d="m182.07,357.4c10.21,23.69,23.25,153.36,11.34,176.39-12.53,24.23-50.92,9.07-64.84,2.55-3.15-1.47-5.17-4.63-5.21-8.1-.3-24.14-.48-120.34,14.56-157.4,4.02-9.89,39.93-23.24,44.16-13.43Z"/>
          <path class="cls-7" d="m204.41,352.17s38.91,2.53,42.7,25.81c3.78,23.29,4.99,126.99,6.65,152.94,1.13,17.68-36.01,26.5-59.65-8.37-11.04-16.29-16.82-70.69-18.57-86.19-5.52-48.69,28.88-84.18,28.88-84.18Z"/>
          <path class="cls-10" d="m179.6,424.45c1.93-3.72,3.58-4.28,7.72-7.18,4.14-2.9,5.79-4.14,6.62-1.93.83,2.21-1.65,4.55-3.86,6.48-2.21,1.93.14,4.42-3.17,5.38-3.31.97-7.31-2.76-7.31-2.76Z"/>
          <path class="cls-9" d="m216.25,421.46c-1.66,2.47-1.6,5.4.12,6.56,1.73,1.16,4.47.1,6.12-2.37,1.66-2.47,1.6-5.41-.12-6.56-1.73-1.16-4.47-.1-6.13,2.37Z"/>
          <path class="cls-13" d="m233.25,434.2l20.58,11.52c1.02,11.63-2.81,24.46-1.74,37.17-.65-.29-5.67-6.78-6.34-7.25-11.31-7.83-13.45-14.67-13.45-14.67l-52.07,2.49c-.96-4.2,6.72-9.2,5.95-12.94l47.06-16.33Z"/>
          <path class="cls-7" d="m265.98,477.74c-6.42,1.19-8.41-3.15-12.34-7.48-8.89-9.77-30.65-59.96-33.32-71.96-2.67-12,1.03-22.27,2.14-25.9,3.6-11.82,7.67-12,7.67-12,0,0,10.02,2.76,20.92,21.16,4.97,8.39,16.76,44.02,17.32,42.01,0,0,19.35,50.13-2.39,54.18Z"/>
          <path class="cls-4" d="m215.84,323.44s14.26-17.6,8.77-32.35c-5.49-14.74-24.24,1.6-34.11-1.96-9.87-3.56-17.44-3.05-19.57,22.5-1.58,18.98,13.75,35.92,13.75,35.92l31.17-24.12Z"/>
          <path class="cls-11" d="m205.62,342.16l-1.45,25.13s-8.37.88-25.84-3.15c0,0,2.33-22.14.15-36.39,0,0,.23,2.35,3.09,2.45,0,0,4.05,14.49,24.05,11.97Z"/>
          <path class="cls-10" d="m192.45,348.99c11.63,2.9,21.25-1.67,22.9-11.69.4-2.41.71-5.92.94-9.58,0-.04,0-.08,0-.11.05-.78.09-1.57.14-2.35.03-.57.06-1.14.09-1.7.33-6.53.45-12.46.45-12.46-.85-16.32-16.61-23.19-29.8-17.69-13.18,5.5-9.25,25.5-9.7,35.16-.46,9.65,5.01,17.95,14.98,20.43Z"/>
          <path class="cls-4" d="m216.91,312.19h0c.57-3.35,1.25-9.58-3.79-16.16-7.54-9.83-24.14-10.34-31.33-1.25-7.19,9.09-4.46,17.54-4.46,17.54,0,0,2.61,1.13,3.58,6.42,0,0-1.58-.37-.19,3.6,1.83,5.22,5.32-7.81,4.36-15-.95-7.19,12.02-13.52,20.43-11.39,8.41,2.13,10.65,10.04,10.65,10.04,0,0,.77,2.9.75,6.19Z"/>
          <path class="cls-13" d="m171.93,359.42c.28-2.36,7.23-7.56,7.23-7.56l14.26,13.49-8.33,20.46s-14.02-19.08-13.15-26.39Z"/>
          <path class="cls-13" d="m193.42,365.35l8.69,17.3s14.43-14.53,7.57-27.98c0,0-1.65-4.24-4.67-2.32,0,0-8.05,8.54-11.58,12.99Z"/>
          <path class="cls-13" d="m147.18,475.58s3.67-6.3,9.06-14.24l31.39-21.65,8.39-5.5c.17.31.34.64.5.99,3.49,7.52,5.16,27.74,5.37,52.89-2.34-9.97-5.47-22.64-6.93-25.7-2.49-5.22-24.09,40.92-46.67,43.31-1.38.15-22.89,2.77-25.79-11.64,3.5-30.95,24.69-18.46,24.69-18.46Z"/>
          <g>
            <path class="cls-4" d="m174.95,456.15l.04.02c.47.28,1.02.42,1.57.39l48.89-2.78c.98-.05,1.85-.63,2.29-1.49l31.55-61.86c.64-1.27.19-2.82-1.02-3.55h0c-.44-.27-.96-.4-1.47-.4l-51.64,1.14c-1.05.02-1.99.64-2.42,1.6l-28.85,63.47c-.57,1.26-.11,2.74,1.07,3.46Z"/>
            <path class="cls-8" d="m180.05,456.51l48.09-1.06c1.04-.02,1.99-.64,2.42-1.6l28.06-61.73c.83-1.83-.53-3.9-2.54-3.86l-48.09,1.06c-1.05.02-1.99.64-2.42,1.6l-28.06,61.72c-.83,1.83.54,3.9,2.54,3.85Z"/>
          </g>
          <path class="cls-3" d="m167.88,437.17c.55-.03,10.66,7.03,13.19,11.75.25.46.41.92.52,1.38-1.36,2-2.64,4.05-3.86,6.14-1.95-.07-5.08-.71-8.58-3.56-3.83-3.13-7.51-6.38-8.57-8.88,1.52-2.21,7.3-6.82,7.3-6.82Z"/>
          <path class="cls-10" d="m180.14,447.51c-.69.28-.81.4-1.28.86-2.65-1.02-9.33-5.92-10-10.57,2.55-2.54,7.36-6.84,7.96-8.52.85-2.32,1.9-6.53,5.9-7.37,4-.84,11.16-1.89,13.9-1.26,2.74.63,2.32,3.58.85,4.42,0,0,2.74-.42,3.79.63,1.05,1.06,1.05,4.21-2.32,5.06,0,0,1.69.85,1.69,3.16s-2.53,3.38-2.53,3.38c0,0,2.32,1.26.21,3.58-2.1,2.32-8.21,3.16-12.21,5.26-4,2.11-3.85.54-5.95,1.38Z"/>
          <path class="cls-3" d="m189.5,374.96s-.66,4.06,4.61,15.54c2.63,5.73,4.13-15.54,4.13-15.54l-4.83-9.61-3.91,9.61Z"/>
        </g>
        <path class="cls-7" d="m139.29,369.37c-10.85,10.68-19.18,27.43-23.16,50.18-3.98,22.74-6.09,60.02.74,69.69,6.82,9.67,15.78,8.37,24.45,5.69,8.67-2.68,10.24-22.74,10.24-22.74,0,0,.65-41.11,3.98-53.45,7.8-28.84-16.24-49.36-16.24-49.36Z"/>
        <path class="cls-7" d="m160.95,441.02c-.24,1.19,7.15,10.01,11.91,12.86,4.77,2.86,6.67,2.62,6.67,2.62,0,0-18.35,30.26-29.55,35.74-11.19,5.48-21.74,5.77-24.6-2.33-2.86-8.1-4.84-19.37-4.84-19.37,0,0,12.14-7.93,19.37-14.26,8.61-7.53,21.04-15.27,21.04-15.27Z"/>
        <ellipse class="cls-13" cx="219.37" cy="421.53" rx="6.81" ry="3.93" transform="translate(-255.37 400.75) rotate(-60)"/>
      </g>
      <path class="cls-10" d="m181.9,314.38s-2.21-4.02-6.27-2.34c-4.07,1.68-2.55,15.7,5.41,14.31l.87-11.97Z"/>
      <path class="cls-4" d="m182.66,287.57s45.35-1.96,34.25,24.62c0,0-14.37-4.12-18.75.82-4.37,4.94-13.45-8.16-7.52-15.46,5.94-7.3-7.96,7.53-7.99-9.98Z"/>
    </g>
    <rect class="cls-1" x="417.1" y="431.1" width="344.88" height="269.78" rx="25.09" ry="25.09"/>
    <g>
      <path class="cls-6" d="m375.67,717.59h0c0,13.24,10.73,23.97,23.97,23.97h371.05c13.24,0,23.97-10.73,23.97-23.97h0c0-13.24-10.73-23.97-23.97-23.97h-371.05c-13.24,0-23.97,10.73-23.97,23.97Z"/>
      <path class="cls-6" d="m305.88,791.29h0c0,5.61,4.55,10.16,10.16,10.16h538.25c5.61,0,10.16-4.55,10.16-10.16h0c0-5.61-4.55-10.16-10.16-10.16H316.04c-5.61,0-10.16,4.55-10.16,10.16Z"/>
      <rect class="cls-8" x="354.56" y="710.45" width="461.2" height="97.34" rx="24.32" ry="24.32"/>
      <path class="cls-7" d="m321.28,783.44v40.03h527.77v-40.03c0-13.43-10.89-24.32-24.32-24.32h-479.13c-13.43,0-24.32,10.89-24.32,24.32Z"/>
      <path class="cls-6" d="m354.56,791.29h0c0,5.61,4.55,10.16,10.16,10.16h47.2c5.61,0,10.16-4.55,10.16-10.16h0c0-5.61-4.55-10.16-10.16-10.16h-47.2c-5.61,0-10.16,4.55-10.16,10.16Z"/>
      <path class="cls-6" d="m485.8,791.29h0c0,5.61,4.55,10.16,10.16,10.16h47.2c5.61,0,10.16-4.55,10.16-10.16h0c0-5.61-4.55-10.16-10.16-10.16h-47.2c-5.61,0-10.16,4.55-10.16,10.16Z"/>
      <path class="cls-6" d="m617.03,791.29h0c0,5.61,4.55,10.16,10.16,10.16h47.2c5.61,0,10.16-4.55,10.16-10.16h0c0-5.61-4.55-10.16-10.16-10.16h-47.2c-5.61,0-10.16,4.55-10.16,10.16Z"/>
      <path class="cls-6" d="m748.26,791.29h0c0,5.61,4.55,10.16,10.16,10.16h47.2c5.61,0,10.16-4.55,10.16-10.16h0c0-5.61-4.55-10.16-10.16-10.16h-47.2c-5.61,0-10.16,4.55-10.16,10.16Z"/>
    </g>
    <circle class="cls-8" cx="681.98" cy="304.41" r="7.43"/>
    <rect class="cls-8" x="406.2" y="214.95" width="125.93" height="125.93" rx="15.89" ry="15.89"/>
    <g>
      <g>
        <path class="cls-7" d="m460.21,289h-11.18c-.81,0-1.51.55-1.72,1.33l-2.45,9.39c-.2.78-.91,1.33-1.72,1.33h-7.53c-1.18,0-2.03-1.12-1.71-2.26l14.79-52.13c.22-.76.91-1.29,1.71-1.29h8.49c.79,0,1.49.53,1.71,1.29l14.79,52.13c.32,1.13-.53,2.26-1.71,2.26h-7.57c-.81,0-1.51-.54-1.71-1.32l-2.48-9.4c-.21-.78-.91-1.32-1.71-1.32Zm-8.04-8.49h4.89c1.16,0,2.01-1.1,1.72-2.22l-4.05-15.44h-.23l-4.05,15.44c-.29,1.12.55,2.22,1.72,2.22Z"/>
        <path class="cls-7" d="m487.55,249.61h-3.69c-1.96,0-3.55-1.59-3.55-3.55v-1.13c0-1.96,1.59-3.55,3.55-3.55h3.69c1.96,0,3.55,1.59,3.55,3.55v1.13c0,1.96-1.59,3.55-3.55,3.55Zm0,51.43h-3.69c-1.96,0-3.55-1.59-3.55-3.55v-34.28c0-1.96,1.59-3.55,3.55-3.55h3.69c1.96,0,3.55,1.59,3.55,3.55v34.28c0,1.96-1.59,3.55-3.55,3.55Z"/>
      </g>
      <path class="cls-7" d="m514.71,300.94h-13.27c-.82,0-1.49-.67-1.49-1.49v-36.7h-12.75c-.82,0-1.49-.67-1.49-1.49s.67-1.49,1.49-1.49h14.24c.82,0,1.49.67,1.49,1.49v36.7h11.78c.82,0,1.49.67,1.49,1.49s-.67,1.49-1.49,1.49Z"/>
      <path class="cls-7" d="m442.7,287.36h-20.55c-.82,0-1.49-.67-1.49-1.49s.67-1.49,1.49-1.49h20.55c.82,0,1.49.67,1.49,1.49s-.67,1.49-1.49,1.49Z"/>
      <path class="cls-7" d="m469.26,313.57h-29.29c-.82,0-1.49-.67-1.49-1.49s.67-1.49,1.49-1.49h27.8v-19.55c0-.82.67-1.49,1.49-1.49s1.49.67,1.49,1.49v21.04c0,.82-.67,1.49-1.49,1.49Z"/>
      <path class="cls-7" d="m484.98,314.43c-.82,0-1.49-.67-1.49-1.49v-23.79c0-.82.67-1.49,1.49-1.49s1.49.67,1.49,1.49v23.79c0,.82-.67,1.49-1.49,1.49Z"/>
      <path class="cls-7" d="m450.28,248.35h-25.52c-.82,0-1.49-.67-1.49-1.49s.67-1.49,1.49-1.49h25.52c.82,0,1.49.67,1.49,1.49s-.67,1.49-1.49,1.49Z"/>
    </g>
    <g>
      <path class="cls-7" d="m838.1,545.62c0,4.46-3.62,8.07-8.07,8.07s-8.07-3.61-8.07-8.07,3.61-8.07,8.07-8.07,8.07,3.61,8.07,8.07Z"/>
      <path class="cls-7" d="m900.68,466.29c0,4.46-3.61,8.07-8.07,8.07s-8.07-3.62-8.07-8.07,3.61-8.07,8.07-8.07,8.07,3.61,8.07,8.07Z"/>
      <g>
        <rect class="cls-7" x="779.57" y="526.67" width="91.35" height=".85"/>
        <rect class="cls-7" x="779.57" y="520.91" width="91.35" height=".85"/>
        <rect class="cls-7" x="779.57" y="515.16" width="91.35" height=".85"/>
        <rect class="cls-7" x="779.57" y="509.4" width="91.35" height=".85"/>
      </g>
      <path class="cls-7" d="m892.61,546.74h-58.54c-.62,0-1.13-.5-1.13-1.13s.5-1.13,1.13-1.13h57.41v-74.82c0-.62.5-1.13,1.13-1.13s1.13.5,1.13,1.13v75.94c0,.62-.5,1.13-1.13,1.13Z"/>
    </g>
    <g>
      <path class="cls-7" d="m748.26,404.29c0,5.63,4.56,10.19,10.19,10.19s10.19-4.56,10.19-10.19-4.56-10.19-10.19-10.19-10.19,4.56-10.19,10.19Z"/>
      <path class="cls-7" d="m750.29,356.38v-48.5c0-.62.5-1.13,1.13-1.13h115.48c.62,0,1.13.5,1.13,1.13v48.5c0,.62-.5,1.13-1.13,1.13h-115.48c-.62,0-1.13-.5-1.13-1.13Zm115.48-47.37h-113.23s0,46.24,0,46.24h113.23s0-46.24,0-46.24Z"/>
      <path class="cls-7" d="m755.12,408.27c.2,0,.4-.05.58-.16l32.86-19.78c.34-.2.55-.57.55-.97v-30.98c0-.62-.5-1.13-1.13-1.13s-1.13.5-1.13,1.13v30.34s-32.31,19.46-32.31,19.46c-.53.32-.71,1.01-.38,1.55.21.35.58.55.97.55Z"/>
      <rect class="cls-7" x="760.66" y="323.69" width="97.01" height=".85"/>
      <rect class="cls-7" x="760.66" y="329.04" width="97.01" height=".85"/>
      <rect class="cls-7" x="760.66" y="334.39" width="97.01" height=".85"/>
      <rect class="cls-7" x="760.66" y="339.73" width="97.01" height=".85"/>
    </g>
    <g>
      <circle class="cls-7" cx="302.41" cy="345.35" r="36.81"/>
      <circle class="cls-13" cx="302.41" cy="345.35" r="22.4"/>
      <path class="cls-7" d="m423.15,388.83c0,5.63,4.56,10.19,10.19,10.19,5.63,0,10.19-4.56,10.19-10.19,0-5.63-4.56-10.19-10.19-10.19-5.63,0-10.19,4.56-10.19,10.19Z"/>
      <g>
        <rect class="cls-7" x="331.72" y="421.31" width="91.35" height=".85"/>
        <rect class="cls-7" x="331.72" y="415.55" width="91.35" height=".85"/>
        <rect class="cls-7" x="331.72" y="409.79" width="91.35" height=".85"/>
        <rect class="cls-7" x="331.72" y="404.04" width="91.35" height=".85"/>
      </g>
      <polygon class="cls-7" points="354.44 389.95 433.34 389.95 433.34 387.7 355.19 387.7 330.45 369.08 329.09 370.88 354.44 389.95"/>
    </g>
  </g>
</svg>