<?xml version="1.0" encoding="UTF-8"?>
<svg xmlns="http://www.w3.org/2000/svg" xmlns:xlink="http://www.w3.org/1999/xlink" viewBox="0 0 1000 1000">
  <defs>
    <style>
      .cls-1 {
        fill: #f0d7bf;
      }

      .cls-1, .cls-2, .cls-3, .cls-4, .cls-5, .cls-6, .cls-7, .cls-8, .cls-9, .cls-10, .cls-11, .cls-12, .cls-13, .cls-14 {
        stroke-width: 0px;
      }

      .cls-2 {
        fill: #939596;
      }

      .cls-3 {
        fill: #ecf6ee;
      }

      .cls-4 {
        fill: #030303;
      }

      .cls-5 {
        fill: none;
      }

      .cls-6 {
        fill: #a8daea;
      }

      .cls-7 {
        fill: #fff;
      }

      .cls-15 {
        opacity: .3;
      }

      .cls-8 {
        fill: #263238;
      }

      .cls-16 {
        clip-path: url(#clippath);
      }

      .cls-9 {
        fill: #e4f4f3;
      }

      .cls-10 {
        fill: #54b9a7;
      }

      .cls-11 {
        fill: #f3b8a5;
      }

      .cls-12 {
        fill: #d1816b;
      }

      .cls-13 {
        fill: #fafbfb;
      }

      .cls-14 {
        fill: #ededeb;
      }
    </style>
    <clipPath id="clippath">
      <path class="cls-5" d="m416.35,704.63h214.85c30.41,0,53.98-24.88,52.39-55.28l-18.38-350.69c-1.59-30.41-27.78-55.28-58.18-55.28h-214.85c-30.41,0-53.98,24.88-52.39,55.28l18.38,350.69c1.59,30.41,27.78,55.28,58.18,55.28Z"/>
    </clipPath>
  </defs>
  <g id="Layer_2" data-name="Layer 2">
    <path class="cls-1" d="m526.48,343.59c-36.67-6.16-71.42-23.15-101.41-48.92-44.79-38.48-138.52-103.96-227.94-71.34-123.33,44.99-123.88,175.13-91.76,245.82,32.13,70.69,259.94,277.71,555.27,244.77,264.28-29.48,315.78-366.88,174.83-427.93-122.25-52.96-163.96,81.97-309,57.6Z"/>
  </g>
  <g id="Layer_1" data-name="Layer 1">
    <g>
      <path class="cls-3" d="m392.15,735.13h214.85c30.41,0,53.98-24.88,52.39-55.28l-18.38-350.69c-1.59-30.41-27.78-55.28-58.18-55.28h-214.85c-30.41,0-53.98,24.88-52.39,55.28l18.38,350.69c1.59,30.41,27.78,55.28,58.18,55.28Z"/>
      <path class="cls-7" d="m416.35,704.63h214.85c30.41,0,53.98-24.88,52.39-55.28l-18.38-350.69c-1.59-30.41-27.78-55.28-58.18-55.28h-214.85c-30.41,0-53.98,24.88-52.39,55.28l18.38,350.69c1.59,30.41,27.78,55.28,58.18,55.28Z"/>
      <g class="cls-16">
        <g>
          <g>
            <path class="cls-10" d="m590.57,654.59l-2.61-49.84c0-.12.04-.24.12-.32.08-.09.2-.14.32-.14,37.55,0,72.1-14.62,97.28-41.16,25.24-26.59,38.05-61.96,36.08-99.58-2.63-50.19-32.06-96.9-76.82-121.91-.21-.11-.28-.37-.17-.58l4.8-9.15c.05-.1.15-.18.26-.21.11-.03.23-.02.33.03l.69.37c.63.34,1.26.68,1.89,1.02l17.61-33.55c.06-.11.15-.18.27-.22.11-.03.24-.02.34.04,28.68,16.71,53.2,40.38,70.91,68.47,18.26,28.95,28.84,62.02,30.6,95.64,2.68,51.19-14.75,99.3-49.09,135.49-34.27,36.12-81.28,56.01-132.37,56.01-.23,0-.42-.18-.43-.41Zm62.73-320.67c-.05.1-.15.18-.26.22-.11.03-.23.02-.34-.04-.75-.42-1.5-.83-2.26-1.24l-.31-.17-4.4,8.38c44.8,25.21,74.25,72.07,76.89,122.42,1.98,37.86-10.91,73.46-36.31,100.23-25.25,26.61-59.84,41.31-97.46,41.43l2.57,48.97c50.69-.11,97.31-19.89,131.32-55.73,34.17-36.01,51.52-83.9,48.85-134.85-3.48-66.34-42.05-128.82-100.69-163.17l-17.6,33.54Z"/>
            <path class="cls-10" d="m430.65,613.17c-36.97-35.13-60.57-81.79-66.44-131.37-.02-.12.02-.25.11-.34.08-.09.2-.15.33-.15h39.2c-.21-4.3-.27-8.67-.16-12.99,0-.24.2-.42.44-.42h12.69c.23,0,.42.18.44.41,4.35,83.08,75.48,150.67,158.56,150.67.23,0,.42.18.44.41l2.79,53.33c0,.12-.04.24-.12.32-.08.09-.2.14-.32.14-53.89,0-107.82-21.87-147.96-60.01Zm-14.25-144.4h-11.85c-.1,4.32-.03,8.67.19,12.96,0,.12-.04.24-.12.32-.08.09-.2.14-.32.14h-39.17c5.94,49.2,29.41,95.48,66.11,130.35,39.86,37.88,93.38,59.65,146.9,59.77l-2.75-52.46c-83.22-.22-154.41-67.87-159-151.08Z"/>
            <path class="cls-10" d="m404.13,468.77c.24,0,.43-.19.44-.42,2.22-88.09,73.26-157.1,161.72-157.1,28.88,0,57.74,7.35,83.46,21.24.21.11.48.04.59-.18.11-.21.04-.48-.18-.59-25.85-13.97-54.85-21.35-83.87-21.35-43.43,0-84.01,16.27-114.25,45.82-30.09,29.4-47.26,69.22-48.34,112.13,0,.24.18.44.43.45h.01Z"/>
            <path class="cls-10" d="m343.97,482.19h20.68c.24,0,.44-.19.44-.44,0-.24-.2-.44-.44-.44h-20.27c-2.04-40.29,6.56-80.03,24.89-114.96,26.99-51.37,73.07-88.91,129.75-105.72,60.28-17.87,124.46-10.42,180.75,20.98l-9.42,17.95c-.11.21-.03.48.18.59.21.11.48.03.59-.18l9.62-18.33c.11-.21.03-.47-.17-.58-28.51-15.97-59.16-25.83-91.09-29.32-30.82-3.36-61.33-.65-90.7,8.05-56.91,16.87-103.17,54.57-130.27,106.15-18.46,35.19-27.09,75.24-24.97,115.82.01.23.2.41.44.41Z"/>
            <path class="cls-10" d="m652.92,334.16s.08,0,.12-.02c.11-.03.21-.11.26-.22l17.81-33.95c.11-.21.03-.48-.18-.59-.21-.11-.48-.03-.59.18l-17.61,33.55c-.62-.35-1.25-.69-1.89-1.02l-.69-.37c-.21-.11-.48-.04-.59.18-.11.21-.04.48.18.59l.69.37c.76.41,1.51.81,2.26,1.24.07.04.14.06.21.06Z"/>
          </g>
          <g class="cls-15">
            <path class="cls-10" d="m590.57,654.59l-2.61-49.84c0-.12.04-.24.12-.32.08-.09.2-.14.32-.14,37.55,0,72.1-14.62,97.28-41.16,25.24-26.59,38.05-61.96,36.08-99.58-2.63-50.19-32.06-96.9-76.82-121.91-.21-.11-.28-.37-.17-.58l4.8-9.15c.05-.1.15-.18.26-.21.11-.03.23-.02.33.03l.69.37c.63.34,1.26.68,1.89,1.02l17.61-33.55c.06-.11.15-.18.27-.22.11-.03.24-.02.34.04,28.68,16.71,53.2,40.38,70.91,68.47,18.26,28.95,28.84,62.02,30.6,95.64,2.68,51.19-14.75,99.3-49.09,135.49-34.27,36.12-81.28,56.01-132.37,56.01-.23,0-.42-.18-.43-.41Zm62.73-320.67c-.05.1-.15.18-.26.22-.11.03-.23.02-.34-.04-.75-.42-1.5-.83-2.26-1.24l-.31-.17-4.4,8.38c44.8,25.21,74.25,72.07,76.89,122.42,1.98,37.86-10.91,73.46-36.31,100.23-25.25,26.61-59.84,41.31-97.46,41.43l2.57,48.97c50.69-.11,97.31-19.89,131.32-55.73,34.17-36.01,51.52-83.9,48.85-134.85-3.48-66.34-42.05-128.82-100.69-163.17l-17.6,33.54Z"/>
            <path class="cls-10" d="m430.65,613.17c-36.97-35.13-60.57-81.79-66.44-131.37-.02-.12.02-.25.11-.34.08-.09.2-.15.33-.15h39.2c-.21-4.3-.27-8.67-.16-12.99,0-.24.2-.42.44-.42h12.69c.23,0,.42.18.44.41,4.35,83.08,75.48,150.67,158.56,150.67.23,0,.42.18.44.41l2.79,53.33c0,.12-.04.24-.12.32-.08.09-.2.14-.32.14-53.89,0-107.82-21.87-147.96-60.01Zm-14.25-144.4h-11.85c-.1,4.32-.03,8.67.19,12.96,0,.12-.04.24-.12.32-.08.09-.2.14-.32.14h-39.17c5.94,49.2,29.41,95.48,66.11,130.35,39.86,37.88,93.38,59.65,146.9,59.77l-2.75-52.46c-83.22-.22-154.41-67.87-159-151.08Z"/>
            <path class="cls-10" d="m404.13,468.77c.24,0,.43-.19.44-.42,2.22-88.09,73.26-157.1,161.72-157.1,28.88,0,57.74,7.35,83.46,21.24.21.11.48.04.59-.18.11-.21.04-.48-.18-.59-25.85-13.97-54.85-21.35-83.87-21.35-43.43,0-84.01,16.27-114.25,45.82-30.09,29.4-47.26,69.22-48.34,112.13,0,.24.18.44.43.45h.01Z"/>
            <path class="cls-10" d="m343.97,482.19h20.68c.24,0,.44-.19.44-.44,0-.24-.2-.44-.44-.44h-20.27c-2.04-40.29,6.56-80.03,24.89-114.96,26.99-51.37,73.07-88.91,129.75-105.72,60.28-17.87,124.46-10.42,180.75,20.98l-9.42,17.95c-.11.21-.03.48.18.59.21.11.48.03.59-.18l9.62-18.33c.11-.21.03-.47-.17-.58-28.51-15.97-59.16-25.83-91.09-29.32-30.82-3.36-61.33-.65-90.7,8.05-56.91,16.87-103.17,54.57-130.27,106.15-18.46,35.19-27.09,75.24-24.97,115.82.01.23.2.41.44.41Z"/>
            <path class="cls-10" d="m652.92,334.16s.08,0,.12-.02c.11-.03.21-.11.26-.22l17.81-33.95c.11-.21.03-.48-.18-.59-.21-.11-.48-.03-.59.18l-17.61,33.55c-.62-.35-1.25-.69-1.89-1.02l-.69-.37c-.21-.11-.48-.04-.59.18-.11.21-.04.48.18.59l.69.37c.76.41,1.51.81,2.26,1.24.07.04.14.06.21.06Z"/>
          </g>
        </g>
      </g>
    </g>
    <g>
      <ellipse class="cls-9" cx="575.24" cy="486.62" rx="140.2" ry="161.38" transform="translate(-173.97 566.46) rotate(-46.31)"/>
      <path class="cls-10" d="m597.8,647.13c-88.2,0-170.09-72.01-182.52-160.52-.76-5.44,3.01-9.84,8.43-9.84s10.43,4.41,11.19,9.84c10.91,77.65,82.75,140.83,160.14,140.83s131.47-63.18,120.55-140.83c-10.91-77.65-82.75-140.83-160.14-140.83-5.42,0-10.43-4.41-11.19-9.84s3.01-9.84,8.43-9.84c88.2,0,170.08,72.01,182.52,160.52,12.44,88.51-49.2,160.52-137.41,160.52Z"/>
      <g>
        <path class="cls-10" d="m569.01,469.27c.63,4.47.15,8.44-1.43,11.89-1.09,2.39-2.6,4.41-4.53,6.08-1.13.98-.82,2.93.66,3.78,3.18,1.84,5.92,4.16,8.22,6.97,3.11,3.79,5.01,8.12,5.69,13.01,1.18,8.4-.51,14.92-5.07,19.56-4.56,4.64-10.9,6.95-19.01,6.95s-15.7-2.33-21.79-6.99c-6.09-4.66-9.72-11.17-10.9-19.53-.69-4.88.03-9.22,2.16-13.01,1.56-2.79,3.73-5.1,6.49-6.93,1.29-.86,1.04-2.87-.42-3.84-2.49-1.66-4.65-3.68-6.46-6.05-2.64-3.46-4.27-7.42-4.9-11.89-1.12-7.95.45-14.06,4.69-18.35,4.24-4.28,10.24-6.43,17.99-6.43s13.82,2.13,19.06,6.4c5.24,4.26,8.43,10.39,9.55,18.38Zm-8.73,40.92c-.58-4.1-2.07-7.45-4.49-10.06-2.42-2.61-5.12-3.91-8.12-3.91-3.37,0-5.96,1.3-7.79,3.91-1.82,2.61-2.45,5.96-1.87,10.06s2.15,7.5,4.69,9.97c2.54,2.46,5.51,3.69,8.92,3.69,3.04,0,5.39-1.23,7.06-3.69,1.66-2.46,2.2-5.78,1.61-9.97Zm-8.38-40.11c-.51-3.64-1.64-6.53-3.38-8.66-1.74-2.13-3.81-3.2-6.2-3.2-2.76,0-4.78,1.04-6.07,3.1-1.29,2.07-1.67,4.99-1.14,8.76s1.76,6.78,3.7,9.04c1.94,2.26,4.27,3.38,6.99,3.38,2.39,0,4.14-1.12,5.25-3.35,1.11-2.24,1.39-5.26.86-9.07Z"/>
        <path class="cls-10" d="m586.93,493.92l-2.25-46.02c-.06-1.19.81-2.1,2.01-2.1h40.96c1.28,0,2.46,1.04,2.64,2.32l1.33,9.47c.18,1.28-.71,2.32-1.99,2.32h-26.85c-1.19,0-2.06.91-2.01,2.09l.65,15.01c.07,1.71,1.95,3,3.47,2.38l1.91-.78c2.13-.87,4.47-1.34,7.01-1.43,7.44-.12,13.56,2.46,18.34,7.76,4.78,5.3,7.84,12.73,9.19,22.29,1.25,8.86.05,16.12-3.6,21.8-3.64,5.67-10.11,8.51-19.4,8.51-7.46,0-14.18-2.21-20.16-6.64-5.98-4.43-9.4-10.47-10.27-18.13l.08-.31,14.25-.75c1.22-.06,2.41.84,2.71,2.06.69,2.86,1.91,5.15,3.66,6.88,2.17,2.15,4.77,3.23,7.82,3.23,3.53,0,5.88-1.41,7.04-4.22,1.17-2.81,1.37-6.91.61-12.3-.76-5.38-2.23-9.63-4.41-12.76-2.18-3.13-5.04-4.69-8.57-4.69-2.8,0-4.86.66-6.17,1.99-1,1.01-1.69,2.31-2.07,3.9-.22.94-1.09,1.51-2.1,1.44l-11.32-.77c-1.31-.09-2.44-1.23-2.5-2.52Z"/>
      </g>
    </g>
    <g>
      <g>
        <path class="cls-12" d="m685.91,435.5c-.28.25-.55.49-.83.74-1.7,1.52-3.06,3.54-3.62,5.75,2.08,2.43,3.59,5.74,4.3,8.86,1.44-.08,2.83-1.12,3.31-2.47.48-1.36.34-2.86.03-4.27-.32-1.41-.81-2.77-1.05-4.2-.28-1.72-.92-3.16-2.14-4.41Z"/>
        <path class="cls-12" d="m682.09,426.95c-4.54,3.06-8.7,6.69-12.33,10.79,1.69,1.47,4.3,1.51,6.3.51,2-1.01,3.52-2.75,4.98-4.45.65-.76,1.4-1.06,1.94-1.89.54-.84.84-1.88.62-2.85-.22-.98-.52-1.97-1.51-2.1Z"/>
        <path class="cls-12" d="m682.32,434.31c-.28.25-.55.49-.83.74-1.7,1.52-3.06,3.53-3.62,5.75,2.08,2.43,3.59,5.73,4.31,8.86,1.44-.08,2.83-1.12,3.3-2.47.48-1.36.35-2.86.03-4.27-.32-1.41-.81-2.77-1.05-4.2-.28-1.72-.92-3.16-2.14-4.41Z"/>
        <path class="cls-11" d="m715.33,475.3c-2.81-4.68-6.13-9.05-9.89-13-5.66-1.03-10.28-5.26-13.47-10.05-3.19-4.79-5.66-10.12-9.62-14.29-.87-.92-1.82-1.79-2.45-2.88-.63-1.1-.89-2.5-.3-3.62.59-1.12,2.21-1.68,3.2-.89-.95-1.43-3.05-2.62-4.69-3.13-1.64-.51-3.37-.83-4.86-1.69-1.49-.86-2.73-2.43-2.58-4.14,5.24.39,10.73,1.09,15.69,2.82,4,1.4,7.81,4.39,11.48,6.91,1.54,1.05,2.77,2.47,3.63,4.12,5.76,11.14,14.04,20.91,23.85,28.75-1.29,2.29-2.75,5.37-4.5,7.33-1.76,1.96-2.9,3.27-5.49,3.75Z"/>
      </g>
      <path class="cls-7" d="m781.05,437.93v-.02s0-.03,0,0l-.03.07-.06.15-.14.37-.32.81c-.11.28-.22.56-.34.85-.11.28-.23.57-.36.86-.48,1.16-.99,2.34-1.53,3.51-1.09,2.34-2.23,4.69-3.48,6.97-1.25,2.28-2.53,4.55-3.91,6.74-.7,1.09-1.39,2.18-2.13,3.24-.7,1.08-1.46,2.12-2.2,3.17-1.52,2.06-3.09,4.09-4.74,6.01-.4.5-.83.96-1.24,1.44-.42.47-.83.96-1.26,1.41-.87.91-1.71,1.85-2.61,2.72-1.75,1.8-3.62,3.44-5.49,5.08-1.91,1.57-3.85,3.11-5.87,4.5-.51.35-1,.71-1.51,1.05l-1.55.99-.77.5-.19.12.1-.06.13-.08c.18-.1.37-.19.56-.27.8-.39,1.75-.62,2.61-.71.22-.02.4-.04.6-.04.1,0,.2,0,.3,0h.25c.16,0,.33.02.49.05.13,0,.25.02.38.05.06.01.13.03.18.04.04,0,.09.01.13.02.08.02.18.05.25.07.05.01.1.03.15.05l.07.03s.02,0,.03,0c.18.09-.19-.03-.71-.37-.53-.34-1.22-.87-1.97-1.5-.75-.64-1.54-1.38-2.35-2.2-1.63-1.62-3.29-3.52-4.95-5.51-1.65-2.01-3.3-4.13-4.92-6.32-1.63-2.18-3.24-4.44-4.81-6.74-1.58-2.3-3.15-4.62-4.68-6.98-.78-1.17-1.54-2.35-2.29-3.54l-4-5.9-21.81,14.59.52,1.17.49,1.09.99,2.14c.68,1.42,1.36,2.82,2.06,4.22,1.42,2.79,2.88,5.55,4.42,8.29,1.56,2.73,3.17,5.46,4.88,8.18.86,1.35,1.74,2.7,2.66,4.05.92,1.35,1.87,2.69,2.85,4.03,1.98,2.69,4.1,5.36,6.55,8.04,1.23,1.34,2.54,2.68,3.99,4.03,1.46,1.35,3.06,2.7,4.98,4.04,1.92,1.34,4.14,2.7,7.09,3.86l.55.21c.19.07.4.14.6.2.4.13.81.26,1.21.38.42.12.88.23,1.33.34l.67.15c.22.05.48.09.72.13.49.08.99.15,1.48.21.52.05,1.06.09,1.6.11.27.01.53.02.81.03.28,0,.57,0,.85-.02.57-.02,1.13-.05,1.71-.11,2.33-.25,4.71-.91,6.88-1.88.52-.25,1.04-.51,1.54-.79l.38-.21.34-.2.28-.17,1.11-.69,2.21-1.39c.72-.48,1.43-.98,2.15-1.46,2.88-1.94,5.59-4.1,8.24-6.31,2.6-2.25,5.14-4.58,7.51-7.05,2.4-2.44,4.63-5.02,6.78-7.64l1.57-1.99c.52-.67,1.01-1.35,1.52-2.03.5-.68,1.01-1.36,1.48-2.05l1.44-2.07c3.77-5.57,7.03-11.4,9.82-17.44,1.38-3.03,2.68-6.09,3.82-9.24.57-1.58,1.12-3.16,1.63-4.8.13-.41.25-.82.37-1.24.12-.41.24-.83.36-1.26.12-.42.24-.86.36-1.31l.39-1.58-27.19-7.26Z"/>
      <g>
        <g>
          <g>
            <g>
              <g>
                <path class="cls-4" d="m786.37,578.71c53.42,5.61,52.64,34.79,52.64,34.79l-21.58,121.63-15.41,105.98h-25.48c-10.85-139.3,9.83-262.39,9.83-262.39Z"/>
                <path class="cls-4" d="m824.65,611.82s-23.76-14.53-26.55-27.25l89.21,3.03s14.91,164.24,14.53,253.49h-25.27s-51.93-229.27-51.93-229.27Z"/>
                <path class="cls-7" d="m899.76,841.1c-.01,3.31-.04,6.54-.08,9.64h-20.16l-1.13-9.64h21.37Z"/>
                <path class="cls-7" d="m799.91,841.1c0,3.31-.03,6.54-.07,9.64h-20.17s-1.13-9.64-1.13-9.64h21.37Z"/>
              </g>
              <g>
                <path class="cls-4" d="m879.51,849.83l20.6-.55c5.74,5.71,9.83,12.88,11.83,20.55h-37.18c.75-6.83,2.28-13.54,4.75-20Z"/>
                <path class="cls-13" d="m911.94,869.84c.2.74.39,1.47.54,2.21.24,1.17-.67,2.26-1.92,2.26h-34.09c-1.14,0-2.05-.92-1.96-2,.07-.82.16-1.65.25-2.47h37.18Z"/>
              </g>
              <g>
                <path class="cls-4" d="m799.74,850.43l-19.66-.51c-5.47,5.44-38.46,12.28-40.37,19.6h64.57c-.71-6.51-2.18-12.92-4.54-19.09Z"/>
                <path class="cls-13" d="m739.71,869.51c-.18.7-.37,1.4-.52,2.11-.23,1.12.64,2.16,1.83,2.16h61.61c1.09,0,1.96-.88,1.87-1.91-.07-.79-.15-1.57-.24-2.36h-64.57Z"/>
              </g>
            </g>
            <path class="cls-6" d="m843.17,422.3c1.93.28,6.04,2.91,6.13,4.86.32,6.12-11.46,11.21-22.24,10.35-10.79-.87-10.81-6.72-8.77-9.63,2.1-3.02,6.9-8.19,24.89-5.58Z"/>
            <path class="cls-7" d="m841.57,424.82c-9.87,22.92-22.49,148.36-10.97,170.62,12.13,23.44,49.25,8.77,62.73,2.46,3.05-1.43,5-4.47,5.04-7.84.29-23.35.46-116.41-14.08-152.26-3.89-9.57-38.63-22.48-42.71-12.99Z"/>
            <path class="cls-7" d="m819.96,419.76s-37.64,2.44-41.3,24.97c-3.66,22.53-4.83,122.85-6.43,147.94-1.1,17.1,34.84,25.64,57.7-8.1,10.68-15.76,16.27-68.38,17.97-83.38,5.34-47.1-27.93-81.43-27.93-81.43Z"/>
            <path class="cls-4" d="m808.91,391.96s-13.79-17.03-8.48-31.29c5.31-14.26,23.45,1.55,33-1.89,9.55-3.44,16.87-2.95,18.93,21.77,1.53,18.36-13.3,34.75-13.3,34.75l-30.15-23.33Z"/>
            <path class="cls-12" d="m818.8,410.08l1.4,24.31s8.09.85,25-3.05c0,0-2.26-21.41-.15-35.2,0,0-.22,2.27-2.99,2.37,0,0-3.91,14.02-23.26,11.58Z"/>
            <path class="cls-11" d="m831.53,416.68c-11.25,2.8-20.56-1.62-22.15-11.31-.38-2.33-.68-5.73-.91-9.27,0-.04,0-.07,0-.11-.05-.75-.09-1.52-.14-2.27-.03-.55-.06-1.1-.09-1.65-.32-6.32-.43-12.05-.43-12.05.83-15.78,16.07-22.44,28.83-17.11,12.75,5.32,8.95,24.67,9.39,34.01.45,9.33-4.84,17.37-14.49,19.76Z"/>
            <path class="cls-4" d="m807.87,381.09h0c-.55-3.24-1.21-9.26,3.67-15.63,7.29-9.51,23.35-10,30.3-1.21,6.96,8.79,4.31,16.97,4.31,16.97,0,0-2.52,1.09-3.46,6.21,0,0,1.53-.36.18,3.49-1.77,5.05-5.15-7.55-4.22-14.51.92-6.95-11.63-13.08-19.76-11.01-8.14,2.06-10.3,9.71-10.3,9.71,0,0-.74,2.8-.72,5.99Z"/>
            <path class="cls-14" d="m851.38,426.78c-.27-2.28-6.99-7.31-6.99-7.31l-13.79,13.05,8.06,19.79s13.56-18.46,12.72-25.53Z"/>
            <path class="cls-14" d="m830.6,432.51l-8.4,16.74s-13.96-14.06-7.32-27.06c0,0,1.59-4.1,4.52-2.24,0,0,7.79,8.26,11.2,12.56Z"/>
            <path class="cls-2" d="m834.38,441.81s.64,3.93-4.46,15.03c-2.54,5.54-4-15.03-4-15.03l4.67-9.3,3.79,9.3Z"/>
          </g>
          <path class="cls-7" d="m856.01,457.58l10.83,41.6-27.93-7.67-7.21,29.84s35.43,11.09,53.14,11.74c8.57.32,19.2-11.29,17.2-21.63-5.19-26.82-18.16-73.21-18.16-73.21,0,0-6.73-10.63-15.93-8.31-3.56.9-5.99,3.17-7.82,5.56-6.52,8.52-4.12,22.08-4.12,22.08Z"/>
          <g>
            <path class="cls-8" d="m758.56,486.78l11.6,32.13c.64,1.78,2.42,2.89,5.13,3.33l45.01-4.85c1.74-.91,3.41-3.45,2.66-5.92l-9.41-30.92c-.57-1.86-2.35-3.07-4.29-2.9l-47.55,4.18c-2.42.21-3.98,2.66-3.16,4.95Z"/>
            <path class="cls-11" d="m804.62,487.12s8.96-1.36,10.51-1.18c1.55.18,22.76,10.61,22.76,10.61l-4.21,17.41-4.77-5.02s-5.16,0-8.13-1c-2.97-.99-6.43-2.03-6.43-2.03l-5.85,1.5-6.44.85s-2.33-.86-.69-2.51c1.65-1.65,5.99-2.23,5.99-2.23l6.46-2.3s-7.69.28-8.45.23c-.77-.04-5.78,1.83-6.53,1.4-.74-.43-1.18-1.56-.7-2.57.48-1.01,5.2-3.05,5.2-3.05l8.39-1.73-8.41.73-4.58.24s-1.34-.77.13-2.3c1.47-1.53,7.93-3.17,7.93-3.17l6.68-1.36-6.92.04-4.42,1.33c-1.21.36-2.14-1.15-1.23-2.02.72-.69,1.87-1.37,3.71-1.88Z"/>
          </g>
        </g>
        <path class="cls-11" d="m841.74,383.21s2.14-3.89,6.07-2.26c3.94,1.63,2.47,15.19-5.23,13.84l-.84-11.58Z"/>
        <path class="cls-4" d="m841.01,357.27s-43.87-1.9-33.13,23.81c0,0,13.9-3.99,18.13.79s13.01-7.89,7.27-14.95c-5.74-7.06,7.7,7.28,7.73-9.65Z"/>
      </g>
    </g>
  </g>
</svg>