<?xml version="1.0" encoding="UTF-8"?>
<svg id="Capa_1" data-name="Capa 1" xmlns="http://www.w3.org/2000/svg" viewBox="0 0 219.59 42.13">
  <defs>
    <style>
      .cls-1 {
        fill: #153b2e;
      }

      .cls-1, .cls-2, .cls-3, .cls-4, .cls-5, .cls-6, .cls-7, .cls-8, .cls-9 {
        stroke-width: 0px;
      }

      .cls-2 {
        fill: #fbdd60;
      }

      .cls-3 {
        fill: #4bab9a;
      }

      .cls-4 {
        fill: #f6b150;
      }

      .cls-5 {
        fill: #333;
      }

      .cls-6 {
        fill: #388678;
      }

      .cls-7 {
        fill: #2e7166;
      }

      .cls-8 {
        fill: #f2833e;
      }

      .cls-9 {
        fill: #439b8c;
      }
    </style>
  </defs>
  <g>
    <path class="cls-5" d="m49.36,34.44v-3.08l1.83-.26,8.14-22.25h5.26l8.09,22.25,1.83.26v3.08h-8.72v-3.08l1.78-.32-1.13-3.51h-9l-1.12,3.51,1.78.32v3.08h-8.72Zm9.28-10.69h6.57l-2.99-8.77-.25-.77h-.11l-.26.83-2.97,8.72Z"/>
    <path class="cls-5" d="m75.78,34.44v-3.08l2.46-.53v-11.79l-2.72-.53v-3.09h7.51l.23,2.72c.63-.97,1.41-1.73,2.35-2.27.93-.54,2-.81,3.19-.81,1.89,0,3.36.6,4.43,1.81s1.6,3.1,1.6,5.68v8.28l2.46.53v3.08h-9.81v-3.08l2.2-.53v-8.26c0-1.28-.25-2.18-.76-2.72-.5-.53-1.25-.8-2.25-.8-.74,0-1.38.16-1.92.46-.54.31-1,.75-1.36,1.33v9.98l2.07.53v3.08h-9.67Z"/>
    <path class="cls-5" d="m105.31,34.81c-1.89,0-3.39-.51-4.5-1.52s-1.67-2.39-1.67-4.14c0-1.19.32-2.24.98-3.15.65-.9,1.61-1.61,2.88-2.13,1.27-.51,2.84-.77,4.7-.77h2.51v-1.41c0-.91-.27-1.66-.8-2.22-.53-.57-1.33-.85-2.4-.85-.55,0-1.04.07-1.49.2-.44.14-.83.33-1.19.57l-.41,2.51h-3.69l-.07-4.94c1-.56,2.07-1.02,3.23-1.37,1.16-.35,2.46-.53,3.89-.53,2.48,0,4.45.58,5.89,1.73,1.44,1.15,2.16,2.8,2.16,4.95v7.84c0,.26,0,.51,0,.76,0,.25.03.49.06.73l1.99.28v3.08h-6.36c-.13-.33-.26-.68-.39-1.05-.13-.38-.22-.75-.28-1.13-.61.77-1.33,1.39-2.15,1.85-.83.46-1.79.69-2.91.69Zm1.37-3.8c.71,0,1.39-.16,2.04-.48.64-.32,1.14-.75,1.49-1.27v-3.01h-2.53c-1.13,0-1.98.26-2.56.77-.58.52-.87,1.14-.87,1.86,0,.68.21,1.2.64,1.57.43.37,1.02.55,1.78.55Z"/>
    <path class="cls-5" d="m118.95,34.44v-3.08l2.48-.53V10.65l-2.74-.53v-3.09h7.87v23.82l2.48.53v3.08h-10.09Z"/>
    <path class="cls-5" d="m135.98,42.13c-.45,0-.92-.04-1.41-.11-.5-.08-.97-.18-1.41-.31l.58-3.76c.22.05.47.08.74.11.27.02.5.04.7.04.74,0,1.38-.19,1.91-.58s.93-.94,1.18-1.67l.42-1.18-6.36-15.8-2.34-.34v-3.09h10.09v3.09l-2.32.35,2.99,8.38.37,1.04h.11l3.53-9.46-2.27-.32v-3.09h9.4v3.09l-2.14.3-7.26,18.45c-.35.88-.8,1.68-1.34,2.42s-1.24,1.32-2.07,1.77c-.84.45-1.87.67-3.09.67Z"/>
    <path class="cls-5" d="m153.73,34.44v-3.02l9.89-12.41h-5.13l-.58,3.25h-3.76v-6.84h15.62v3.29l-9.33,12.06h5.38l.76-3.5h3.6v7.17h-16.45Z"/>
    <path class="cls-5" d="m172.59,34.44v-3.08l2.48-.53v-11.79l-2.74-.53v-3.09h7.87v15.42l2.46.53v3.08h-10.07Zm2.3-23.04v-4.38h5.31v4.38h-5.31Z"/>
    <path class="cls-5" d="m184.65,34.44v-3.08l2.48-.53v-11.81h-2.83v-3.6h2.83v-2.11c0-2.13.61-3.78,1.84-4.93,1.22-1.15,2.94-1.73,5.14-1.73.55,0,1.13.04,1.74.13.61.09,1.13.19,1.56.31l-.44,3.82c-.28-.08-.6-.14-.97-.19-.36-.04-.73-.06-1.11-.06-.89,0-1.55.23-1.99.69-.43.46-.65,1.11-.65,1.97v2.11h4.31v3.6h-4.31v11.81l3.36.53v3.08h-10.97Z"/>
    <path class="cls-5" d="m203.68,42.13c-.44,0-.92-.04-1.41-.11-.5-.08-.97-.18-1.41-.31l.58-3.76c.22.05.47.08.74.11.27.02.5.04.7.04.74,0,1.38-.19,1.92-.58s.93-.94,1.18-1.67l.42-1.18-6.36-15.8-2.34-.34v-3.09h10.09v3.09l-2.32.35,2.99,8.38.37,1.04h.11l3.53-9.46-2.27-.32v-3.09h9.4v3.09l-2.14.3-7.26,18.45c-.35.88-.8,1.68-1.34,2.42s-1.24,1.32-2.07,1.77c-.84.45-1.87.67-3.09.67Z"/>
  </g>
  <g>
    <path class="cls-8" d="m35.84,6.07C27.74-2.02,14.61-2.02,6.51,6.07-.38,12.96-1.4,23.5,3.43,31.48l-1.78,8.78,8.78-1.78c7.98,4.84,18.51,3.81,25.4-3.08,8.1-8.1,8.1-21.23,0-29.33Z"/>
    <path class="cls-2" d="m6.98,5.63c-.16.15-.32.29-.47.45C-.38,12.96-1.4,23.5,3.43,31.48l-1.65,8.12,11.61-18.86L6.98,5.63Z"/>
    <polygon class="cls-4" points="13.4 20.74 23.54 30.25 28.95 20.74 6.99 5.62 6.98 5.63 13.4 20.74"/>
    <path class="cls-7" d="m39.84,11.7h0l-10.89,9.04,6.3,15.2c.2-.18.4-.35.59-.54,6.41-6.41,7.74-15.97,4-23.7Z"/>
    <polygon class="cls-9" points="28.95 20.74 35.25 35.94 23.54 30.25 28.95 20.74"/>
    <path class="cls-6" d="m35.25,35.94l-11.7-5.69-13.11,8.23c7.76,4.7,17.92,3.85,24.81-2.54Z"/>
    <polygon class="cls-3" points="23.54 30.25 10.43 38.48 1.65 40.26 13.4 20.74 23.54 30.25"/>
    <polygon class="cls-1" points="1.92 40.42 1.38 40.1 13.33 20.23 23.47 29.98 28.75 20.49 39.64 11.46 40.04 11.94 29.2 20.94 23.62 31.01 13.46 21.24 1.92 40.42"/>
    <circle class="cls-1" cx="13.4" cy="20.74" r="1.65"/>
    <circle class="cls-1" cx="21.17" cy="20.74" r="1.65"/>
    <circle class="cls-1" cx="23.54" cy="30.25" r="1.65"/>
    <circle class="cls-1" cx="1.65" cy="39.81" r="1.65"/>
    <circle class="cls-1" cx="39.84" cy="11.7" r="1.65"/>
    <circle class="cls-1" cx="28.95" cy="20.74" r="1.65"/>
  </g>
</svg>