<svg width="215" height="30" viewBox="0 0 215 30" fill="none" xmlns="http://www.w3.org/2000/svg">
<path d="M14.763 12.5545L11.9678 15.3496L19.4049 22.7866L22.2 19.9915L14.763 12.5545Z" fill="#39B54A"/>
<path d="M12.7765 25.2L12.6353 21.2471C12.5647 21.2471 12.4235 21.2471 12.3529 21.2471C7.76471 21.2471 4.02353 17.5059 4.02353 12.9177C4.02353 8.32943 7.69412 4.58826 12.3529 4.58826C16.9412 4.58826 20.6824 8.32943 20.6824 12.9177C20.6824 12.9883 20.6824 13.1294 20.6824 13.2L24.6353 13.3412C24.6353 13.2 24.6353 13.0588 24.6353 12.8471C24.6353 6.07061 19.1294 0.494141 12.2824 0.494141C5.50588 0.635317 0 6.1412 0 12.9177C0 19.6941 5.50588 25.2706 12.3529 25.2706C12.4941 25.2706 12.6353 25.2706 12.7765 25.2Z" fill="black"/>
<path d="M26.6824 21.1061L29.153 18.1414C31.4118 20.1179 33.6706 21.1767 36.5647 21.1767C39.1059 21.1767 40.7294 19.9767 40.7294 18.212V18.1414C40.7294 16.5179 39.8118 15.5296 35.4353 14.5414C30.4235 13.3414 27.6 11.7885 27.6 7.48259V7.412C27.6 3.38847 30.9883 0.564941 35.6471 0.564941C39.1059 0.564941 41.7883 1.62376 44.1883 3.52965L42 6.63553C39.8824 5.08259 37.7647 4.23553 35.6471 4.23553C33.2471 4.23553 31.8353 5.43553 31.8353 7.05906V7.12965C31.8353 8.96494 32.8941 9.74141 37.4824 10.8002C42.4235 12.0708 45.0353 13.7649 45.0353 17.7179V17.7885C45.0353 22.2355 41.5765 24.8473 36.6353 24.8473C32.8941 24.8473 29.5059 23.6473 26.6824 21.1061Z" fill="black"/>
<path d="M46.9412 21.1061L49.4118 18.1414C51.6706 20.1179 53.9294 21.1767 56.8235 21.1767C59.3647 21.1767 60.9882 19.9767 60.9882 18.212V18.1414C60.9882 16.5179 60.0706 15.5296 55.6941 14.5414C50.6823 13.3414 47.8588 11.7885 47.8588 7.48259V7.412C47.8588 3.38847 51.247 0.564941 55.9059 0.564941C59.3647 0.564941 62.047 1.62376 64.447 3.52965L62.2588 6.63553C60.1412 5.08259 58.0235 4.23553 55.9059 4.23553C53.5059 4.23553 52.0941 5.43553 52.0941 7.05906V7.12965C52.0941 8.96494 53.1529 9.74141 57.7412 10.8002C62.6823 12.0708 65.2941 13.7649 65.2941 17.7179V17.7885C65.2941 22.2355 61.8353 24.8473 56.8941 24.8473C53.1529 24.8473 49.7647 23.6473 46.9412 21.1061Z" fill="black"/>
<path d="M83.7177 0.847168H87.5294L97.9059 24.5648H93.5294L91.1294 18.9178H79.9765L77.5765 24.5648H73.3412L83.7177 0.847168ZM89.6471 15.1766L85.5529 5.78834L81.5294 15.1766H89.6471Z" fill="black"/>
<path d="M99.4588 6.77628H103.553V9.52922C104.753 7.90569 106.306 6.42334 109.129 6.42334C113.153 6.42334 115.482 9.10569 115.482 13.1998V24.4939H111.388V14.4704C111.388 11.6469 109.976 10.1645 107.576 10.1645C105.176 10.1645 103.553 11.788 103.553 14.541V24.5645H99.4588V6.77628Z" fill="black"/>
<path d="M117.459 19.412C117.459 15.4591 120.494 13.6238 124.8 13.6238C126.847 13.6238 128.188 13.9061 129.6 14.3296V13.9061C129.6 11.3649 128.047 10.0238 125.224 10.0238C123.176 10.0238 121.765 10.4473 120.141 11.1532L119.012 7.97671C120.988 7.12965 122.894 6.56494 125.718 6.56494C128.4 6.56494 130.306 7.27082 131.576 8.54141C132.918 9.88259 133.482 11.7179 133.482 14.0473V24.5649H129.529V22.3767C128.329 23.7885 126.494 24.9885 123.741 24.9885C120.424 24.9179 117.459 23.012 117.459 19.412ZM129.671 18.1414V16.9414C128.612 16.5179 127.271 16.2355 125.647 16.2355C122.965 16.2355 121.482 17.2944 121.482 19.2002V19.2708C121.482 20.9649 122.965 21.9532 124.941 21.9532C127.624 21.9532 129.671 20.4002 129.671 18.1414Z" fill="black"/>
<path d="M136.094 0H140.188V24.5647H136.094V0Z" fill="black"/>
<path d="M156.212 6.77637H160.447L153.388 24.9881C151.976 28.6587 150.424 29.9999 147.529 29.9999C145.835 29.9999 144.565 29.5764 143.294 28.8705L144.706 25.9058C145.482 26.3293 146.259 26.6117 147.106 26.6117C148.306 26.6117 148.941 26.1175 149.647 24.5646L142.235 6.77637H146.612L151.553 19.9764L156.212 6.77637Z" fill="black"/>
<path d="M164.753 19.6234V10.3058H162.494V6.77635H164.753V1.90576H168.847V6.77635H173.647V10.3058H168.847V18.9881C168.847 20.5411 169.624 21.1763 171.035 21.1763C171.882 21.1763 172.729 20.9646 173.576 20.5411V23.8587C172.518 24.4234 171.459 24.7763 169.906 24.7763C166.871 24.8469 164.753 23.5058 164.753 19.6234Z" fill="black"/>
<path d="M175.624 0.211914H179.718V4.09427H175.624V0.211914ZM175.624 6.77662H179.718V24.4943H175.624V6.77662Z" fill="black"/>
<path d="M181.765 15.741C181.765 10.6586 185.647 6.42334 191.012 6.42334C194.329 6.42334 196.376 7.69393 198.071 9.45863L195.529 12.2116C194.259 10.8704 192.988 10.0233 190.941 10.0233C187.976 10.0233 185.788 12.5645 185.788 15.6704V15.741C185.788 18.9175 187.976 21.388 191.082 21.388C192.988 21.388 194.4 20.541 195.671 19.1998L198.141 21.5998C196.376 23.5763 194.329 24.9175 190.871 24.9175C185.718 24.9175 181.765 20.8233 181.765 15.741Z" fill="black"/>
<path d="M200.259 22.2355L202.094 19.4826C204.071 20.8944 206.047 21.6708 207.882 21.6708C209.647 21.6708 210.635 20.9649 210.635 19.7649V19.6944C210.635 18.3532 208.729 17.8591 206.682 17.2238C204.071 16.5179 201.106 15.3885 201.106 12.0708V12.0002C201.106 8.612 203.929 6.56494 207.459 6.56494C209.718 6.56494 212.118 7.34141 213.953 8.612L212.329 11.5061C210.635 10.4473 208.8 9.812 207.318 9.812C205.765 9.812 204.847 10.5885 204.847 11.5767V11.6473C204.847 12.9179 206.753 13.5532 208.871 14.1885C211.412 14.9649 214.376 16.1649 214.376 19.3414V19.412C214.376 23.1532 211.482 24.9885 207.812 24.9885C205.271 24.8473 202.518 24.0002 200.259 22.2355Z" fill="black"/>
</svg>
